Lato-Light.ufo
<glyph name="exclam" format="2">
  <advance width="509.0"/>
  <unicode hex="0021"/>
  <guideline x="353.0"/>
  <outline>
    <contour>
      <point x="208.75" y="1415.0" type="line"/>
      <point x="208.75" y="843.0" type="line" smooth="yes"/>
      <point x="208.75" y="724.0"/>
      <point x="214.25" y="636.0"/>
      <point x="223.25" y="487.0" type="curve"/>
      <point x="287.75" y="487.0" type="line"/>
      <point x="296.75" y="636.0"/>
      <point x="302.25" y="724.0"/>
      <point x="302.25" y="843.0" type="curve" smooth="yes"/>
      <point x="302.25" y="1415.0" type="line"/>
    </contour>
    <contour>
      <point x="159.75" y="76.5" type="curve" smooth="yes"/>
      <point x="159.75" y="24.5"/>
      <point x="199.75" y="-15.5"/>
      <point x="251.75" y="-15.5" type="curve" smooth="yes"/>
      <point x="303.25" y="-15.5"/>
      <point x="345.25" y="24.5"/>
      <point x="345.25" y="76.5" type="curve" smooth="yes"/>
      <point x="345.25" y="128.0"/>
      <point x="303.25" y="170.0"/>
      <point x="251.75" y="170.0" type="curve" smooth="yes"/>
      <point x="199.75" y="170.0"/>
      <point x="159.75" y="128.0"/>
    </contour>
  </outline>
</glyph>
<glyph name="numbersign" format="2">
  <advance width="1160.0"/>
  <unicode hex="0023"/>
  <outline>
    <contour>
      <point x="299.5" y="487.0" type="line"/>
      <point x="299.5" y="466.0" type="line"/>
      <point x="200.5" y="0.0" type="line"/>
      <point x="242.5" y="0.0" type="line" smooth="yes"/>
      <point x="264.5" y="0.0"/>
      <point x="284.0" y="11.0"/>
      <point x="289.0" y="40.0" type="curve"/>
      <point x="379.5" y="466.0" type="line"/>
      <point x="379.5" y="487.0" type="line"/>
      <point x="473.0" y="930.5" type="line"/>
      <point x="473.0" y="950.5" type="line"/>
      <point x="571.5" y="1415.0" type="line"/>
      <point x="530.0" y="1415.0" type="line" smooth="yes"/>
      <point x="506.5" y="1415.0"/>
      <point x="488.5" y="1402.0"/>
      <point x="484.0" y="1377.0" type="curve"/>
      <point x="393.0" y="950.5" type="line"/>
      <point x="393.0" y="930.5" type="line"/>
    </contour>
    <contour>
      <point x="677.5" y="487.0" type="line"/>
      <point x="677.5" y="466.0" type="line"/>
      <point x="587.0" y="44.0" type="line"/>
      <point x="580.5" y="16.5"/>
      <point x="596.5" y="0.0"/>
      <point x="618.0" y="0.0" type="curve" smooth="yes"/>
      <point x="658.5" y="0.0" type="line"/>
      <point x="757.5" y="466.0" type="line"/>
      <point x="757.5" y="487.0" type="line"/>
      <point x="851.0" y="930.5" type="line"/>
      <point x="851.0" y="950.5" type="line"/>
      <point x="942.0" y="1373.5" type="line"/>
      <point x="947.5" y="1399.0"/>
      <point x="933.5" y="1415.0"/>
      <point x="911.5" y="1415.0" type="curve"/>
      <point x="869.5" y="1415.0" type="line"/>
      <point x="771.0" y="950.5" type="line"/>
      <point x="771.0" y="930.5" type="line"/>
    </contour>
    <contour>
      <point x="1013.5" y="443.0" type="line"/>
      <point x="1017.5" y="472.5" type="line" smooth="yes"/>
      <point x="1021.0" y="501.5"/>
      <point x="1009.5" y="513.0"/>
      <point x="988.0" y="513.0" type="curve" smooth="yes"/>
      <point x="86.5" y="513.0" type="line"/>
      <point x="82.5" y="483.5" type="line" smooth="yes"/>
      <point x="79.0" y="454.5"/>
      <point x="90.5" y="443.0"/>
      <point x="112.0" y="443.0" type="curve" smooth="yes"/>
    </contour>
    <contour>
      <point x="133.5" y="902.5" type="line"/>
      <point x="1029.0" y="902.5" type="line" smooth="yes"/>
      <point x="1057.0" y="902.5"/>
      <point x="1070.5" y="913.0"/>
      <point x="1073.5" y="935.0" type="curve" smooth="yes"/>
      <point x="1079.5" y="972.5" type="line"/>
      <point x="184.0" y="972.5" type="line"/>
      <point x="156.0" y="972.5"/>
      <point x="142.5" y="962.0"/>
      <point x="139.5" y="940.0" type="curve" smooth="yes"/>
    </contour>
  </outline>
</glyph>
<glyph name="dollar" format="2">
  <advance width="1160.0"/>
  <unicode hex="0024"/>
  <outline>
    <contour>
      <point x="977.0" y="1281.5" type="line"/>
      <point x="884.5" y="1376.0"/>
      <point x="773.0" y="1429.0"/>
      <point x="614.5" y="1429.0" type="curve" smooth="yes"/>
      <point x="349.5" y="1429.0"/>
      <point x="200.5" y="1253.5"/>
      <point x="200.5" y="1064.5" type="curve" smooth="yes"/>
      <point x="200.5" y="584.5"/>
      <point x="927.0" y="797.5"/>
      <point x="927.0" y="398.0" type="curve" smooth="yes"/>
      <point x="927.0" y="210.0"/>
      <point x="793.5" y="64.0"/>
      <point x="558.5" y="64.0" type="curve" smooth="yes"/>
      <point x="312.5" y="64.0"/>
      <point x="228.5" y="223.0"/>
      <point x="190.0" y="223.0" type="curve" smooth="yes"/>
      <point x="178.0" y="223.0"/>
      <point x="169.0" y="217.0"/>
      <point x="162.0" y="208.0" type="curve" smooth="yes"/>
      <point x="135.0" y="168.5" type="line"/>
      <point x="237.5" y="54.5"/>
      <point x="369.5" y="-16.0"/>
      <point x="558.5" y="-16.0" type="curve" smooth="yes"/>
      <point x="849.0" y="-16.0"/>
      <point x="1017.0" y="174.5"/>
      <point x="1017.0" y="413.0" type="curve" smooth="yes"/>
      <point x="1017.0" y="871.0"/>
      <point x="290.0" y="678.0"/>
      <point x="290.0" y="1072.5" type="curve" smooth="yes"/>
      <point x="290.0" y="1219.0"/>
      <point x="401.0" y="1348.5"/>
      <point x="622.0" y="1348.5" type="curve" smooth="yes"/>
      <point x="821.5" y="1348.5"/>
      <point x="895.0" y="1231.0"/>
      <point x="928.5" y="1231.0" type="curve" smooth="yes"/>
      <point x="939.5" y="1231.0"/>
      <point x="948.0" y="1236.5"/>
      <point x="955.0" y="1248.0" type="curve"/>
    </contour>
    <contour>
      <point x="512.5" y="-257.5" type="line"/>
      <point x="548.5" y="-257.5" type="line" smooth="yes"/>
      <point x="566.0" y="-257.5"/>
      <point x="577.5" y="-243.5"/>
      <point x="578.0" y="-226.5" type="curve"/>
      <point x="671.5" y="1627.5" type="line"/>
      <point x="635.5" y="1627.5" type="line" smooth="yes"/>
      <point x="618.0" y="1627.5"/>
      <point x="606.5" y="1613.5"/>
      <point x="606.0" y="1596.5" type="curve"/>
    </contour>
  </outline>
</glyph>
<glyph name="percent" format="2">
  <advance width="1559.5"/>
  <unicode hex="0025"/>
  <outline>
    <contour>
      <point x="694.75" y="1074.5" type="curve" smooth="yes"/>
      <point x="694.75" y="1311.0"/>
      <point x="562.25" y="1430.5"/>
      <point x="397.25" y="1430.5" type="curve" smooth="yes"/>
      <point x="231.25" y="1430.5"/>
      <point x="100.25" y="1311.0"/>
      <point x="100.25" y="1074.5" type="curve" smooth="yes"/>
      <point x="100.25" y="841.5"/>
      <point x="231.25" y="722.0"/>
      <point x="397.25" y="722.0" type="curve" smooth="yes"/>
      <point x="557.25" y="722.0"/>
      <point x="694.75" y="841.5"/>
    </contour>
    <contour>
      <point x="618.75" y="1074.5" type="curve" smooth="yes"/>
      <point x="618.75" y="869.5"/>
      <point x="518.25" y="786.0"/>
      <point x="397.25" y="786.0" type="curve" smooth="yes"/>
      <point x="276.25" y="786.0"/>
      <point x="176.75" y="869.5"/>
      <point x="176.75" y="1074.5" type="curve" smooth="yes"/>
      <point x="176.75" y="1281.0"/>
      <point x="276.25" y="1366.5"/>
      <point x="397.25" y="1366.5" type="curve" smooth="yes"/>
      <point x="518.25" y="1366.5"/>
      <point x="618.75" y="1281.0"/>
    </contour>
    <contour>
      <point x="216.75" y="0.0" type="line"/>
      <point x="285.25" y="0.0" type="line" smooth="yes"/>
      <point x="300.25" y="0.0"/>
      <point x="312.25" y="6.5"/>
      <point x="320.25" y="17.5" type="curve"/>
      <point x="1335.75" y="1415.0" type="line"/>
      <point x="1268.75" y="1415.0" type="line" smooth="yes"/>
      <point x="1249.75" y="1415.0"/>
      <point x="1240.25" y="1407.5"/>
      <point x="1232.25" y="1397.0" type="curve"/>
    </contour>
    <contour>
      <point x="1459.25" y="336.0" type="curve" smooth="yes"/>
      <point x="1459.25" y="572.5"/>
      <point x="1326.75" y="692.0"/>
      <point x="1161.75" y="692.0" type="curve" smooth="yes"/>
      <point x="995.75" y="692.0"/>
      <point x="864.75" y="572.5"/>
      <point x="864.75" y="336.0" type="curve" smooth="yes"/>
      <point x="864.75" y="103.0"/>
      <point x="995.75" y="-16.5"/>
      <point x="1161.75" y="-16.5" type="curve" smooth="yes"/>
      <point x="1321.75" y="-16.5"/>
      <point x="1459.25" y="103.0"/>
    </contour>
    <contour>
      <point x="1383.25" y="336.0" type="curve" smooth="yes"/>
      <point x="1383.25" y="131.0"/>
      <point x="1282.75" y="47.5"/>
      <point x="1161.75" y="47.5" type="curve" smooth="yes"/>
      <point x="1040.75" y="47.5"/>
      <point x="941.25" y="131.0"/>
      <point x="941.25" y="336.0" type="curve" smooth="yes"/>
      <point x="941.25" y="542.5"/>
      <point x="1040.75" y="628.0"/>
      <point x="1161.75" y="628.0" type="curve" smooth="yes"/>
      <point x="1282.75" y="628.0"/>
      <point x="1383.25" y="542.5"/>
    </contour>
  </outline>
</glyph>
<glyph name="ampersand" format="2">
  <advance width="1397"/>
  <unicode hex="0026"/>
  <outline>
    <contour>
      <point x="494" y="802.5" type="line"/>
      <point x="278" y="739.5"/>
      <point x="107" y="571"/>
      <point x="107" y="361.5" type="curve" smooth="yes" name="n03"/>
      <point x="107" y="120.5"/>
      <point x="313.5" y="-16" name="n05"/>
      <point x="514" y="-16" type="curve" smooth="yes"/>
      <point x="931" y="-16"/>
      <point x="1192.5" y="375"/>
      <point x="1198.5" y="675.5" type="curve"/>
      <point x="1143.5" y="675.5" type="line" smooth="yes"/>
      <point x="1127" y="675.5"/>
      <point x="1120" y="665"/>
      <point x="1117.5" y="648" type="curve"/>
      <point x="1089.5" y="391"/>
      <point x="887.5" y="61.5"/>
      <point x="528" y="61.5" type="curve" smooth="yes" name="n16"/>
      <point x="379" y="61.5"/>
      <point x="204" y="163.5"/>
      <point x="204" y="368" type="curve" smooth="yes" name="n19"/>
      <point x="204" y="544"/>
      <point x="340.5" y="695"/>
      <point x="552.5" y="760" type="curve"/>
    </contour>
    <contour>
      <point x="660.5" y="1431" type="curve" smooth="yes" name="n23"/>
      <point x="445" y="1431"/>
      <point x="303" y="1290"/>
      <point x="303" y="1104.5" type="curve" smooth="yes" name="n26"/>
      <point x="303" y="968.5"/>
      <point x="368" y="861.5"/>
      <point x="502" y="727.5" type="curve"/>
      <point x="1220.5" y="22" type="line" smooth="yes"/>
      <point x="1240" y="3"/>
      <point x="1252" y="0"/>
      <point x="1276.5" y="0" type="curve" smooth="yes" name="n33"/>
      <point x="1365" y="0" type="line"/>
      <point x="565.5" y="787" type="line"/>
      <point x="448" y="901.5"/>
      <point x="393" y="995.5"/>
      <point x="393" y="1105" type="curve" smooth="yes" name="n38"/>
      <point x="393" y="1251.5"/>
      <point x="501" y="1356.5"/>
      <point x="660.5" y="1356.5" type="curve" smooth="yes" name="n41"/>
      <point x="818" y="1356.5"/>
      <point x="893.5" y="1231.5"/>
      <point x="905.5" y="1160.5" type="curve"/>
      <point x="911" y="1142.5"/>
      <point x="924" y="1135.5"/>
      <point x="937" y="1137.5" type="curve"/>
      <point x="991.5" y="1148" type="line" name="n48"/>
      <point x="987" y="1298"/>
      <point x="840.5" y="1431"/>
    </contour>
  </outline>
</glyph>
<glyph name="quotesingle" format="2">
  <advance width="391.0"/>
  <unicode hex="0027"/>
  <guideline x="250.0"/>
  <outline>
    <contour>
      <point x="154.25" y="1415.0" type="line"/>
      <point x="154.25" y="1123.0" type="line"/>
      <point x="162.75" y="969.5" type="line"/>
      <point x="166.25" y="948.0"/>
      <point x="175.75" y="934.5"/>
      <point x="195.25" y="934.5" type="curve" smooth="yes"/>
      <point x="217.25" y="934.5"/>
      <point x="225.25" y="948.0"/>
      <point x="228.25" y="969.5" type="curve"/>
      <point x="236.75" y="1123.0" type="line"/>
      <point x="236.75" y="1415.0" type="line"/>
    </contour>
  </outline>
</glyph>
<glyph name="parenleft" format="2">
  <advance width="516"/>
  <unicode hex="0028"/>
  <outline>
    <contour>
      <point x="194" y="630.5" type="curve" smooth="yes" name="n00"/>
      <point x="194" y="928.5"/>
      <point x="276" y="1204"/>
      <point x="435" y="1457.5" type="curve"/>
      <point x="448" y="1480.5"/>
      <point x="439.5" y="1493"/>
      <point x="428" y="1500" type="curve" smooth="yes"/>
      <point x="386" y="1525.5" type="line" name="n07"/>
      <point x="181.5" y="1212"/>
      <point x="110.5" y="941.5"/>
      <point x="110.5" y="630.5" type="curve" smooth="yes" name="n10"/>
      <point x="110.5" y="319.5"/>
      <point x="181.5" y="49"/>
      <point x="386" y="-264.5" type="curve" name="n13"/>
      <point x="428" y="-239" type="line" smooth="yes"/>
      <point x="439.5" y="-232"/>
      <point x="448" y="-219.5"/>
      <point x="435" y="-196.5" type="curve"/>
      <point x="276" y="57"/>
      <point x="194" y="332.5"/>
    </contour>
  </outline>
</glyph>
<glyph name="parenright" format="2">
  <advance width="516.25"/>
  <unicode hex="0029"/>
  <outline>
    <contour>
      <point x="322.25" y="630.5" type="curve"/>
      <point x="322.25" y="332.5"/>
      <point x="240.25" y="57.0"/>
      <point x="81.25" y="-196.5" type="curve"/>
      <point x="68.25" y="-219.5"/>
      <point x="76.75" y="-232.0"/>
      <point x="88.25" y="-239.0" type="curve"/>
      <point x="130.25" y="-264.5" type="line"/>
      <point x="334.75" y="49.0"/>
      <point x="405.75" y="319.5"/>
      <point x="405.75" y="630.5" type="curve" smooth="yes"/>
      <point x="405.75" y="941.5"/>
      <point x="334.75" y="1212.0"/>
      <point x="130.25" y="1525.5" type="curve"/>
      <point x="88.25" y="1500.0" type="line"/>
      <point x="76.75" y="1493.0"/>
      <point x="68.25" y="1480.5"/>
      <point x="81.25" y="1457.5" type="curve"/>
      <point x="240.25" y="1204.0"/>
      <point x="322.25" y="928.5"/>
    </contour>
  </outline>
</glyph>
<glyph name="asterisk" format="2">
  <advance width="850"/>
  <unicode hex="002A"/>
  <outline>
    <contour>
      <point x="176.5" y="1021" type="line"/>
      <point x="364.5" y="1130.5" type="line" smooth="yes"/>
      <point x="386" y="1143"/>
      <point x="398" y="1152.5"/>
      <point x="415" y="1176.5" type="curve"/>
      <point x="405.5" y="1195" type="line"/>
      <point x="376.5" y="1191.5"/>
      <point x="360.5" y="1187.5"/>
      <point x="339" y="1175" type="curve" smooth="yes"/>
      <point x="151" y="1065.5" type="line"/>
    </contour>
    <contour>
      <point x="450" y="897" type="line" name="n10"/>
      <point x="450" y="1111" type="line" smooth="yes" name="n11"/>
      <point x="450" y="1135.5"/>
      <point x="445.5" y="1150.5"/>
      <point x="435" y="1178" type="curve"/>
      <point x="415" y="1178" type="line"/>
      <point x="402.5" y="1152.5"/>
      <point x="398.5" y="1135.5"/>
      <point x="398.5" y="1110.5" type="curve" smooth="yes" name="n18"/>
      <point x="398.5" y="897" type="line"/>
    </contour>
    <contour>
      <point x="700.5" y="1065" type="line"/>
      <point x="511" y="1175" type="line" smooth="yes"/>
      <point x="489.5" y="1188"/>
      <point x="474.5" y="1191.5"/>
      <point x="444.5" y="1195" type="curve"/>
      <point x="435" y="1176.5" type="line"/>
      <point x="453" y="1151"/>
      <point x="464" y="1143"/>
      <point x="485.5" y="1130.5" type="curve" smooth="yes"/>
      <point x="675" y="1020.5" type="line"/>
    </contour>
    <contour>
      <point x="398.5" y="1493" type="line" name="n30"/>
      <point x="398.5" y="1279" type="line" smooth="yes"/>
      <point x="398.5" y="1254.5"/>
      <point x="403" y="1238"/>
      <point x="415" y="1210.5" type="curve"/>
      <point x="435" y="1210.5" type="line"/>
      <point x="447.5" y="1237.5"/>
      <point x="450" y="1254.5"/>
      <point x="450" y="1279.5" type="curve" smooth="yes"/>
      <point x="450" y="1493" type="line"/>
    </contour>
    <contour>
      <point x="149.5" y="1325" type="line"/>
      <point x="339" y="1215" type="line" smooth="yes"/>
      <point x="360.5" y="1202"/>
      <point x="375.5" y="1198.5"/>
      <point x="405.5" y="1193.5" type="curve"/>
      <point x="415" y="1212" type="line"/>
      <point x="395.5" y="1236"/>
      <point x="386" y="1247"/>
      <point x="364.5" y="1259.5" type="curve" smooth="yes"/>
      <point x="175" y="1369.5" type="line"/>
    </contour>
    <contour>
      <point x="673.5" y="1369" type="line"/>
      <point x="485.5" y="1259.5" type="line" smooth="yes"/>
      <point x="464" y="1247"/>
      <point x="452" y="1236"/>
      <point x="435" y="1212" type="curve"/>
      <point x="444.5" y="1193.5" type="line"/>
      <point x="473.5" y="1195.5"/>
      <point x="489.5" y="1202.5"/>
      <point x="511" y="1215" type="curve" smooth="yes"/>
      <point x="699" y="1324.5" type="line"/>
    </contour>
    <contour>
      <point x="400.5" y="1205.5" type="line"/>
      <point x="399.5" y="1179.5" type="line"/>
      <point x="422" y="1163.5" type="line"/>
      <point x="448.5" y="1179" type="line"/>
      <point x="450" y="1209.5" type="line"/>
      <point x="426.5" y="1218.5" type="line"/>
    </contour>
  </outline>
</glyph>
<glyph name="plus" format="2">
  <advance width="1160"/>
  <unicode hex="002B"/>
  <outline>
    <contour>
      <point x="111.25" y="634" type="line" name="n00"/>
      <point x="1050.25" y="634" type="line"/>
      <point x="1050.25" y="707" type="line"/>
      <point x="111.25" y="707" type="line" name="n03"/>
    </contour>
    <contour>
      <point x="540.75" y="1157.5" type="line" name="n04"/>
      <point x="540.75" y="181.5" type="line" name="n05"/>
      <point x="618.75" y="181.5" type="line"/>
      <point x="618.75" y="1157.5" type="line" name="n07"/>
    </contour>
  </outline>
</glyph>
<glyph name="comma" format="2">
  <advance width="438"/>
  <unicode hex="002C"/>
  <outline>
    <contour>
      <point x="133" y="84.5" type="curve" smooth="yes" name="n00"/>
      <point x="133" y="32.5"/>
      <point x="168" y="-4.5"/>
      <point x="217" y="-4.5" type="curve" smooth="yes" name="n03"/>
      <point x="243.5" y="-4.5"/>
      <point x="260.5" y="3.5"/>
      <point x="274" y="18" type="curve"/>
      <point x="249" y="25.5" type="line" name="n07"/>
      <point x="249" y="-86"/>
      <point x="169.5" y="-176.5"/>
      <point x="144.25" y="-205.25" type="curve" smooth="yes"/>
      <point x="139.5" y="-210.75"/>
      <point x="136" y="-216.5"/>
      <point x="136" y="-221.5" type="curve" smooth="yes"/>
      <point x="136" y="-228"/>
      <point x="137.5" y="-232.5"/>
      <point x="143.75" y="-238.25" type="curve" smooth="yes"/>
      <point x="159.5" y="-253" type="line" name="n17"/>
      <point x="251.5" y="-168"/>
      <point x="310.5" y="-47.5"/>
      <point x="310.5" y="62.5" type="curve" smooth="yes" name="n20"/>
      <point x="310.5" y="126"/>
      <point x="277" y="170"/>
      <point x="220" y="170" type="curve" smooth="yes" name="n23"/>
      <point x="168" y="170"/>
      <point x="133" y="130.5"/>
    </contour>
  </outline>
</glyph>
<glyph name="hyphen" format="2">
  <advance width="741"/>
  <unicode hex="002D"/>
  <unicode hex="00AD"/>
  <unicode hex="2010"/>
  <outline>
    <contour>
      <point x="137.75" y="553" type="line" name="n00"/>
      <point x="602.75" y="553" type="line"/>
      <point x="602.75" y="633.5" type="line"/>
      <point x="137.75" y="633.5" type="line" name="n03"/>
    </contour>
  </outline>
</glyph>
<glyph name="period" format="2">
  <advance width="467.5"/>
  <unicode hex="002E"/>
  <outline>
    <contour>
      <point x="141.0" y="76.5" type="curve" smooth="yes"/>
      <point x="141.0" y="24.5"/>
      <point x="181.0" y="-15.5"/>
      <point x="233.0" y="-15.5" type="curve" smooth="yes"/>
      <point x="284.5" y="-15.5"/>
      <point x="326.5" y="24.5"/>
      <point x="326.5" y="76.5" type="curve" smooth="yes"/>
      <point x="326.5" y="128.0"/>
      <point x="284.5" y="170.0"/>
      <point x="233.0" y="170.0" type="curve" smooth="yes"/>
      <point x="181.0" y="170.0"/>
      <point x="141.0" y="128.0"/>
    </contour>
  </outline>
</glyph>
<glyph name="slash" format="2">
  <advance width="869.5"/>
  <unicode hex="002F"/>
  <outline>
    <contour>
      <point x="793.0" y="1455.0" type="line"/>
      <point x="752.5" y="1455.0" type="line" smooth="yes"/>
      <point x="727.0" y="1455.0"/>
      <point x="708.0" y="1442.0"/>
      <point x="698.5" y="1418.5" type="curve"/>
      <point x="76.5" y="-83.5" type="line"/>
      <point x="115.5" y="-83.5" type="line" smooth="yes"/>
      <point x="137.5" y="-83.5"/>
      <point x="162.5" y="-72.0"/>
      <point x="172.5" y="-45.5" type="curve" smooth="yes"/>
    </contour>
  </outline>
</glyph>
<glyph name="zero" format="2">
  <advance width="1160.0"/>
  <unicode hex="0030"/>
  <outline>
    <contour>
      <point x="1087.0" y="707.5" type="curve" smooth="yes"/>
      <point x="1087.0" y="1202.5"/>
      <point x="859.5" y="1431.0"/>
      <point x="579.5" y="1431.0" type="curve" smooth="yes"/>
      <point x="299.5" y="1431.0"/>
      <point x="73.0" y="1202.5"/>
      <point x="73.0" y="707.5" type="curve" smooth="yes"/>
      <point x="73.0" y="212.5"/>
      <point x="299.5" y="-14.5"/>
      <point x="579.5" y="-14.5" type="curve" smooth="yes"/>
      <point x="859.5" y="-14.5"/>
      <point x="1087.0" y="212.5"/>
    </contour>
    <contour>
      <point x="987.5" y="707.5" type="curve" smooth="yes"/>
      <point x="987.5" y="247.5"/>
      <point x="799.0" y="65.5"/>
      <point x="579.5" y="65.5" type="curve" smooth="yes"/>
      <point x="360.0" y="65.5"/>
      <point x="171.0" y="247.5"/>
      <point x="171.0" y="707.5" type="curve" smooth="yes"/>
      <point x="171.0" y="1167.5"/>
      <point x="360.0" y="1351.0"/>
      <point x="579.5" y="1351.0" type="curve" smooth="yes"/>
      <point x="799.0" y="1351.0"/>
      <point x="987.5" y="1167.5"/>
    </contour>
  </outline>
</glyph>
<glyph name="one" format="2">
  <advance width="1160"/>
  <unicode hex="0031"/>
  <outline>
    <contour>
      <point x="613.5" y="1421" type="line" name="n00"/>
      <point x="601.5" y="1357"/>
      <point x="592.5" y="1285.5"/>
      <point x="592.5" y="1222.5" type="curve" smooth="yes"/>
      <point x="592.5" y="0" type="line" name="n04"/>
      <point x="688" y="0" type="line" name="n05"/>
      <point x="688" y="1421" type="line"/>
    </contour>
    <contour>
      <point x="267.5" y="0" type="line" name="n07"/>
      <point x="997" y="0" type="line"/>
      <point x="997" y="73.5" type="line"/>
      <point x="267.5" y="73.5" type="line" name="n10"/>
    </contour>
    <contour>
      <point x="204.5" y="1060" type="line"/>
      <point x="233.5" y="1020" type="line"/>
      <point x="243" y="1008.5"/>
      <point x="264.5" y="1001"/>
      <point x="283.5" y="1017" type="curve" smooth="yes"/>
      <point x="617.5" y="1313" type="line"/>
      <point x="613.5" y="1421" type="line"/>
    </contour>
  </outline>
</glyph>
<glyph name="two" format="2">
  <advance width="1160.0"/>
  <unicode hex="0032"/>
  <outline>
    <contour>
      <point x="588.5" y="1431.0" type="curve" smooth="yes"/>
      <point x="355.5" y="1431.0"/>
      <point x="184.0" y="1290.5"/>
      <point x="150.5" y="1049.0" type="curve"/>
      <point x="199.0" y="1041.5" type="line" smooth="yes"/>
      <point x="226.0" y="1038.0"/>
      <point x="240.5" y="1046.5"/>
      <point x="249.0" y="1074.5" type="curve" smooth="yes"/>
      <point x="279.0" y="1236.5"/>
      <point x="405.0" y="1350.0"/>
      <point x="584.0" y="1350.0" type="curve" smooth="yes"/>
      <point x="748.5" y="1350.0"/>
      <point x="897.5" y="1256.0"/>
      <point x="897.5" y="1047.5" type="curve" smooth="yes"/>
      <point x="897.5" y="863.0"/>
      <point x="777.0" y="726.5"/>
      <point x="618.0" y="564.5" type="curve"/>
      <point x="135.0" y="76.0" type="line"/>
      <point x="123.5" y="65.0"/>
      <point x="115.5" y="48.0"/>
      <point x="115.5" y="33.5" type="curve"/>
      <point x="115.5" y="0.0" type="line"/>
      <point x="1028.5" y="0.0" type="line"/>
      <point x="1028.5" y="56.0" type="line" smooth="yes"/>
      <point x="1028.5" y="76.0"/>
      <point x="1015.0" y="89.5"/>
      <point x="994.0" y="89.5" type="curve" smooth="yes"/>
      <point x="383.0" y="89.5" type="line" smooth="yes"/>
      <point x="311.5" y="89.5"/>
      <point x="236.5" y="75.0"/>
      <point x="187.0" y="57.0" type="curve"/>
      <point x="197.0" y="23.0" type="line"/>
      <point x="690.0" y="526.0" type="line" smooth="yes"/>
      <point x="853.0" y="691.0"/>
      <point x="995.0" y="836.5"/>
      <point x="995.0" y="1050.0" type="curve" smooth="yes"/>
      <point x="995.0" y="1305.0"/>
      <point x="804.5" y="1431.0"/>
    </contour>
  </outline>
</glyph>
<glyph name="three" format="2">
  <advance width="1160"/>
  <unicode hex="0033"/>
  <outline>
    <contour>
      <point x="594.25" y="1431" type="curve" smooth="yes" name="n00"/>
      <point x="361.25" y="1431"/>
      <point x="189.75" y="1290.5"/>
      <point x="156.25" y="1049" type="curve"/>
      <point x="204.75" y="1041.5" type="line" smooth="yes"/>
      <point x="231.75" y="1038"/>
      <point x="244.75" y="1046.5"/>
      <point x="253.25" y="1074.5" type="curve"/>
      <point x="283.25" y="1236.5"/>
      <point x="410.75" y="1350"/>
      <point x="589.75" y="1350" type="curve" smooth="yes" name="n10"/>
      <point x="754.25" y="1350"/>
      <point x="897.25" y="1260.5"/>
      <point x="897.25" y="1059.5" type="curve" smooth="yes" name="n13"/>
      <point x="897.25" y="885.5"/>
      <point x="768.75" y="766.5"/>
      <point x="523.25" y="760.5" type="curve"/>
      <point x="523.25" y="692.5" type="line"/>
      <point x="830.75" y="691"/>
      <point x="931.75" y="561"/>
      <point x="931.75" y="386.5" type="curve" smooth="yes" name="n20"/>
      <point x="931.75" y="242"/>
      <point x="811.25" y="65"/>
      <point x="571.25" y="65" type="curve" smooth="yes" name="n23"/>
      <point x="277.25" y="65"/>
      <point x="228.25" y="294.5"/>
      <point x="207.25" y="342.5" type="curve"/>
      <point x="196.25" y="370"/>
      <point x="168.75" y="371"/>
      <point x="147.75" y="362" type="curve" smooth="yes"/>
      <point x="110.25" y="346" type="line"/>
      <point x="157.75" y="175.5"/>
      <point x="249.75" y="-16"/>
      <point x="572.25" y="-16" type="curve" smooth="yes" name="n33"/>
      <point x="830.25" y="-16"/>
      <point x="1027.25" y="156.5"/>
      <point x="1027.25" y="389" type="curve" smooth="yes" name="n36"/>
      <point x="1027.25" y="600"/>
      <point x="880.75" y="740"/>
      <point x="604.25" y="748.5" type="curve"/>
      <point x="604.25" y="720.5" type="line"/>
      <point x="812.75" y="734"/>
      <point x="990.75" y="850.5"/>
      <point x="990.75" y="1073.5" type="curve" smooth="yes" name="n43"/>
      <point x="990.75" y="1309.5"/>
      <point x="810.25" y="1431"/>
    </contour>
  </outline>
</glyph>
<glyph name="four" format="2">
  <advance width="1160.0"/>
  <unicode hex="0034"/>
  <outline>
    <contour>
      <point x="836.75" y="1416.5" type="line"/>
      <point x="752.25" y="1416.5" type="line"/>
      <point x="40.75" y="476.5" type="line"/>
      <point x="50.25" y="430.5" type="line"/>
      <point x="53.75" y="416.5"/>
      <point x="64.25" y="406.5"/>
      <point x="84.25" y="406.5" type="curve" smooth="yes"/>
      <point x="1069.25" y="406.5" type="line" smooth="yes"/>
      <point x="1087.75" y="406.5"/>
      <point x="1096.25" y="416.5"/>
      <point x="1096.25" y="430.5" type="curve" smooth="yes"/>
      <point x="1096.25" y="482.0" type="line"/>
      <point x="69.25" y="482.0" type="line"/>
      <point x="115.25" y="441.0" type="line"/>
      <point x="810.25" y="1370.0" type="line"/>
      <point x="774.25" y="1378.0" type="line"/>
      <point x="758.75" y="1325.0"/>
      <point x="752.75" y="1268.5"/>
      <point x="752.75" y="1223.5" type="curve" smooth="yes"/>
      <point x="752.75" y="0.0" type="line"/>
      <point x="836.75" y="0.0" type="line"/>
    </contour>
  </outline>
</glyph>
<glyph name="five" format="2">
  <advance width="1160.0"/>
  <unicode hex="0035"/>
  <outline>
    <contour>
      <point x="961.75" y="1415.0" type="line"/>
      <point x="325.25" y="1415.0" type="line"/>
      <point x="214.75" y="788.5" type="line"/>
      <point x="276.25" y="769.0" type="line"/>
      <point x="371.0" y="795.25"/>
      <point x="457.25" y="807.5"/>
      <point x="533.5" y="807.5" type="curve" smooth="yes"/>
      <point x="784.5" y="807.5"/>
      <point x="902.25" y="665.0"/>
      <point x="902.25" y="460.5" type="curve" smooth="yes"/>
      <point x="902.25" y="212.0"/>
      <point x="734.75" y="67.5"/>
      <point x="514.75" y="67.5" type="curve" smooth="yes"/>
      <point x="328.25" y="67.5"/>
      <point x="235.25" y="164.0"/>
      <point x="200.25" y="164.0" type="curve" smooth="yes"/>
      <point x="188.25" y="164.0"/>
      <point x="178.25" y="159.0"/>
      <point x="171.75" y="149.0" type="curve"/>
      <point x="143.25" y="109.5" type="line"/>
      <point x="223.25" y="45.0"/>
      <point x="354.75" y="-16.0"/>
      <point x="510.25" y="-16.0" type="curve" smooth="yes"/>
      <point x="777.75" y="-16.0"/>
      <point x="999.25" y="164.5"/>
      <point x="999.25" y="463.0" type="curve" smooth="yes"/>
      <point x="999.25" y="708.75"/>
      <point x="844.75" y="886.5"/>
      <point x="550.5" y="886.5" type="curve" smooth="yes"/>
      <point x="468.75" y="886.5"/>
      <point x="376.75" y="874.0"/>
      <point x="273.25" y="845.5" type="curve"/>
      <point x="296.75" y="785.5" type="line"/>
      <point x="407.75" y="1405.0" type="line"/>
      <point x="336.25" y="1327.5" type="line"/>
      <point x="905.75" y="1327.5" type="line" smooth="yes"/>
      <point x="944.75" y="1327.5"/>
      <point x="961.75" y="1347.5"/>
      <point x="961.75" y="1374.0" type="curve" smooth="yes"/>
    </contour>
  </outline>
</glyph>
<glyph name="six" format="2">
  <advance width="1160"/>
  <unicode hex="0036"/>
  <outline>
    <contour>
      <point x="228.75" y="427" type="curve" smooth="yes"/>
      <point x="228.75" y="594.5"/>
      <point x="366.75" y="772"/>
      <point x="601.75" y="772" type="curve" smooth="yes" name="n03"/>
      <point x="808.75" y="772"/>
      <point x="951.75" y="637"/>
      <point x="951.75" y="419.5" type="curve" smooth="yes" name="n06"/>
      <point x="951.75" y="215"/>
      <point x="808.75" y="63"/>
      <point x="578.75" y="63" type="curve" smooth="yes" name="n09"/>
      <point x="363.25" y="63"/>
      <point x="228.75" y="215.5"/>
    </contour>
    <contour>
      <point x="223.25" y="449.5" type="line" name="n12"/>
      <point x="226.25" y="592.5"/>
      <point x="292.25" y="701"/>
      <point x="415.25" y="863.5" type="curve"/>
      <point x="836.75" y="1415" type="line" name="n16"/>
      <point x="752.75" y="1415" type="line" smooth="yes"/>
      <point x="731.25" y="1415"/>
      <point x="712.75" y="1406.5"/>
      <point x="702.25" y="1392" type="curve" smooth="yes"/>
      <point x="315.75" y="871.5" type="line" smooth="yes"/>
      <point x="189.25" y="700"/>
      <point x="136.25" y="560"/>
      <point x="136.25" y="450" type="curve" smooth="yes"/>
      <point x="136.25" y="158.5"/>
      <point x="315.75" y="-16"/>
      <point x="580.25" y="-16" type="curve" smooth="yes" name="n27"/>
      <point x="854.75" y="-16"/>
      <point x="1047.25" y="169.5"/>
      <point x="1047.25" y="425.5" type="curve" smooth="yes" name="n30"/>
      <point x="1047.25" y="681"/>
      <point x="870.75" y="845.5"/>
      <point x="627.75" y="845.5" type="curve" smooth="yes" name="n33"/>
      <point x="391.75" y="845.5"/>
      <point x="203.75" y="675.5"/>
      <point x="203.75" y="445" type="curve" name="n36"/>
    </contour>
  </outline>
</glyph>
<glyph name="seven" format="2">
  <advance width="1160.0"/>
  <unicode hex="0037"/>
  <outline>
    <contour>
      <point x="125.5" y="1415.0" type="line"/>
      <point x="125.5" y="1354.0" type="line" smooth="yes"/>
      <point x="125.5" y="1339.0"/>
      <point x="137.0" y="1327.5"/>
      <point x="152.0" y="1327.5" type="curve" smooth="yes"/>
      <point x="1040.5" y="1327.5" type="line"/>
      <point x="979.5" y="1339.5" type="line"/>
      <point x="962.0" y="1322.5"/>
      <point x="949.5" y="1304.0"/>
      <point x="937.0" y="1280.0" type="curve" smooth="yes"/>
      <point x="283.5" y="0.0" type="line"/>
      <point x="349.0" y="0.0" type="line" smooth="yes"/>
      <point x="378.0" y="0.0"/>
      <point x="396.0" y="15.0"/>
      <point x="406.0" y="35.5" type="curve" smooth="yes"/>
      <point x="1054.5" y="1321.5" type="line" smooth="yes"/>
      <point x="1060.0" y="1333.0"/>
      <point x="1067.0" y="1349.0"/>
      <point x="1067.0" y="1372.0" type="curve"/>
      <point x="1067.0" y="1415.0" type="line"/>
    </contour>
  </outline>
</glyph>
<glyph name="eight" format="2">
  <advance width="1160"/>
  <unicode hex="0038"/>
  <outline>
    <contour>
      <point x="580" y="-16" type="curve" smooth="yes" name="n00"/>
      <point x="851" y="-16"/>
      <point x="1040" y="133.5"/>
      <point x="1040" y="373.5" type="curve" smooth="yes" name="n03"/>
      <point x="1040" y="630.5"/>
      <point x="845" y="747.5"/>
      <point x="596" y="754.5" type="curve"/>
      <point x="596" y="718" type="line"/>
      <point x="847.5" y="728"/>
      <point x="989" y="871"/>
      <point x="989" y="1070" type="curve" smooth="yes" name="n10"/>
      <point x="989" y="1271"/>
      <point x="831.5" y="1431"/>
      <point x="580" y="1431" type="curve" smooth="yes" name="n13"/>
      <point x="328.5" y="1431"/>
      <point x="171" y="1271"/>
      <point x="171" y="1070" type="curve" smooth="yes" name="n16"/>
      <point x="171" y="871"/>
      <point x="312.5" y="728"/>
      <point x="564" y="718" type="curve"/>
      <point x="564" y="754.5" type="line"/>
      <point x="315" y="747.5"/>
      <point x="120" y="630.5"/>
      <point x="120" y="373.5" type="curve" smooth="yes" name="n23"/>
      <point x="120" y="133.5"/>
      <point x="309" y="-16"/>
    </contour>
    <contour>
      <point x="580" y="774" type="curve" smooth="yes"/>
      <point x="362.5" y="774"/>
      <point x="264.5" y="916.5"/>
      <point x="264.5" y="1068.5" type="curve" smooth="yes" name="n29"/>
      <point x="264.5" y="1231"/>
      <point x="379.5" y="1357"/>
      <point x="580" y="1357" type="curve" smooth="yes" name="n32"/>
      <point x="780.5" y="1357"/>
      <point x="895.5" y="1231"/>
      <point x="895.5" y="1068.5" type="curve" smooth="yes" name="n35"/>
      <point x="895.5" y="916.5"/>
      <point x="797.5" y="774"/>
    </contour>
    <contour>
      <point x="580" y="60" type="curve" smooth="yes" name="n38"/>
      <point x="363.5" y="60"/>
      <point x="218" y="185.5"/>
      <point x="218" y="375" type="curve" smooth="yes" name="n41"/>
      <point x="218" y="623.5"/>
      <point x="420.5" y="697.5"/>
      <point x="580" y="697.5" type="curve" smooth="yes"/>
      <point x="739.5" y="697.5"/>
      <point x="942" y="623.5"/>
      <point x="942" y="375" type="curve" smooth="yes" name="n47"/>
      <point x="942" y="185.5"/>
      <point x="796.5" y="60"/>
    </contour>
  </outline>
</glyph>
<glyph name="nine" format="2">
  <advance width="1160.0"/>
  <unicode hex="0039"/>
  <outline>
    <contour>
      <point x="916.75" y="1004.5" type="curve"/>
      <point x="916.75" y="846.0"/>
      <point x="787.25" y="676.0"/>
      <point x="559.25" y="676.0" type="curve" smooth="yes"/>
      <point x="359.25" y="676.0"/>
      <point x="226.75" y="803.0"/>
      <point x="226.75" y="1012.0" type="curve" smooth="yes"/>
      <point x="226.75" y="1212.5"/>
      <point x="371.25" y="1352.0"/>
      <point x="580.75" y="1352.0" type="curve" smooth="yes"/>
      <point x="775.25" y="1352.0"/>
      <point x="916.75" y="1210.0"/>
    </contour>
    <contour>
      <point x="928.75" y="990.0" type="line"/>
      <point x="924.25" y="832.0"/>
      <point x="855.75" y="737.0"/>
      <point x="747.75" y="584.5" type="curve"/>
      <point x="329.25" y="0.0" type="line"/>
      <point x="415.75" y="0.0" type="line" smooth="yes"/>
      <point x="436.75" y="0.0"/>
      <point x="454.75" y="8.0"/>
      <point x="464.75" y="22.5" type="curve" smooth="yes"/>
      <point x="835.75" y="567.5" type="line" smooth="yes"/>
      <point x="945.25" y="726.5"/>
      <point x="1008.75" y="841.0"/>
      <point x="1008.75" y="987.0" type="curve" smooth="yes"/>
      <point x="1008.75" y="1252.5"/>
      <point x="832.75" y="1431.0"/>
      <point x="581.75" y="1431.0" type="curve" smooth="yes"/>
      <point x="321.75" y="1431.0"/>
      <point x="131.25" y="1247.5"/>
      <point x="131.25" y="1006.0" type="curve" smooth="yes"/>
      <point x="131.25" y="761.0"/>
      <point x="301.25" y="602.0"/>
      <point x="532.75" y="602.0" type="curve" smooth="yes"/>
      <point x="751.25" y="602.0"/>
      <point x="946.25" y="755.5"/>
      <point x="946.25" y="990.0" type="curve"/>
    </contour>
  </outline>
</glyph>
<glyph name="less" format="2">
  <advance width="1160.0"/>
  <unicode hex="003C"/>
  <outline>
    <contour>
      <point x="174.25" y="691.5" type="line"/>
      <point x="174.25" y="660.5" type="line"/>
      <point x="242.75" y="662.0"/>
      <point x="299.25" y="673.75"/>
      <point x="344.25" y="696.5" type="curve" smooth="yes"/>
      <point x="897.5" y="977.25" type="line" smooth="yes"/>
      <point x="917.0" y="987.0"/>
      <point x="924.25" y="997.75"/>
      <point x="924.25" y="1012.5" type="curve" smooth="yes"/>
      <point x="924.25" y="1077.0" type="line"/>
    </contour>
    <contour>
      <point x="174.25" y="651.0" type="line"/>
      <point x="924.25" y="265.5" type="line"/>
      <point x="924.25" y="330.0" type="line"/>
      <point x="924.25" y="344.75"/>
      <point x="917.0" y="355.5"/>
      <point x="897.5" y="365.25" type="curve"/>
      <point x="344.25" y="646.0" type="line"/>
      <point x="299.25" y="669.5"/>
      <point x="242.75" y="680.5"/>
      <point x="174.25" y="682.0" type="curve"/>
    </contour>
  </outline>
</glyph>
<glyph name="equal" format="2">
  <advance width="1160"/>
  <unicode hex="003D"/>
  <outline>
    <contour>
      <point x="166.25" y="482.5" type="line" name="n00"/>
      <point x="993.75" y="482.5" type="line"/>
      <point x="993.75" y="555.5" type="line"/>
      <point x="166.25" y="555.5" type="line" name="n03"/>
    </contour>
    <contour>
      <point x="166.25" y="795.5" type="line" name="n04"/>
      <point x="993.75" y="795.5" type="line"/>
      <point x="993.75" y="868.5" type="line"/>
      <point x="166.25" y="868.5" type="line" name="n07"/>
    </contour>
  </outline>
</glyph>
<glyph name="greater" format="2">
  <advance width="1160"/>
  <unicode hex="003E"/>
  <outline>
    <contour>
      <point x="985.75" y="651" type="line"/>
      <point x="985.75" y="682" type="line"/>
      <point x="917.25" y="680.5"/>
      <point x="860.75" y="668.75"/>
      <point x="815.75" y="646" type="curve" smooth="yes"/>
      <point x="262.5" y="365.25" type="line" smooth="yes"/>
      <point x="243" y="355.5"/>
      <point x="235.75" y="344.75"/>
      <point x="235.75" y="330" type="curve" smooth="yes"/>
      <point x="235.75" y="265.5" type="line" name="n09"/>
    </contour>
    <contour>
      <point x="985.75" y="691.5" type="line"/>
      <point x="235.75" y="1077" type="line" name="n11"/>
      <point x="235.75" y="1012.5" type="line" smooth="yes"/>
      <point x="235.75" y="997.75"/>
      <point x="243" y="987"/>
      <point x="262.5" y="977.25" type="curve" smooth="yes"/>
      <point x="815.75" y="696.5" type="line" smooth="yes"/>
      <point x="860.75" y="673"/>
      <point x="917.25" y="662"/>
      <point x="985.75" y="660.5" type="curve"/>
    </contour>
  </outline>
</glyph>
<glyph name="question" format="2">
  <advance width="864.25"/>
  <unicode hex="003F"/>
  <outline>
    <contour>
      <point x="119.0" y="1252.5" type="line"/>
      <point x="124.0" y="1244.5"/>
      <point x="131.0" y="1240.0"/>
      <point x="141.0" y="1240.0" type="curve" smooth="yes"/>
      <point x="161.0" y="1240.0"/>
      <point x="239.0" y="1353.0"/>
      <point x="415.0" y="1353.0" type="curve" smooth="yes"/>
      <point x="552.0" y="1353.0"/>
      <point x="674.0" y="1267.0"/>
      <point x="674.0" y="1124.0" type="curve" smooth="yes"/>
      <point x="674.0" y="852.5"/>
      <point x="344.5" y="824.5"/>
      <point x="352.5" y="657.5" type="curve" smooth="yes"/>
      <point x="358.0" y="487.0" type="line"/>
      <point x="423.0" y="487.0" type="line"/>
      <point x="434.5" y="650.5" type="line"/>
      <point x="444.5" y="789.5"/>
      <point x="764.0" y="825.5"/>
      <point x="764.0" y="1128.5" type="curve" smooth="yes"/>
      <point x="764.0" y="1316.0"/>
      <point x="607.5" y="1431.0"/>
      <point x="422.0" y="1431.0" type="curve" smooth="yes"/>
      <point x="272.5" y="1431.0"/>
      <point x="167.0" y="1363.5"/>
      <point x="94.0" y="1291.5" type="curve"/>
    </contour>
    <component base="period" xOffset="155.0"/>
  </outline>
</glyph>
<glyph name="at" format="2">
  <advance width="1657.0"/>
  <unicode hex="0040"/>
  <guideline y="707.5"/>
  <guideline x="837.0"/>
  <outline>
    <contour>
      <point x="1179.25" y="188.0" type="curve" smooth="yes"/>
      <point x="1385.25" y="188.0"/>
      <point x="1551.25" y="388.0"/>
      <point x="1551.25" y="678.0" type="curve" smooth="yes"/>
      <point x="1551.25" y="1107.0"/>
      <point x="1225.75" y="1330.5"/>
      <point x="869.25" y="1330.5" type="curve" smooth="yes"/>
      <point x="456.75" y="1330.5"/>
      <point x="120.25" y="994.0"/>
      <point x="120.25" y="548.5" type="curve" smooth="yes"/>
      <point x="120.25" y="46.5"/>
      <point x="466.25" y="-237.5"/>
      <point x="904.75" y="-237.5" type="curve" smooth="yes"/>
      <point x="1122.25" y="-237.5"/>
      <point x="1302.25" y="-182.0"/>
      <point x="1449.75" y="-83.5" type="curve"/>
      <point x="1434.75" y="-47.25" type="line"/>
      <point x="1429.0" y="-33.0"/>
      <point x="1414.5" y="-28.0"/>
      <point x="1398.0" y="-38.5" type="curve"/>
      <point x="1265.5" y="-124.0"/>
      <point x="1101.25" y="-171.0"/>
      <point x="904.75" y="-171.0" type="curve" smooth="yes"/>
      <point x="514.75" y="-171.0"/>
      <point x="192.75" y="78.0"/>
      <point x="192.75" y="548.5" type="curve" smooth="yes"/>
      <point x="192.75" y="968.0"/>
      <point x="504.25" y="1265.5"/>
      <point x="869.25" y="1265.5" type="curve" smooth="yes"/>
      <point x="1201.75" y="1265.5"/>
      <point x="1479.75" y="1074.5"/>
      <point x="1479.75" y="678.0" type="curve" smooth="yes"/>
      <point x="1479.75" y="417.0"/>
      <point x="1343.75" y="251.0"/>
      <point x="1192.25" y="251.0" type="curve" smooth="yes"/>
      <point x="1100.25" y="251.0"/>
      <point x="1018.25" y="295.0"/>
      <point x="1082.25" y="540.5" type="curve" smooth="yes"/>
      <point x="1172.75" y="888.0" type="line"/>
      <point x="1123.75" y="911.0"/>
      <point x="1060.25" y="923.0"/>
      <point x="990.25" y="923.0" type="curve" smooth="yes"/>
      <point x="679.75" y="923.0"/>
      <point x="502.25" y="670.5"/>
      <point x="502.25" y="444.0" type="curve" smooth="yes"/>
      <point x="502.25" y="302.5"/>
      <point x="572.25" y="192.5"/>
      <point x="720.75" y="192.5" type="curve" smooth="yes"/>
      <point x="857.25" y="192.5"/>
      <point x="972.75" y="275.0"/>
      <point x="1049.75" y="473.0" type="curve"/>
      <point x="1004.25" y="438.5" type="line"/>
      <point x="983.25" y="280.5"/>
      <point x="1040.25" y="188.0"/>
    </contour>
    <contour>
      <point x="1093.25" y="871.0" type="line"/>
      <point x="1006.25" y="535.0" type="line" smooth="yes"/>
      <point x="948.75" y="313.5"/>
      <point x="836.25" y="257.5"/>
      <point x="739.25" y="257.5" type="curve" smooth="yes"/>
      <point x="632.75" y="257.5"/>
      <point x="579.75" y="338.5"/>
      <point x="579.75" y="446.0" type="curve" smooth="yes"/>
      <point x="579.75" y="645.0"/>
      <point x="736.75" y="859.5"/>
      <point x="977.25" y="859.5" type="curve" smooth="yes"/>
      <point x="1038.75" y="859.5"/>
      <point x="1076.25" y="850.5"/>
      <point x="1123.25" y="834.0" type="curve"/>
    </contour>
  </outline>
</glyph>
<glyph name="B" format="2">
  <advance width="1264"/>
  <unicode hex="0042"/>
  <anchor x="264" y="375.5" name="Bar"/>
  <anchor x="587.5" y="1503.25" name="Top"/>
  <anchor x="622.5" y="-70" name="bottom"/>
  <anchor x="587.5" y="1503.25" name="top"/>
  <outline>
    <contour>
      <point x="668.25" y="0" type="line" smooth="yes" name="n00"/>
      <point x="970.25" y="0"/>
      <point x="1145.25" y="146"/>
      <point x="1145.25" y="386.5" type="curve" smooth="yes" name="n03"/>
      <point x="1145.25" y="608"/>
      <point x="969.75" y="733.5"/>
      <point x="668.25" y="733.5" type="curve"/>
      <point x="661.75" y="709" type="line"/>
      <point x="928.25" y="709"/>
      <point x="1087.25" y="872.5"/>
      <point x="1087.25" y="1055" type="curve" smooth="yes" name="n10"/>
      <point x="1087.25" y="1283"/>
      <point x="938.75" y="1415"/>
      <point x="616.25" y="1415" type="curve" smooth="yes" name="n13"/>
      <point x="209.25" y="1415" type="line"/>
      <point x="209.25" y="0" type="line"/>
      <point x="311.75" y="0" type="line"/>
      <point x="311.75" y="1334" type="line" name="n17"/>
      <point x="616.25" y="1334" type="line" smooth="yes" name="n18"/>
      <point x="867.25" y="1334"/>
      <point x="986.25" y="1234"/>
      <point x="986.25" y="1044.5" type="curve" smooth="yes" name="n21"/>
      <point x="986.25" y="898"/>
      <point x="879.25" y="752.5"/>
      <point x="618.25" y="752.5" type="curve" smooth="yes"/>
      <point x="298.25" y="752.5" type="line" name="n25"/>
      <point x="298.25" y="678.5" type="line" name="n26"/>
      <point x="667.75" y="678.5" type="line" smooth="yes"/>
      <point x="905.25" y="678.5"/>
      <point x="1043.75" y="567"/>
      <point x="1043.75" y="388.5" type="curve" smooth="yes" name="n30"/>
      <point x="1043.75" y="194.5"/>
      <point x="914.25" y="81.5"/>
      <point x="666.75" y="81.5" type="curve" smooth="yes" name="n33"/>
      <point x="292.25" y="81.5" type="line"/>
      <point x="250.25" y="0" type="line"/>
    </contour>
  </outline>
</glyph>
<glyph name="D" format="2">
  <advance width="1520"/>
  <unicode hex="0044"/>
  <anchor x="690.75" y="1503.25" name="Top"/>
  <anchor x="689.75" y="-78.25" name="bottom"/>
  <anchor x="690.75" y="1503.25" name="top"/>
  <outline>
    <contour>
      <point x="1400.75" y="707.5" type="curve" smooth="yes" name="n00"/>
      <point x="1400.75" y="1143.5"/>
      <point x="1127.25" y="1415"/>
      <point x="725.75" y="1415" type="curve" smooth="yes" name="n03"/>
      <point x="209.25" y="1415" type="line" name="n04"/>
      <point x="209.25" y="0" type="line"/>
      <point x="725.75" y="0" type="line" smooth="yes" name="n06"/>
      <point x="1127.25" y="0"/>
      <point x="1400.75" y="271"/>
    </contour>
    <contour>
      <point x="1294.75" y="707.5" type="curve" smooth="yes" name="n09"/>
      <point x="1294.75" y="311"/>
      <point x="1066.25" y="83"/>
      <point x="725.75" y="83" type="curve" smooth="yes" name="n12"/>
      <point x="312.25" y="83" type="line"/>
      <point x="312.25" y="1332" type="line" name="n14"/>
      <point x="725.75" y="1332" type="line" smooth="yes" name="n15"/>
      <point x="1066.25" y="1332"/>
      <point x="1294.75" y="1103.5"/>
    </contour>
  </outline>
</glyph>
<glyph name="E" format="2">
  <advance width="1160.25"/>
  <unicode hex="0045"/>
  <anchor x="642.75" y="1503.25" name="Top"/>
  <anchor x="666.0" y="-70.0" name="bottom"/>
  <anchor x="-73.25" y="1120.0" name="onRight"/>
  <anchor x="605.75" y="707.0" name="Slash"/>
  <anchor x="642.75" y="1503.25" name="top"/>
  <outline>
    <contour>
      <point x="312.25" y="1415.0" type="line"/>
      <point x="209.25" y="1415.0" type="line"/>
      <point x="209.25" y="0.0" type="line"/>
      <point x="312.25" y="0.0" type="line"/>
    </contour>
    <contour>
      <point x="298.25" y="757.5" type="line"/>
      <point x="298.25" y="675.5" type="line"/>
      <point x="932.25" y="675.5" type="line"/>
      <point x="932.25" y="757.5" type="line"/>
    </contour>
    <contour>
      <point x="298.25" y="1415.0" type="line"/>
      <point x="298.25" y="1330.5" type="line"/>
      <point x="1057.25" y="1330.5" type="line"/>
      <point x="1057.25" y="1415.0" type="line"/>
    </contour>
    <contour>
      <point x="298.25" y="84.5" type="line"/>
      <point x="298.25" y="0.0" type="line"/>
      <point x="1057.25" y="0.0" type="line"/>
      <point x="1058.75" y="84.5" type="line"/>
    </contour>
  </outline>
</glyph>
<glyph name="F" format="2">
  <advance width="1129"/>
  <unicode hex="0046"/>
  <anchor x="634" y="1503.25" name="Top"/>
  <anchor x="537.25" y="-70" name="bottom"/>
  <anchor x="634" y="1503.25" name="top"/>
  <outline>
    <contour>
      <point x="312.25" y="1415" type="line" name="n00"/>
      <point x="209.25" y="1415" type="line"/>
      <point x="209.25" y="0" type="line" name="n02"/>
      <point x="312.25" y="0" type="line"/>
    </contour>
    <contour>
      <point x="298.25" y="735" type="line" name="n04"/>
      <point x="298.25" y="650.5" type="line" name="n05"/>
      <point x="957.25" y="650.5" type="line"/>
      <point x="957.25" y="735" type="line"/>
    </contour>
    <contour>
      <point x="298.25" y="1415" type="line" name="n08"/>
      <point x="298.25" y="1330.5" type="line" name="n09"/>
      <point x="1057.25" y="1330.5" type="line"/>
      <point x="1057.25" y="1415" type="line"/>
    </contour>
  </outline>
</glyph>
<glyph name="G" format="2">
  <advance width="1471"/>
  <unicode hex="0047"/>
  <anchor x="834.5" y="1503.25" name="Top"/>
  <anchor x="833.5" y="-70" name="bottom"/>
  <anchor x="834.5" y="1503.25" name="top"/>
  <outline>
    <contour>
      <point x="1339.5" y="138.5" type="curve" name="n00"/>
      <point x="1339.5" y="642" type="line"/>
      <point x="949" y="642" type="line" name="n02"/>
      <point x="949" y="586" type="line" smooth="yes"/>
      <point x="949" y="574"/>
      <point x="960" y="563"/>
      <point x="975" y="563" type="curve" smooth="yes" name="n06"/>
      <point x="1246.5" y="563" type="line"/>
      <point x="1246.5" y="126" type="line" name="n08"/>
      <point x="1277" y="200.5" type="line"/>
      <point x="1141.5" y="117"/>
      <point x="1022.25" y="67"/>
      <point x="840.75" y="67" type="curve" smooth="yes" name="n12"/>
      <point x="456.25" y="67"/>
      <point x="221.5" y="309.5"/>
      <point x="221.5" y="707.5" type="curve" smooth="yes" name="n15"/>
      <point x="221.5" y="1101"/>
      <point x="456.5" y="1343"/>
      <point x="824" y="1343" type="curve" smooth="yes" name="n18"/>
      <point x="1101" y="1343"/>
      <point x="1202.5" y="1224"/>
      <point x="1242.5" y="1207" type="curve"/>
      <point x="1261" y="1198"/>
      <point x="1275.5" y="1203"/>
      <point x="1284.5" y="1218" type="curve" smooth="yes"/>
      <point x="1312" y="1261.5" type="line"/>
      <point x="1188" y="1372"/>
      <point x="1044" y="1431"/>
      <point x="827" y="1431" type="curve" smooth="yes" name="n28"/>
      <point x="391.5" y="1431"/>
      <point x="117" y="1146"/>
      <point x="117" y="707.5" type="curve" smooth="yes" name="n31"/>
      <point x="117" y="269.5"/>
      <point x="396" y="-16"/>
      <point x="843.25" y="-16" type="curve" smooth="yes" name="n34"/>
      <point x="1042" y="-16"/>
      <point x="1199" y="40.5"/>
    </contour>
  </outline>
</glyph>
<glyph name="I" format="2">
  <advance width="521.5"/>
  <unicode hex="0049"/>
  <anchor x="263.25" y="1503.25" name="Top"/>
  <anchor x="-85.75" y="1120.0" name="onRight"/>
  <anchor x="263.25" y="1503.25" name="top"/>
  <anchor x="260.75" y="-70.0" name="bottom"/>
  <outline>
    <contour>
      <point x="312.25" y="1415.0" type="line"/>
      <point x="209.25" y="1415.0" type="line"/>
      <point x="209.25" y="0.0" type="line"/>
      <point x="312.25" y="0.0" type="line"/>
    </contour>
  </outline>
</glyph>
<glyph name="J" format="2">
  <advance width="829"/>
  <unicode hex="004A"/>
  <anchor x="557.75" y="707" name="Bar"/>
  <anchor x="583" y="1503.25" name="Top"/>
  <anchor x="282" y="-70" name="bottom"/>
  <anchor x="583" y="1503.25" name="top"/>
  <outline>
    <contour>
      <point x="634.5" y="1415" type="line" name="n00"/>
      <point x="532" y="1415" type="line" name="n01"/>
      <point x="532" y="470" type="line" smooth="yes"/>
      <point x="532" y="198"/>
      <point x="407" y="69.5"/>
      <point x="203" y="69.5" type="curve" smooth="yes" name="n05"/>
      <point x="122.5" y="69.5"/>
      <point x="84" y="91.5"/>
      <point x="59" y="91.5" type="curve" smooth="yes"/>
      <point x="40.5" y="91.5"/>
      <point x="34.5" y="81"/>
      <point x="32" y="69" type="curve"/>
      <point x="30.5" y="50.5"/>
      <point x="27.5" y="31.5"/>
      <point x="26" y="13" type="curve"/>
      <point x="91" y="-6.5"/>
      <point x="152.5" y="-16"/>
      <point x="212" y="-16" type="curve" smooth="yes" name="n17"/>
      <point x="473" y="-16"/>
      <point x="634.5" y="155"/>
      <point x="634.5" y="472" type="curve" smooth="yes"/>
    </contour>
  </outline>
</glyph>
<glyph name="K" format="2">
  <advance width="1270"/>
  <unicode hex="004B"/>
  <anchor x="680" y="1503.25" name="Top"/>
  <anchor x="626.25" y="-70" name="bottom"/>
  <anchor x="680" y="1503.25" name="top"/>
  <outline>
    <contour>
      <point x="311.75" y="1415" type="line" name="n00"/>
      <point x="209.25" y="1415" type="line"/>
      <point x="209.25" y="0" type="line" name="n02"/>
      <point x="311.75" y="0" type="line"/>
    </contour>
    <contour>
      <point x="286.75" y="682" type="line"/>
      <point x="402.75" y="682" type="line" smooth="yes"/>
      <point x="466.25" y="682"/>
      <point x="482.25" y="669.5"/>
      <point x="510.75" y="639" type="curve"/>
      <point x="1109.25" y="26.5" type="line"/>
      <point x="1123.25" y="9"/>
      <point x="1135.25" y="0"/>
      <point x="1169.25" y="0" type="curve" smooth="yes"/>
      <point x="1252.25" y="0" type="line"/>
      <point x="600.75" y="680.5" type="line"/>
      <point x="560.25" y="730.5"/>
      <point x="522.75" y="740.5"/>
      <point x="439.75" y="740.5" type="curve"/>
      <point x="428.25" y="720" type="line"/>
      <point x="525.75" y="721.5"/>
      <point x="547.25" y="729.5"/>
      <point x="595.25" y="779.5" type="curve" smooth="yes"/>
      <point x="1213.25" y="1415" type="line"/>
      <point x="1130.75" y="1415" type="line" smooth="yes"/>
      <point x="1103.75" y="1415"/>
      <point x="1087.25" y="1407.5"/>
      <point x="1067.25" y="1385.5" type="curve"/>
      <point x="496.25" y="799" type="line"/>
      <point x="468.25" y="768.5"/>
      <point x="445.75" y="761.5"/>
      <point x="395.75" y="761.5" type="curve" smooth="yes"/>
      <point x="287.75" y="761.5" type="line" name="n31"/>
    </contour>
  </outline>
</glyph>
<glyph name="L" format="2">
  <advance width="1013"/>
  <unicode hex="004C"/>
  <anchor x="262.75" y="707" name="Bar"/>
  <anchor x="266.5" y="1503.25" name="Top"/>
  <anchor x="573.75" y="-70" name="bottom"/>
  <anchor x="266.5" y="1503.25" name="top"/>
  <outline>
    <contour>
      <point x="311.75" y="1415" type="line" name="n00"/>
      <point x="209.25" y="1415" type="line"/>
      <point x="209.25" y="0" type="line"/>
      <point x="311.75" y="0" type="line" name="n03"/>
    </contour>
    <contour>
      <point x="298.25" y="87" type="line" name="n04"/>
      <point x="298.25" y="0" type="line" name="n05"/>
      <point x="982.25" y="0" type="line"/>
      <point x="982.25" y="87" type="line"/>
    </contour>
  </outline>
</glyph>
<glyph name="N" format="2">
  <advance width="1510.5"/>
  <unicode hex="004E"/>
  <anchor x="777.5" y="1501.75" name="Top"/>
  <anchor x="777.5" y="1501.75" name="top"/>
  <anchor x="755.25" y="-70.0" name="bottom"/>
  <outline>
    <contour>
      <point x="1237.75" y="140.0" type="line"/>
      <point x="298.25" y="1395.5" type="line"/>
      <point x="286.25" y="1411.5"/>
      <point x="278.75" y="1415.0"/>
      <point x="259.75" y="1415.0" type="curve" smooth="yes"/>
      <point x="209.25" y="1415.0" type="line"/>
      <point x="209.25" y="0.0" type="line"/>
      <point x="298.75" y="0.0" type="line"/>
      <point x="298.75" y="1192.0" type="line" smooth="yes"/>
      <point x="298.75" y="1227.0"/>
      <point x="294.75" y="1273.5"/>
      <point x="287.75" y="1308.5" type="curve"/>
      <point x="275.75" y="1275.0" type="line"/>
      <point x="1215.0" y="19.75" type="line" smooth="yes"/>
      <point x="1225.75" y="6.25"/>
      <point x="1236.0" y="0.0"/>
      <point x="1252.75" y="0.0" type="curve" smooth="yes"/>
      <point x="1301.25" y="0.0" type="line"/>
      <point x="1301.25" y="1415.0" type="line"/>
      <point x="1211.75" y="1415.0" type="line"/>
      <point x="1211.75" y="227.0" type="line" smooth="yes"/>
      <point x="1211.75" y="191.0"/>
      <point x="1216.75" y="143.5"/>
      <point x="1223.75" y="107.5" type="curve"/>
    </contour>
  </outline>
</glyph>
<glyph name="P" format="2">
  <advance width="1157"/>
  <unicode hex="0050"/>
  <anchor x="262.75" y="983.25" name="Bar"/>
  <anchor x="567.75" y="1503.25" name="Top"/>
  <anchor x="260.5" y="-70" name="bottom"/>
  <anchor x="774" y="648" name="tick"/>
  <anchor x="567.75" y="1503.25" name="top"/>
  <outline>
    <contour>
      <point x="268.75" y="570.5" type="line"/>
      <point x="574.75" y="570.5" type="line" smooth="yes" name="n01"/>
      <point x="885.25" y="570.5"/>
      <point x="1076.75" y="747.5"/>
      <point x="1076.75" y="995" type="curve" smooth="yes" name="n04"/>
      <point x="1076.75" y="1265"/>
      <point x="906.75" y="1415"/>
      <point x="574.75" y="1415" type="curve" smooth="yes" name="n07"/>
      <point x="209.25" y="1415" type="line"/>
      <point x="209.25" y="0" type="line" name="n09"/>
      <point x="311.75" y="0" type="line" name="n10"/>
      <point x="311.75" y="1334" type="line"/>
      <point x="574.75" y="1334" type="line" smooth="yes" name="n12"/>
      <point x="840.75" y="1334"/>
      <point x="974.25" y="1213"/>
      <point x="974.25" y="995" type="curve" smooth="yes" name="n15"/>
      <point x="974.25" y="799"/>
      <point x="824.25" y="652"/>
      <point x="574.75" y="652" type="curve" smooth="yes" name="n18"/>
      <point x="277.25" y="652" type="line"/>
    </contour>
  </outline>
</glyph>
<glyph name="Q" format="2">
  <advance width="1584"/>
  <unicode hex="0051"/>
  <anchor x="795.75" y="707" name="Slash"/>
  <anchor x="793.25" y="1503.25" name="Top"/>
  <anchor x="792.25" y="-70" name="bottom"/>
  <anchor x="-56" y="1120" name="onRight"/>
  <anchor x="793.25" y="1503.25" name="top"/>
  <outline>
    <component base="O" xOffset="0.25"/>
    <contour>
      <point x="1135.75" y="103.5" type="line" name="n00"/>
      <point x="1021.75" y="93" type="line"/>
      <point x="1374.25" y="-287" type="line" smooth="yes"/>
      <point x="1390.75" y="-304.5"/>
      <point x="1410.75" y="-312" name="n04"/>
      <point x="1438.25" y="-312" type="curve" smooth="yes"/>
      <point x="1524.25" y="-312" type="line"/>
    </contour>
  </outline>
</glyph>
<glyph name="R" format="2">
  <advance width="1214.5"/>
  <unicode hex="0052"/>
  <anchor x="571.25" y="1503.25" name="Top"/>
  <anchor x="571.25" y="1503.25" name="top"/>
  <anchor x="669.0" y="-70.0" name="bottom"/>
  <outline>
    <contour>
      <point x="496.75" y="640.0" type="line" smooth="yes"/>
      <point x="551.75" y="640.0"/>
      <point x="571.25" y="630.0"/>
      <point x="593.25" y="600.0" type="curve"/>
      <point x="1046.75" y="25.5" type="line" smooth="yes"/>
      <point x="1060.25" y="6.0"/>
      <point x="1075.25" y="0.0"/>
      <point x="1096.75" y="0.0" type="curve" smooth="yes"/>
      <point x="1185.25" y="0.0" type="line"/>
      <point x="698.25" y="612.5" type="line"/>
      <point x="657.25" y="667.5"/>
      <point x="604.75" y="679.0"/>
      <point x="513.75" y="679.0" type="curve"/>
      <point x="528.75" y="647.0" type="line"/>
      <point x="564.75" y="647.0" type="line" smooth="yes"/>
      <point x="863.25" y="647.0"/>
      <point x="1057.75" y="803.5"/>
      <point x="1057.75" y="1043.5" type="curve" smooth="yes"/>
      <point x="1057.75" y="1285.5"/>
      <point x="895.25" y="1415.0"/>
      <point x="570.75" y="1415.0" type="curve" smooth="yes"/>
      <point x="209.25" y="1415.0" type="line"/>
      <point x="209.25" y="0.0" type="line"/>
      <point x="311.75" y="0.0" type="line"/>
      <point x="311.75" y="1334.0" type="line"/>
      <point x="570.75" y="1334.0" type="line" smooth="yes"/>
      <point x="822.75" y="1334.0"/>
      <point x="957.25" y="1238.5"/>
      <point x="957.25" y="1037.0" type="curve" smooth="yes"/>
      <point x="957.25" y="841.0"/>
      <point x="808.75" y="716.0"/>
      <point x="557.25" y="716.0" type="curve" smooth="yes"/>
      <point x="275.75" y="716.0" type="line"/>
      <point x="264.75" y="640.0" type="line"/>
    </contour>
  </outline>
</glyph>
<glyph name="S" format="2">
  <advance width="1071"/>
  <unicode hex="0053"/>
  <anchor x="582.25" y="1503.25" name="Top"/>
  <anchor x="507.25" y="-70" name="bottom"/>
  <anchor x="582.25" y="1503.25" name="top"/>
  <outline>
    <contour>
      <point x="920.5" y="1288.5" type="line"/>
      <point x="825.5" y="1384.5"/>
      <point x="709.5" y="1431"/>
      <point x="563" y="1431" type="curve" smooth="yes" name="n03"/>
      <point x="301.5" y="1431"/>
      <point x="154.5" y="1255.5"/>
      <point x="154.5" y="1066.5" type="curve" smooth="yes" name="n06"/>
      <point x="154.5" y="583"/>
      <point x="864" y="796"/>
      <point x="864" y="398" type="curve" smooth="yes" name="n09"/>
      <point x="864" y="212.5"/>
      <point x="733.5" y="69"/>
      <point x="509.5" y="69" type="curve" smooth="yes" name="n12"/>
      <point x="266" y="69"/>
      <point x="183" y="228"/>
      <point x="145" y="228" type="curve" smooth="yes"/>
      <point x="133" y="228"/>
      <point x="124.5" y="222"/>
      <point x="117.5" y="213" type="curve"/>
      <point x="89.5" y="168.5" type="line"/>
      <point x="190.5" y="54.5"/>
      <point x="320.5" y="-16"/>
      <point x="507" y="-16" type="curve" smooth="yes" name="n22"/>
      <point x="794" y="-16"/>
      <point x="960" y="174.5"/>
      <point x="960" y="413" type="curve" smooth="yes" name="n25"/>
      <point x="960" y="874.5"/>
      <point x="250" y="689"/>
      <point x="250" y="1071" type="curve" smooth="yes" name="n28"/>
      <point x="250" y="1219"/>
      <point x="360" y="1346.5"/>
      <point x="564" y="1346.5" type="curve" smooth="yes" name="n31"/>
      <point x="769" y="1346.5"/>
      <point x="835.5" y="1226"/>
      <point x="870.5" y="1226" type="curve" smooth="yes"/>
      <point x="882" y="1226"/>
      <point x="890" y="1231.5"/>
      <point x="896.5" y="1243" type="curve"/>
    </contour>
  </outline>
</glyph>
<glyph name="U" format="2">
  <advance width="1454.5"/>
  <unicode hex="0055"/>
  <anchor x="727.25" y="1503.25" name="Top"/>
  <anchor x="727.25" y="1503.25" name="top"/>
  <anchor x="727.25" y="-70.0" name="bottom"/>
  <outline>
    <contour>
      <point x="727.25" y="73.0" type="curve" smooth="yes"/>
      <point x="455.25" y="73.0"/>
      <point x="293.75" y="276.5"/>
      <point x="293.75" y="541.0" type="curve" smooth="yes"/>
      <point x="293.75" y="1415.0" type="line"/>
      <point x="191.25" y="1415.0" type="line"/>
      <point x="191.25" y="539.5" type="line" smooth="yes"/>
      <point x="191.25" y="227.5"/>
      <point x="396.25" y="-17.5"/>
      <point x="727.25" y="-17.5" type="curve" smooth="yes"/>
      <point x="1058.25" y="-17.5"/>
      <point x="1263.25" y="227.5"/>
      <point x="1263.25" y="539.5" type="curve" smooth="yes"/>
      <point x="1263.25" y="1415.0" type="line"/>
      <point x="1160.75" y="1415.0" type="line"/>
      <point x="1160.75" y="539.5" type="line" smooth="yes"/>
      <point x="1160.75" y="275.0"/>
      <point x="999.25" y="73.0"/>
    </contour>
  </outline>
</glyph>
<glyph name="V" format="2">
  <advance width="1311.0"/>
  <unicode hex="0056"/>
  <anchor x="657.0" y="1503.25" name="Top"/>
  <anchor x="657.0" y="1503.25" name="top"/>
  <anchor x="655.5" y="-70.0" name="bottom"/>
  <outline>
    <contour>
      <point x="1285.25" y="1415.0" type="line"/>
      <point x="1204.75" y="1415.0" type="line" smooth="yes"/>
      <point x="1186.25" y="1415.0"/>
      <point x="1171.75" y="1402.5"/>
      <point x="1166.75" y="1388.5" type="curve"/>
      <point x="685.75" y="213.0" type="line" smooth="yes"/>
      <point x="662.25" y="153.0"/>
      <point x="644.75" y="72.5"/>
      <point x="638.75" y="0.0" type="curve"/>
      <point x="701.25" y="0.0" type="line"/>
    </contour>
    <contour>
      <point x="609.75" y="0.0" type="line"/>
      <point x="674.25" y="0.0" type="line"/>
      <point x="671.75" y="72.5"/>
      <point x="649.25" y="153.0"/>
      <point x="625.75" y="213.0" type="curve" smooth="yes"/>
      <point x="144.25" y="1388.5" type="line"/>
      <point x="138.25" y="1404.0"/>
      <point x="126.25" y="1415.0"/>
      <point x="107.25" y="1415.0" type="curve" smooth="yes"/>
      <point x="25.75" y="1415.0" type="line"/>
    </contour>
  </outline>
</glyph>
<glyph name="W" format="2">
  <advance width="2034"/>
  <unicode hex="0057"/>
  <anchor x="1016" y="1503.25" name="Top"/>
  <anchor x="1017" y="-70" name="bottom"/>
  <anchor x="1016" y="1503.25" name="top"/>
  <outline>
    <contour>
      <point x="1006.5" y="1415" type="line" smooth="yes" name="n00"/>
      <point x="988" y="1415"/>
      <point x="973" y="1402.5"/>
      <point x="968.5" y="1388.5" type="curve" smooth="yes"/>
      <point x="568.25" y="224.75" type="line" smooth="yes"/>
      <point x="547.75" y="164.25"/>
      <point x="534.5" y="72.5"/>
      <point x="528.5" y="0" type="curve" name="n07"/>
      <point x="584.5" y="0" type="line"/>
      <point x="1003.5" y="1228.5" type="line" smooth="yes"/>
      <point x="1018.5" y="1272.25"/>
      <point x="1030.25" y="1340"/>
      <point x="1032.25" y="1382" type="curve"/>
      <point x="1002.75" y="1382" type="line"/>
      <point x="1004.75" y="1340"/>
      <point x="1016.5" y="1273"/>
      <point x="1031.5" y="1228.5" type="curve" smooth="yes"/>
      <point x="1449.5" y="0" type="line"/>
      <point x="1512.5" y="0" type="line"/>
      <point x="1506" y="72.5"/>
      <point x="1492.25" y="164.25"/>
      <point x="1471.25" y="224.75" type="curve" smooth="yes"/>
      <point x="1071.5" y="1388.5" type="line"/>
      <point x="1065.5" y="1404"/>
      <point x="1053.5" y="1415"/>
      <point x="1034.5" y="1415" type="curve" smooth="yes"/>
    </contour>
    <contour>
      <point x="493" y="0" type="line"/>
      <point x="564.5" y="0" type="line"/>
      <point x="558" y="72.5"/>
      <point x="542.25" y="163.25"/>
      <point x="525.75" y="224.75" type="curve"/>
      <point x="169" y="1388.5" type="line" smooth="yes"/>
      <point x="164.5" y="1404.5"/>
      <point x="151" y="1415"/>
      <point x="132" y="1415" type="curve" smooth="yes"/>
      <point x="47.5" y="1415" type="line"/>
    </contour>
    <contour>
      <point x="1986.5" y="1415" type="line"/>
      <point x="1908" y="1415" type="line" smooth="yes"/>
      <point x="1889.5" y="1415"/>
      <point x="1874" y="1403"/>
      <point x="1870" y="1388.5" type="curve"/>
      <point x="1513.25" y="224.75" type="line"/>
      <point x="1496.75" y="163.75"/>
      <point x="1482" y="72.5"/>
      <point x="1476" y="0" type="curve"/>
      <point x="1541" y="0" type="line"/>
    </contour>
  </outline>
  <guideline angle="0" x="0" y="83"/>
</glyph>
<glyph name="X" format="2">
  <advance width="1245.75"/>
  <unicode hex="0058"/>
  <anchor x="621.75" y="1503.25" name="Top"/>
  <anchor x="621.75" y="1503.25" name="top"/>
  <anchor x="622.5" y="-70.0" name="bottom"/>
  <outline>
    <contour>
      <point x="560.75" y="712.5" type="line"/>
      <point x="669.75" y="712.5" type="line"/>
      <point x="196.25" y="1395.0" type="line"/>
      <point x="189.25" y="1405.0"/>
      <point x="182.25" y="1415.0"/>
      <point x="163.75" y="1415.0" type="curve" smooth="yes"/>
      <point x="62.75" y="1415.0" type="line"/>
    </contour>
    <contour>
      <point x="1183.75" y="1415.0" type="line"/>
      <point x="1086.25" y="1415.0" type="line" smooth="yes"/>
      <point x="1072.75" y="1415.0"/>
      <point x="1063.25" y="1405.5"/>
      <point x="1055.75" y="1393.5" type="curve"/>
      <point x="641.25" y="805.5" type="line"/>
      <point x="622.25" y="774.5"/>
      <point x="618.25" y="748.5"/>
      <point x="617.75" y="712.5" type="curve"/>
      <point x="681.75" y="712.5" type="line"/>
    </contour>
    <contour>
      <point x="685.75" y="744.5" type="line"/>
      <point x="575.75" y="744.5" type="line"/>
      <point x="1068.25" y="24.5" type="line"/>
      <point x="1075.25" y="14.0"/>
      <point x="1084.75" y="0.0"/>
      <point x="1103.25" y="0.0" type="curve" smooth="yes"/>
      <point x="1204.25" y="0.0" type="line"/>
    </contour>
    <contour>
      <point x="40.25" y="0.0" type="line"/>
      <point x="135.75" y="0.0" type="line" smooth="yes"/>
      <point x="151.75" y="0.0"/>
      <point x="160.75" y="13.0"/>
      <point x="169.75" y="24.5" type="curve"/>
      <point x="608.25" y="648.5" type="line"/>
      <point x="625.75" y="674.5"/>
      <point x="628.75" y="707.0"/>
      <point x="630.75" y="744.5" type="curve"/>
      <point x="564.75" y="744.5" type="line"/>
    </contour>
  </outline>
</glyph>
<glyph name="Y" format="2">
  <advance width="1190.0"/>
  <unicode hex="0059"/>
  <guideline y="662.0"/>
  <anchor x="595.75" y="1503.25" name="Top"/>
  <anchor x="-177.0" y="1120.0" name="onRight"/>
  <anchor x="595.75" y="1503.25" name="top"/>
  <anchor x="595.0" y="-70.0" name="bottom"/>
  <outline>
    <contour>
      <point x="1169.75" y="1415.0" type="line"/>
      <point x="1079.75" y="1415.0" type="line" smooth="yes"/>
      <point x="1061.25" y="1415.0"/>
      <point x="1049.25" y="1403.5"/>
      <point x="1041.75" y="1390.0" type="curve" smooth="yes"/>
      <point x="637.5" y="740.0" type="line" smooth="yes"/>
      <point x="606.25" y="682.0"/>
      <point x="584.25" y="636.5"/>
      <point x="578.25" y="575.0" type="curve"/>
      <point x="640.75" y="575.0" type="line"/>
    </contour>
    <contour>
      <point x="549.25" y="575.0" type="line"/>
      <point x="613.75" y="575.0" type="line"/>
      <point x="608.25" y="637.0"/>
      <point x="585.5" y="681.5"/>
      <point x="553.0" y="740.0" type="curve" smooth="yes"/>
      <point x="148.25" y="1390.0" type="line" smooth="yes"/>
      <point x="139.75" y="1405.5"/>
      <point x="128.75" y="1415.0"/>
      <point x="109.75" y="1415.0" type="curve" smooth="yes"/>
      <point x="20.25" y="1415.0" type="line"/>
    </contour>
    <contour>
      <point x="646.25" y="608.5" type="line"/>
      <point x="543.75" y="608.5" type="line"/>
      <point x="543.75" y="0.0" type="line"/>
      <point x="646.25" y="0.0" type="line"/>
    </contour>
  </outline>
</glyph>
<glyph name="Z" format="2">
  <advance width="1196"/>
  <unicode hex="005A"/>
  <anchor x="611.75" y="1503.25" name="Top"/>
  <anchor x="618" y="-70" name="bottom"/>
  <anchor x="611.75" y="1503.25" name="top"/>
  <outline>
    <contour>
      <point x="1103.75" y="1339.5" type="line" smooth="yes"/>
      <point x="1113.25" y="1353"/>
      <point x="1117.75" y="1366.5"/>
      <point x="1117.75" y="1380" type="curve" smooth="yes"/>
      <point x="1117.75" y="1415" type="line"/>
      <point x="1042.25" y="1415" type="line"/>
      <point x="81.25" y="73" type="line" smooth="yes"/>
      <point x="73.75" y="62"/>
      <point x="69.25" y="51"/>
      <point x="69.25" y="37" type="curve" smooth="yes"/>
      <point x="69.25" y="0" type="line"/>
      <point x="144.75" y="0" type="line"/>
    </contour>
    <contour>
      <point x="95.25" y="1415" type="line" name="n12"/>
      <point x="95.25" y="1330.5" type="line" name="n13"/>
      <point x="1061.25" y="1330.5" type="line"/>
      <point x="1117.75" y="1415" type="line"/>
    </contour>
    <contour>
      <point x="125.25" y="84.5" type="line"/>
      <point x="69.25" y="0" type="line"/>
      <point x="1110.75" y="0" type="line" name="n18"/>
      <point x="1110.75" y="84.5" type="line" name="n19"/>
    </contour>
  </outline>
</glyph>
<glyph name="bracketleft" format="2">
  <advance width="594"/>
  <unicode hex="005B"/>
  <outline>
    <contour>
      <point x="520" y="1516.5" type="line"/>
      <point x="202.5" y="1516.5" type="line" name="n01"/>
      <point x="202.5" y="1452.5" type="line" name="n02"/>
      <point x="489.5" y="1452.5" type="line" smooth="yes"/>
      <point x="508.5" y="1452.5"/>
      <point x="520" y="1464.5"/>
      <point x="520" y="1481" type="curve" smooth="yes"/>
    </contour>
    <contour>
      <point x="520" y="-263.5" type="line"/>
      <point x="520" y="-228" type="line" smooth="yes"/>
      <point x="520" y="-211.5"/>
      <point x="508.5" y="-199.5"/>
      <point x="489.5" y="-199.5" type="curve" smooth="yes"/>
      <point x="202.5" y="-199.5" type="line" name="n12"/>
      <point x="202.5" y="-263.5" type="line" name="n13"/>
    </contour>
    <contour>
      <point x="283.5" y="1516.5" type="line" name="n14"/>
      <point x="202.5" y="1516.5" type="line"/>
      <point x="202.5" y="-263.5" type="line"/>
      <point x="283.5" y="-263.5" type="line"/>
    </contour>
  </outline>
</glyph>
<glyph name="backslash" format="2">
  <advance width="870"/>
  <unicode hex="005C"/>
  <outline>
    <contour>
      <point x="697" y="-45.5" type="line"/>
      <point x="707" y="-72"/>
      <point x="732" y="-83.5" name="n02"/>
      <point x="754" y="-83.5" type="curve" smooth="yes"/>
      <point x="793" y="-83.5" type="line"/>
      <point x="171" y="1418.5" type="line" smooth="yes"/>
      <point x="161.5" y="1442"/>
      <point x="142.5" y="1455" name="n07"/>
      <point x="117" y="1455" type="curve" smooth="yes"/>
      <point x="76.5" y="1455" type="line"/>
    </contour>
  </outline>
</glyph>
<glyph name="bracketright" format="2">
  <advance width="593.75"/>
  <unicode hex="005D"/>
  <outline>
    <contour>
      <point x="73.75" y="1481.0" type="line"/>
      <point x="73.75" y="1464.5"/>
      <point x="85.25" y="1452.5"/>
      <point x="104.25" y="1452.5" type="curve" smooth="yes"/>
      <point x="391.25" y="1452.5" type="line"/>
      <point x="391.25" y="1516.5" type="line"/>
      <point x="73.75" y="1516.5" type="line"/>
    </contour>
    <contour>
      <point x="391.25" y="-263.5" type="line"/>
      <point x="391.25" y="-199.5" type="line"/>
      <point x="104.25" y="-199.5" type="line" smooth="yes"/>
      <point x="85.25" y="-199.5"/>
      <point x="73.75" y="-211.5"/>
      <point x="73.75" y="-228.0" type="curve" smooth="yes"/>
      <point x="73.75" y="-263.5" type="line"/>
    </contour>
    <contour>
      <point x="310.25" y="-263.5" type="line"/>
      <point x="391.25" y="-263.5" type="line"/>
      <point x="391.25" y="1516.5" type="line"/>
      <point x="310.25" y="1516.5" type="line"/>
    </contour>
  </outline>
</glyph>
<glyph name="asciicircum" format="2">
  <advance width="1160"/>
  <unicode hex="005E"/>
  <outline>
    <contour>
      <point x="173" y="715.5" type="line" name="n00"/>
      <point x="243.5" y="715.5" type="line" smooth="yes"/>
      <point x="261" y="715.5"/>
      <point x="272.75" y="726.75"/>
      <point x="278" y="738.5" type="curve"/>
      <point x="553" y="1259" type="line"/>
      <point x="577.75" y="1312"/>
      <point x="591.5" y="1354"/>
      <point x="593.5" y="1415" type="curve" name="n08"/>
      <point x="549" y="1415" type="line"/>
    </contour>
    <contour>
      <point x="608.5" y="1415" type="line"/>
      <point x="566" y="1415" type="line"/>
      <point x="567.5" y="1354"/>
      <point x="581" y="1312.25"/>
      <point x="607.5" y="1259" type="curve"/>
      <point x="886" y="738.5" type="line"/>
      <point x="892.5" y="725.25"/>
      <point x="904.5" y="715.5"/>
      <point x="919.5" y="715.5" type="curve" smooth="yes"/>
      <point x="987" y="715.5" type="line"/>
    </contour>
  </outline>
</glyph>
<glyph name="underscore" format="2">
  <advance width="901"/>
  <unicode hex="005F"/>
  <outline>
    <contour>
      <point x="56.5" y="-205.5" type="line" name="n00"/>
      <point x="56.5" y="-272.5" type="line" name="n01"/>
      <point x="844.5" y="-272.5" type="line"/>
      <point x="844.5" y="-205.5" type="line"/>
    </contour>
  </outline>
</glyph>
<glyph name="a" format="2">
  <advance width="968"/>
  <unicode hex="0061"/>
  <anchor x="493" y="-70" name="bottom"/>
  <anchor x="814.5" y="70.5" name="hook"/>
  <anchor x="475.75" y="1120" name="top"/>
  <outline>
    <contour>
      <point x="814.5" y="648" type="line" smooth="yes"/>
      <point x="814.5" y="869.5"/>
      <point x="708.5" y="1012"/>
      <point x="495.5" y="1012" type="curve" smooth="yes" name="n03"/>
      <point x="350" y="1012"/>
      <point x="239" y="958"/>
      <point x="136" y="854" type="curve"/>
      <point x="153" y="825.5" type="line"/>
      <point x="160.5" y="815"/>
      <point x="169.5" y="807"/>
      <point x="183" y="807" type="curve" smooth="yes"/>
      <point x="223.5" y="807"/>
      <point x="293" y="935"/>
      <point x="485.5" y="935" type="curve" smooth="yes" name="n13"/>
      <point x="640.5" y="935"/>
      <point x="721" y="831.5"/>
      <point x="721" y="648" type="curve" smooth="yes"/>
      <point x="721" y="630.75" type="line"/>
      <point x="814.5" y="630.75" type="line"/>
    </contour>
    <contour>
      <point x="814.5" y="0" type="line" name="n19"/>
      <point x="814.5" y="641.5" type="line"/>
      <point x="721" y="641.5" type="line"/>
      <point x="721" y="189.5" type="line"/>
      <point x="739.5" y="28" type="line"/>
      <point x="744.5" y="7.5"/>
      <point x="755.5" y="0"/>
      <point x="776" y="0" type="curve" smooth="yes"/>
    </contour>
    <contour>
      <point x="748.5" y="179" type="curve"/>
      <point x="748.5" y="179"/>
      <point x="732" y="233"/>
      <point x="732" y="233" type="curve"/>
      <point x="637.5" y="130.5"/>
      <point x="538.5" y="52.5"/>
      <point x="376.5" y="52.5" type="curve" smooth="yes" name="n33"/>
      <point x="272.5" y="52.5"/>
      <point x="177" y="111"/>
      <point x="177" y="244.5" type="curve" smooth="yes" name="n36"/>
      <point x="177" y="388"/>
      <point x="347.5" y="471"/>
      <point x="736.5" y="481.5" type="curve" name="n39"/>
      <point x="726.5" y="543.5" type="line" name="n40"/>
      <point x="272.5" y="533.5"/>
      <point x="85" y="411"/>
      <point x="85" y="240.5" type="curve" smooth="yes" name="n43"/>
      <point x="85" y="60.5"/>
      <point x="216" y="-16"/>
      <point x="352" y="-16" type="curve" smooth="yes" name="n46"/>
      <point x="528.5" y="-16"/>
      <point x="630.5" y="58.5"/>
    </contour>
  </outline>
</glyph>
<glyph name="b" format="2">
  <advance width="1103"/>
  <unicode hex="0062"/>
  <anchor x="231.5" y="1503.25" name="Top"/>
  <anchor x="211.75" y="1238" name="bar"/>
  <anchor x="546" y="-70" name="bottom"/>
  <anchor x="669.25" y="70.5" name="hook"/>
  <anchor x="589.25" y="1120" name="top"/>
  <outline>
    <contour>
      <point x="221.75" y="0" type="line" smooth="yes" name="n00"/>
      <point x="239.25" y="0"/>
      <point x="246.75" y="9.5"/>
      <point x="249.25" y="25" type="curve"/>
      <point x="257.25" y="171.75" type="line" name="n04"/>
      <point x="259.75" y="182.25" type="line"/>
      <point x="259.75" y="1455" type="line" name="n06"/>
      <point x="164.25" y="1455" type="line"/>
      <point x="164.25" y="0" type="line"/>
    </contour>
    <contour>
      <point x="242.75" y="167" type="line" name="n09"/>
      <point x="315.75" y="49"/>
      <point x="417.25" y="-13"/>
      <point x="564.75" y="-13" type="curve" smooth="yes" name="n12"/>
      <point x="839.25" y="-13"/>
      <point x="996.75" y="202.25"/>
      <point x="996.75" y="524.75" type="curve" smooth="yes" name="n15"/>
      <point x="996.75" y="831.75"/>
      <point x="854.25" y="1011"/>
      <point x="614.5" y="1011" type="curve" smooth="yes" name="n18"/>
      <point x="444" y="1011"/>
      <point x="322.25" y="920.5"/>
      <point x="233.25" y="783" type="curve"/>
      <point x="245.25" y="719.5" type="line"/>
      <point x="329.75" y="854"/>
      <point x="436.75" y="935"/>
      <point x="587.25" y="935" type="curve" smooth="yes" name="n25"/>
      <point x="785" y="935"/>
      <point x="898.75" y="796.25"/>
      <point x="898.75" y="520.5" type="curve" smooth="yes" name="n28"/>
      <point x="898.75" y="237.75"/>
      <point x="781" y="61.5"/>
      <point x="544" y="61.5" type="curve" smooth="yes" name="n31"/>
      <point x="423" y="61.5"/>
      <point x="327.75" y="107"/>
      <point x="249.25" y="234" type="curve"/>
    </contour>
  </outline>
</glyph>
<glyph name="e" format="2">
  <advance width="1042.75"/>
  <unicode hex="0065"/>
  <anchor x="553.5" y="1120.0" name="top"/>
  <anchor x="558.5" y="-70.0" name="bottom"/>
  <anchor x="926.0" y="70.5" name="hook"/>
  <outline>
    <contour>
      <point x="553.0" y="1011.0" type="curve" smooth="yes"/>
      <point x="271.5" y="1011.0"/>
      <point x="104.0" y="803.5"/>
      <point x="104.0" y="518.0" type="curve" smooth="yes"/>
      <point x="104.0" y="180.0"/>
      <point x="286.0" y="-13.0"/>
      <point x="559.5" y="-13.0" type="curve" smooth="yes"/>
      <point x="709.0" y="-13.0"/>
      <point x="861.0" y="48.5"/>
      <point x="926.0" y="128.0" type="curve"/>
      <point x="900.5" y="160.0" type="line" smooth="yes"/>
      <point x="896.0" y="166.0"/>
      <point x="889.5" y="170.0"/>
      <point x="880.5" y="170.0" type="curve" smooth="yes"/>
      <point x="854.5" y="170.0"/>
      <point x="766.0" y="62.5"/>
      <point x="566.5" y="62.5" type="curve" smooth="yes"/>
      <point x="343.5" y="62.5"/>
      <point x="198.5" y="219.0"/>
      <point x="198.5" y="518.0" type="curve" smooth="yes"/>
      <point x="198.5" y="771.5"/>
      <point x="324.5" y="940.0"/>
      <point x="554.5" y="940.0" type="curve" smooth="yes"/>
      <point x="735.0" y="940.0"/>
      <point x="862.5" y="811.0"/>
      <point x="862.5" y="598.0" type="curve"/>
      <point x="180.0" y="598.0" type="line"/>
      <point x="179.5" y="537.5" type="line"/>
      <point x="922.0" y="537.5" type="line" smooth="yes"/>
      <point x="940.5" y="537.5"/>
      <point x="948.5" y="546.5"/>
      <point x="948.5" y="575.0" type="curve" smooth="yes"/>
      <point x="948.5" y="854.5"/>
      <point x="776.0" y="1011.0"/>
    </contour>
  </outline>
</glyph>
<glyph name="f" format="2">
  <advance width="681"/>
  <unicode hex="0066"/>
  <anchor x="427" y="1503.25" name="Top"/>
  <anchor x="271" y="517.25" name="bar"/>
  <anchor x="271" y="-70" name="bottom"/>
  <anchor x="318.75" y="70.5" name="hook"/>
  <anchor x="490.75" y="1486.5" name="top"/>
  <outline>
    <contour>
      <point x="318.75" y="0" type="line" name="n00"/>
      <point x="318.75" y="930" type="line"/>
      <point x="316.25" y="944" type="line"/>
      <point x="316.25" y="1087" type="line" smooth="yes" name="n03"/>
      <point x="316.25" y="1286.5"/>
      <point x="410" y="1358.5"/>
      <point x="541" y="1358.5" type="curve" smooth="yes" name="n06"/>
      <point x="609.5" y="1358.5"/>
      <point x="639.25" y="1341.5"/>
      <point x="642.75" y="1366" type="curve"/>
      <point x="645.75" y="1411.5" type="line"/>
      <point x="613.25" y="1425"/>
      <point x="568.5" y="1432.5"/>
      <point x="527.5" y="1432.5" type="curve" smooth="yes" name="n13"/>
      <point x="345.5" y="1432.5"/>
      <point x="223.25" y="1317"/>
      <point x="223.25" y="1089.5" type="curve" smooth="yes" name="n16"/>
      <point x="223.25" y="0" type="line"/>
    </contour>
    <contour>
      <point x="638.75" y="893" type="line" name="n18"/>
      <point x="638.75" y="963.5" type="line" name="n19"/>
      <point x="54.75" y="963.5" type="line"/>
      <point x="54.75" y="925.5" type="line" smooth="yes"/>
      <point x="54.75" y="911"/>
      <point x="65.75" y="902.5"/>
      <point x="83.25" y="900" type="curve"/>
      <point x="241.75" y="890.5" type="line"/>
      <point x="262.25" y="893" type="line"/>
    </contour>
  </outline>
</glyph>
<glyph name="g" format="2">
  <advance width="1020.75"/>
  <unicode hex="0067"/>
  <guideline x="538.75"/>
  <anchor x="512.75" y="1120.0" name="top"/>
  <anchor x="481.75" y="-421.0" name="bottom"/>
  <outline>
    <contour>
      <point x="489.5" y="1011.5" type="curve" smooth="yes"/>
      <point x="276.0" y="1011.5"/>
      <point x="133.5" y="883.5"/>
      <point x="133.5" y="693.0" type="curve" smooth="yes"/>
      <point x="133.5" y="501.5"/>
      <point x="276.0" y="374.5"/>
      <point x="489.5" y="374.5" type="curve" smooth="yes"/>
      <point x="700.0" y="374.5"/>
      <point x="843.5" y="501.5"/>
      <point x="843.5" y="693.0" type="curve" smooth="yes"/>
      <point x="843.5" y="883.5"/>
      <point x="700.0" y="1011.5"/>
    </contour>
    <contour>
      <point x="489.5" y="439.5" type="curve" smooth="yes"/>
      <point x="321.5" y="439.5"/>
      <point x="222.0" y="542.0"/>
      <point x="222.0" y="691.0" type="curve" smooth="yes"/>
      <point x="222.0" y="841.5"/>
      <point x="321.5" y="942.0"/>
      <point x="489.5" y="942.0" type="curve" smooth="yes"/>
      <point x="657.5" y="942.0"/>
      <point x="757.0" y="841.5"/>
      <point x="757.0" y="691.0" type="curve" smooth="yes"/>
      <point x="757.0" y="541.5"/>
      <point x="660.5" y="439.5"/>
    </contour>
    <contour>
      <point x="295.5" y="430.5" type="line"/>
      <point x="210.0" y="390.0"/>
      <point x="160.5" y="315.5"/>
      <point x="160.5" y="257.5" type="curve" smooth="yes"/>
      <point x="160.5" y="-42.0"/>
      <point x="861.5" y="213.5"/>
      <point x="861.5" y="-67.5" type="curve" smooth="yes"/>
      <point x="861.5" y="-204.5"/>
      <point x="704.5" y="-300.5"/>
      <point x="502.5" y="-300.5" type="curve" smooth="yes"/>
      <point x="284.0" y="-300.5"/>
      <point x="162.0" y="-210.0"/>
      <point x="162.0" y="-94.5" type="curve" smooth="yes"/>
      <point x="162.0" y="7.5"/>
      <point x="251.0" y="76.0"/>
      <point x="369.0" y="115.5" type="curve"/>
      <point x="299.0" y="128.5" type="line"/>
      <point x="164.0" y="89.0"/>
      <point x="77.0" y="8.0"/>
      <point x="77.0" y="-105.0" type="curve" smooth="yes"/>
      <point x="77.0" y="-248.0"/>
      <point x="222.0" y="-371.0"/>
      <point x="501.0" y="-371.0" type="curve" smooth="yes"/>
      <point x="777.0" y="-371.0"/>
      <point x="949.5" y="-218.0"/>
      <point x="949.5" y="-54.0" type="curve" smooth="yes"/>
      <point x="949.5" y="303.5"/>
      <point x="243.5" y="48.5"/>
      <point x="243.5" y="280.0" type="curve" smooth="yes"/>
      <point x="243.5" y="326.5"/>
      <point x="288.0" y="381.0"/>
      <point x="357.0" y="413.0" type="curve"/>
    </contour>
    <contour>
      <point x="725.5" y="876.5" type="line"/>
      <point x="937.0" y="891.5" type="line"/>
      <point x="954.5" y="894.0"/>
      <point x="965.0" y="903.5"/>
      <point x="965.0" y="918.5" type="curve" smooth="yes"/>
      <point x="965.0" y="951.0" type="line"/>
      <point x="674.0" y="951.0" type="line"/>
    </contour>
  </outline>
</glyph>
<glyph name="h" format="2">
  <advance width="1100"/>
  <unicode hex="0068"/>
  <anchor x="579" y="707" name="Slash"/>
  <anchor x="231" y="1503.25" name="Top"/>
  <anchor x="555.5" y="-70" name="bottom"/>
  <anchor x="231" y="1503.25" name="top"/>
  <outline>
    <contour>
      <point x="259.75" y="0" type="line" name="n00"/>
      <point x="259.75" y="1455" type="line" name="n01"/>
      <point x="164.25" y="1455" type="line" name="n02"/>
      <point x="164.25" y="0" type="line"/>
    </contour>
    <contour>
      <point x="946.75" y="0" type="line"/>
      <point x="946.75" y="636" type="line" name="n05"/>
      <point x="851.25" y="636" type="line" name="n06"/>
      <point x="851.25" y="0" type="line"/>
    </contour>
    <contour>
      <point x="946.75" y="636" type="line"/>
      <point x="946.75" y="867"/>
      <point x="835.75" y="1011"/>
      <point x="615.75" y="1011" type="curve" smooth="yes" name="n11"/>
      <point x="452.25" y="1011"/>
      <point x="321.75" y="918.5"/>
      <point x="227.25" y="782.5" type="curve"/>
      <point x="239.25" y="719.5" type="line"/>
      <point x="330.25" y="852"/>
      <point x="451.75" y="935"/>
      <point x="591.75" y="935" type="curve" smooth="yes" name="n18"/>
      <point x="767.25" y="935"/>
      <point x="851.25" y="823.5"/>
      <point x="851.25" y="636" type="curve"/>
    </contour>
  </outline>
</glyph>
<glyph name="i" format="2">
  <advance width="446"/>
  <unicode hex="0069"/>
  <anchor x="222.75" y="1503.25" name="Top"/>
  <anchor x="222.75" y="-70" name="bottom"/>
  <anchor x="270.5" y="70.5" name="hook"/>
  <anchor x="222.75" y="1503.25" name="top"/>
  <outline>
    <contour>
      <point x="175" y="995" type="line" name="n00"/>
      <point x="175" y="0" type="line" name="n01"/>
      <point x="270.5" y="0" type="line"/>
      <point x="270.5" y="995" type="line" name="n03"/>
    </contour>
    <contour>
      <point x="311.5" y="1338" type="curve" smooth="yes"/>
      <point x="311.5" y="1386.5"/>
      <point x="269" y="1427"/>
      <point x="222" y="1427" type="curve" smooth="yes" name="n07"/>
      <point x="174.5" y="1427"/>
      <point x="134" y="1386.5"/>
      <point x="134" y="1338" type="curve" smooth="yes"/>
      <point x="134" y="1291.5"/>
      <point x="174.5" y="1251"/>
      <point x="222" y="1251" type="curve" smooth="yes" name="n13"/>
      <point x="269" y="1251"/>
      <point x="311.5" y="1291.5"/>
    </contour>
  </outline>
  <guideline angle="90" x="232" y="0"/>
</glyph>
<glyph name="j" format="2">
  <advance width="445.5"/>
  <unicode hex="006A"/>
  <guideline x="228.0"/>
  <anchor x="222.75" y="517.25" name="bar"/>
  <anchor x="222.0" y="1503.25" name="Top"/>
  <anchor x="222.0" y="1503.25" name="top"/>
  <anchor x="222.75" y="-421.0" name="bottom"/>
  <outline>
    <contour>
      <point x="175.0" y="995.0" type="line"/>
      <point x="175.0" y="-127.5" type="line" smooth="yes"/>
      <point x="175.0" y="-235.0"/>
      <point x="124.0" y="-296.5"/>
      <point x="16.0" y="-296.5" type="curve" smooth="yes"/>
      <point x="-36.5" y="-296.5"/>
      <point x="-51.5" y="-276.5"/>
      <point x="-59.5" y="-300.0" type="curve"/>
      <point x="-65.0" y="-348.5" type="line"/>
      <point x="-35.5" y="-362.0"/>
      <point x="-7.0" y="-369.5"/>
      <point x="32.5" y="-369.5" type="curve" smooth="yes"/>
      <point x="191.0" y="-369.5"/>
      <point x="270.5" y="-265.5"/>
      <point x="270.5" y="-127.5" type="curve" smooth="yes"/>
      <point x="270.5" y="995.0" type="line"/>
    </contour>
    <contour>
      <point x="310.75" y="1338.0" type="curve" smooth="yes"/>
      <point x="310.75" y="1386.5"/>
      <point x="268.25" y="1427.0"/>
      <point x="221.25" y="1427.0" type="curve" smooth="yes"/>
      <point x="173.75" y="1427.0"/>
      <point x="133.25" y="1386.5"/>
      <point x="133.25" y="1338.0" type="curve" smooth="yes"/>
      <point x="133.25" y="1291.5"/>
      <point x="173.75" y="1251.0"/>
      <point x="221.25" y="1251.0" type="curve" smooth="yes"/>
      <point x="268.25" y="1251.0"/>
      <point x="310.75" y="1291.5"/>
    </contour>
  </outline>
</glyph>
<glyph name="k" format="2">
  <advance width="952"/>
  <unicode hex="006B"/>
  <anchor x="240.25" y="1503.25" name="Top"/>
  <anchor x="514.5" y="-70" name="bottom"/>
  <anchor x="874" y="70.5" name="hook"/>
  <anchor x="240.25" y="1503.25" name="top"/>
  <outline>
    <contour>
      <point x="164.25" y="1455" type="line" name="n00"/>
      <point x="164.25" y="0" type="line" name="n01"/>
      <point x="259.75" y="0" type="line" name="n02"/>
      <point x="259.75" y="1455" type="line"/>
    </contour>
    <contour>
      <point x="229.25" y="568" type="line"/>
      <point x="244.75" y="502.5" type="line" name="n05"/>
      <point x="304.75" y="502.5" type="line" smooth="yes"/>
      <point x="344.75" y="502.5"/>
      <point x="357.75" y="496.5"/>
      <point x="380.25" y="471.5" type="curve" smooth="yes"/>
      <point x="798.25" y="22.5" type="line"/>
      <point x="811.25" y="5"/>
      <point x="825.75" y="0"/>
      <point x="844.75" y="0" type="curve" smooth="yes"/>
      <point x="928.25" y="0" type="line"/>
      <point x="466.75" y="502" type="line"/>
      <point x="440.25" y="536"/>
      <point x="410.75" y="560"/>
      <point x="345.75" y="560" type="curve"/>
      <point x="343.25" y="529" type="line"/>
      <point x="395.75" y="529"/>
      <point x="427.25" y="545"/>
      <point x="456.25" y="578" type="curve"/>
      <point x="895.25" y="995" type="line" name="n23"/>
      <point x="810.75" y="995" type="line" smooth="yes"/>
      <point x="786.75" y="995"/>
      <point x="772.25" y="986"/>
      <point x="758.75" y="970" type="curve"/>
      <point x="360.25" y="591" type="line"/>
      <point x="340.25" y="570.5"/>
      <point x="324.25" y="568"/>
      <point x="305.75" y="568" type="curve" smooth="yes"/>
    </contour>
  </outline>
</glyph>
<glyph name="l" format="2">
  <advance width="442"/>
  <unicode hex="006C"/>
  <anchor x="221.25" y="1503.25" name="Top"/>
  <anchor x="224.25" y="714" name="bar"/>
  <anchor x="222.5" y="-70" name="bottom"/>
  <anchor x="268.75" y="70.5" name="hook"/>
  <anchor x="221.25" y="1503.25" name="top"/>
  <outline>
    <contour>
      <point x="173.25" y="1455" type="line" name="n00"/>
      <point x="173.25" y="0" type="line" name="n01"/>
      <point x="268.75" y="0" type="line"/>
      <point x="268.75" y="1455" type="line" name="n03"/>
    </contour>
  </outline>
</glyph>
<glyph name="n" format="2">
  <advance width="1100"/>
  <unicode hex="006E"/>
  <anchor x="555.5" y="-70" name="bottom"/>
  <anchor x="946.75" y="70.5" name="hook"/>
  <anchor x="552.25" y="1120" name="top"/>
  <outline>
    <contour>
      <point x="259.75" y="0" type="line" name="n00"/>
      <point x="259.75" y="781.5" type="line"/>
      <point x="257.25" y="788.5" type="line"/>
      <point x="246.25" y="969.5" type="line" name="n03"/>
      <point x="243.25" y="987.5"/>
      <point x="233.75" y="995" name="n05"/>
      <point x="216.75" y="995" type="curve" smooth="yes"/>
      <point x="164.25" y="995" type="line" name="n07"/>
      <point x="164.25" y="0" type="line"/>
    </contour>
    <contour>
      <point x="946.75" y="0" type="line"/>
      <point x="946.75" y="636" type="line" name="n10"/>
      <point x="851.25" y="636" type="line" name="n11"/>
      <point x="851.25" y="0" type="line"/>
    </contour>
    <contour>
      <point x="946.75" y="636" type="line" smooth="yes"/>
      <point x="946.75" y="867"/>
      <point x="835.75" y="1011"/>
      <point x="615.75" y="1011" type="curve" smooth="yes" name="n16"/>
      <point x="452.25" y="1011"/>
      <point x="321.75" y="918.5"/>
      <point x="227.25" y="782.5" type="curve"/>
      <point x="239.25" y="719.5" type="line"/>
      <point x="330.25" y="852"/>
      <point x="451.75" y="935"/>
      <point x="591.75" y="935" type="curve" smooth="yes" name="n23"/>
      <point x="767.25" y="935"/>
      <point x="851.25" y="823.5"/>
      <point x="851.25" y="636" type="curve" smooth="yes"/>
      <point x="851.25" y="603.5" type="line"/>
      <point x="946.75" y="603.5" type="line"/>
    </contour>
  </outline>
  <guideline angle="90" x="-1350" y="0"/>
</glyph>
<glyph name="o" format="2">
  <advance width="1116.25"/>
  <unicode hex="006F"/>
  <guideline x="545.5"/>
  <anchor x="559.75" y="1120.0" name="top"/>
  <anchor x="559.75" y="-70.0" name="bottom"/>
  <outline>
    <contour>
      <point x="558.25" y="1011.0" type="curve" smooth="yes"/>
      <point x="272.25" y="1011.0"/>
      <point x="104.25" y="808.5"/>
      <point x="104.25" y="498.0" type="curve" smooth="yes"/>
      <point x="104.25" y="187.0"/>
      <point x="272.25" y="-13.0"/>
      <point x="558.25" y="-13.0" type="curve" smooth="yes"/>
      <point x="843.75" y="-13.0"/>
      <point x="1011.25" y="187.0"/>
      <point x="1011.25" y="498.0" type="curve" smooth="yes"/>
      <point x="1011.25" y="808.5"/>
      <point x="843.75" y="1011.0"/>
    </contour>
    <contour>
      <point x="558.25" y="62.0" type="curve" smooth="yes"/>
      <point x="320.75" y="62.0"/>
      <point x="202.25" y="231.5"/>
      <point x="202.25" y="497.5" type="curve" smooth="yes"/>
      <point x="202.25" y="763.5"/>
      <point x="320.75" y="936.0"/>
      <point x="558.25" y="936.0" type="curve" smooth="yes"/>
      <point x="794.75" y="936.0"/>
      <point x="913.25" y="763.5"/>
      <point x="913.25" y="497.5" type="curve" smooth="yes"/>
      <point x="913.25" y="231.5"/>
      <point x="794.75" y="62.0"/>
    </contour>
  </outline>
</glyph>
<glyph name="p" format="2">
  <advance width="1103"/>
  <unicode hex="0070"/>
  <anchor x="212.75" y="-152.25" name="bar"/>
  <anchor x="642.25" y="-70" name="bottom"/>
  <anchor x="700.5" y="70.5" name="hook"/>
  <anchor x="731.5" y="67.75" name="tick"/>
  <anchor x="496" y="1120" name="top"/>
  <outline>
    <contour>
      <point x="259.75" y="-352" type="line" name="n00"/>
      <point x="259.75" y="788.25" type="line"/>
      <point x="257.25" y="795.25" type="line"/>
      <point x="246.25" y="969.5" type="line" name="n03"/>
      <point x="243.25" y="987.5"/>
      <point x="233.75" y="995" name="n05"/>
      <point x="216.75" y="995" type="curve" smooth="yes"/>
      <point x="164.25" y="995" type="line"/>
      <point x="164.25" y="-352" type="line"/>
    </contour>
    <contour>
      <point x="996.75" y="504" type="curve" smooth="yes" name="n09"/>
      <point x="996.75" y="842.5"/>
      <point x="853.25" y="1012"/>
      <point x="608.75" y="1012" type="curve" smooth="yes" name="n12"/>
      <point x="449.75" y="1012"/>
      <point x="322.25" y="920.5"/>
      <point x="233.25" y="783" type="curve"/>
      <point x="245.25" y="719.5" type="line"/>
      <point x="329.75" y="854"/>
      <point x="443.25" y="935"/>
      <point x="581.75" y="935" type="curve" smooth="yes" name="n19"/>
      <point x="786.25" y="935"/>
      <point x="898.75" y="800.5"/>
      <point x="898.75" y="504" type="curve" smooth="yes" name="n22"/>
      <point x="898.75" y="242"/>
      <point x="778.75" y="61.5"/>
      <point x="544.75" y="61.5" type="curve" smooth="yes" name="n25"/>
      <point x="420.75" y="61.5"/>
      <point x="327.75" y="107"/>
      <point x="249.25" y="234" type="curve" name="n28"/>
      <point x="236.75" y="167.5" type="line"/>
      <point x="311.25" y="49"/>
      <point x="414.25" y="-13"/>
      <point x="563.25" y="-13" type="curve" smooth="yes" name="n32"/>
      <point x="842.25" y="-13"/>
      <point x="996.75" y="213"/>
    </contour>
  </outline>
</glyph>
<glyph name="q" format="2">
  <advance width="1101"/>
  <unicode hex="0071"/>
  <anchor x="610.75" y="-421" name="bottom"/>
  <anchor x="622.25" y="1120" name="top"/>
  <outline>
    <contour>
      <point x="885.75" y="995" type="line" smooth="yes" name="n00"/>
      <point x="868.75" y="995"/>
      <point x="859.25" y="987.5"/>
      <point x="856.25" y="969.5" type="curve"/>
      <point x="845.25" y="827.5" type="line"/>
      <point x="842.75" y="820.5" type="line" name="n05"/>
      <point x="842.75" y="-352" type="line" name="n06"/>
      <point x="938.25" y="-352" type="line"/>
      <point x="938.25" y="995" type="line"/>
    </contour>
    <contour>
      <point x="865.75" y="831.5" type="line" name="n09"/>
      <point x="791.25" y="950"/>
      <point x="688.25" y="1012"/>
      <point x="539.25" y="1012" type="curve" smooth="yes" name="n12"/>
      <point x="260.25" y="1012"/>
      <point x="105.75" y="786"/>
      <point x="105.75" y="495" type="curve" smooth="yes" name="n15"/>
      <point x="105.75" y="156.5"/>
      <point x="249.25" y="-13"/>
      <point x="493.75" y="-13" type="curve" smooth="yes" name="n18"/>
      <point x="652.75" y="-13"/>
      <point x="780.25" y="78.5"/>
      <point x="869.25" y="216" type="curve"/>
      <point x="857.25" y="279.5" type="line"/>
      <point x="772.75" y="145"/>
      <point x="659.25" y="64"/>
      <point x="520.75" y="64" type="curve" smooth="yes" name="n25"/>
      <point x="316.25" y="64"/>
      <point x="203.75" y="198.5"/>
      <point x="203.75" y="495" type="curve" smooth="yes" name="n28"/>
      <point x="203.75" y="757"/>
      <point x="323.75" y="937.5"/>
      <point x="557.75" y="937.5" type="curve" smooth="yes" name="n31"/>
      <point x="681.75" y="937.5"/>
      <point x="780" y="887.5"/>
      <point x="853.25" y="765" type="curve"/>
    </contour>
  </outline>
</glyph>
<glyph name="r" format="2">
  <advance width="706.75"/>
  <unicode hex="0072"/>
  <anchor x="419.25" y="1120.0" name="top"/>
  <anchor x="213.25" y="-70.0" name="bottom"/>
  <anchor x="259.75" y="70.5" name="hook"/>
  <anchor x="213.75" y="517.25" name="bar"/>
  <outline>
    <contour>
      <point x="681.25" y="987.0" type="line"/>
      <point x="650.25" y="1005.25"/>
      <point x="607.75" y="1012.0"/>
      <point x="567.25" y="1012.0" type="curve" smooth="yes"/>
      <point x="381.25" y="1012.0"/>
      <point x="280.25" y="875.0"/>
      <point x="222.75" y="650.5" type="curve"/>
      <point x="243.75" y="591.0" type="line"/>
      <point x="304.5" y="805.5"/>
      <point x="384.5" y="919.5"/>
      <point x="553.0" y="919.5" type="curve" smooth="yes"/>
      <point x="606.5" y="919.5"/>
      <point x="637.75" y="905.5"/>
      <point x="653.75" y="905.5" type="curve" smooth="yes"/>
      <point x="664.75" y="905.5"/>
      <point x="670.25" y="911.0"/>
      <point x="673.25" y="921.5" type="curve" smooth="yes"/>
    </contour>
    <contour>
      <point x="259.75" y="0.0" type="line"/>
      <point x="259.75" y="699.0" type="line"/>
      <point x="257.25" y="706.0" type="line"/>
      <point x="247.75" y="964.0" type="line"/>
      <point x="245.25" y="987.0"/>
      <point x="237.75" y="995.0"/>
      <point x="214.75" y="995.0" type="curve" smooth="yes"/>
      <point x="164.25" y="995.0" type="line"/>
      <point x="164.25" y="0.0" type="line"/>
    </contour>
  </outline>
</glyph>
<glyph name="s" format="2">
  <advance width="851"/>
  <unicode hex="0073"/>
  <anchor x="419.25" y="-70" name="bottom"/>
  <anchor x="630" y="70.5" name="hook"/>
  <anchor x="439.5" y="1120" name="top"/>
  <outline>
    <contour>
      <point x="731.25" y="905" type="line"/>
      <point x="653.75" y="975.5"/>
      <point x="560.75" y="1011"/>
      <point x="440.75" y="1011" type="curve" smooth="yes" name="n03"/>
      <point x="238.75" y="1011"/>
      <point x="111.75" y="884"/>
      <point x="111.75" y="742" type="curve" smooth="yes" name="n06"/>
      <point x="111.75" y="414"/>
      <point x="666.25" y="541"/>
      <point x="666.25" y="275" type="curve" smooth="yes" name="n09"/>
      <point x="666.25" y="154"/>
      <point x="578.25" y="53.5"/>
      <point x="410.25" y="53.5" type="curve" smooth="yes" name="n12"/>
      <point x="232.25" y="53.5"/>
      <point x="174.5" y="154.5"/>
      <point x="140" y="154.5" type="curve" smooth="yes"/>
      <point x="126" y="154.5"/>
      <point x="118.5" y="149"/>
      <point x="111.5" y="139" type="curve"/>
      <point x="89" y="104.5" type="line"/>
      <point x="169" y="32.5"/>
      <point x="266.25" y="-16"/>
      <point x="406.25" y="-16" type="curve" smooth="yes" name="n22"/>
      <point x="628.75" y="-16"/>
      <point x="755.25" y="118.5"/>
      <point x="755.25" y="290.5" type="curve" smooth="yes" name="n25"/>
      <point x="755.25" y="613"/>
      <point x="201.75" y="500.5"/>
      <point x="201.75" y="748.5" type="curve" smooth="yes" name="n28"/>
      <point x="201.75" y="851"/>
      <point x="298.25" y="939"/>
      <point x="442.25" y="939" type="curve" smooth="yes" name="n31"/>
      <point x="601.75" y="939"/>
      <point x="658.75" y="858.5"/>
      <point x="688.25" y="858.5" type="curve" smooth="yes"/>
      <point x="698.25" y="858.5"/>
      <point x="705.25" y="862.5"/>
      <point x="710.75" y="872" type="curve"/>
    </contour>
  </outline>
</glyph>
<glyph name="t" format="2">
  <advance width="685"/>
  <unicode hex="0074"/>
  <anchor x="374.25" y="707" name="Slash"/>
  <anchor x="271.5" y="517.25" name="bar"/>
  <anchor x="434.75" y="-70" name="bottom"/>
  <anchor x="281" y="1414.25" name="top"/>
  <outline>
    <contour>
      <point x="222.25" y="936.5" type="line"/>
      <point x="222.25" y="212.5" type="line" smooth="yes" name="n01"/>
      <point x="222.25" y="58"/>
      <point x="301.75" y="-16"/>
      <point x="436.25" y="-16" type="curve" smooth="yes" name="n04"/>
      <point x="519.75" y="-16"/>
      <point x="604.25" y="21.5"/>
      <point x="654.25" y="77" type="curve"/>
      <point x="627.75" y="118.5" type="line"/>
      <point x="623.25" y="125"/>
      <point x="619.25" y="128.5"/>
      <point x="611.75" y="128.5" type="curve" smooth="yes"/>
      <point x="593.25" y="128.5"/>
      <point x="550.25" y="62"/>
      <point x="454.75" y="62" type="curve" smooth="yes" name="n14"/>
      <point x="377.75" y="62"/>
      <point x="317.75" y="108"/>
      <point x="317.75" y="218" type="curve" smooth="yes" name="n17"/>
      <point x="317.75" y="1344" type="line" name="n18"/>
      <point x="272.75" y="1344" type="line" smooth="yes"/>
      <point x="259.25" y="1344"/>
      <point x="250.25" y="1333.5"/>
      <point x="248.25" y="1321" type="curve"/>
    </contour>
    <contour>
      <point x="261.25" y="963.5" type="line"/>
      <point x="240.75" y="966" type="line"/>
      <point x="53.75" y="952.5" type="line"/>
      <point x="53.75" y="916.5" type="line" smooth="yes"/>
      <point x="53.75" y="901.5"/>
      <point x="64.75" y="893"/>
      <point x="78.75" y="893" type="curve" smooth="yes"/>
      <point x="632.5" y="893" type="line" name="n30"/>
      <point x="632.5" y="963.5" type="line" name="n31"/>
    </contour>
  </outline>
</glyph>
<glyph name="u" format="2">
  <advance width="1099"/>
  <unicode hex="0075"/>
  <anchor x="608" y="-70" name="bottom"/>
  <anchor x="936" y="70.5" name="hook"/>
  <anchor x="551.25" y="1120" name="top"/>
  <outline>
    <contour>
      <point x="840.5" y="995" type="line" name="n00"/>
      <point x="840.5" y="213.5" type="line"/>
      <point x="843" y="206.5" type="line"/>
      <point x="854" y="25.5" type="line" name="n03"/>
      <point x="857" y="7.5"/>
      <point x="866.5" y="0" name="n05"/>
      <point x="883.5" y="0" type="curve" smooth="yes"/>
      <point x="936" y="0" type="line" name="n07"/>
      <point x="936" y="995" type="line"/>
    </contour>
    <contour>
      <point x="153.5" y="995" type="line" name="n09"/>
      <point x="153.5" y="359" type="line"/>
      <point x="249" y="359" type="line"/>
      <point x="249" y="995" type="line" name="n12"/>
    </contour>
    <contour>
      <point x="153.5" y="359" type="line"/>
      <point x="153.5" y="128"/>
      <point x="264.5" y="-16"/>
      <point x="484.5" y="-16" type="curve" smooth="yes" name="n16"/>
      <point x="648" y="-16"/>
      <point x="778.5" y="76.5"/>
      <point x="873" y="212.5" type="curve"/>
      <point x="861" y="275.5" type="line"/>
      <point x="770" y="143"/>
      <point x="648.5" y="60"/>
      <point x="508.5" y="60" type="curve" smooth="yes" name="n23"/>
      <point x="333" y="60"/>
      <point x="249" y="171.5"/>
      <point x="249" y="359" type="curve"/>
    </contour>
  </outline>
</glyph>
<glyph name="v" format="2">
  <advance width="1003"/>
  <unicode hex="0076"/>
  <anchor x="501.5" y="-70" name="bottom"/>
  <anchor x="571.25" y="70.5" name="hook"/>
  <anchor x="501.5" y="1120" name="top"/>
  <outline>
    <contour>
      <point x="459.5" y="0" type="line" name="n00"/>
      <point x="518" y="0" type="line"/>
      <point x="510.5" y="65"/>
      <point x="500.5" y="123.5"/>
      <point x="478" y="186" type="curve"/>
      <point x="149.5" y="970.5" type="line"/>
      <point x="145.5" y="983"/>
      <point x="133" y="995" name="n07"/>
      <point x="114.5" y="995" type="curve" smooth="yes"/>
      <point x="39.5" y="995" type="line"/>
    </contour>
    <contour>
      <point x="963.5" y="995" type="line"/>
      <point x="891.5" y="995" type="line" smooth="yes"/>
      <point x="875.5" y="995"/>
      <point x="863" y="984.5"/>
      <point x="857.5" y="970.5" type="curve" smooth="yes"/>
      <point x="527.5" y="186" type="line"/>
      <point x="504.5" y="123"/>
      <point x="494" y="65"/>
      <point x="487" y="0" type="curve"/>
      <point x="543.5" y="0" type="line"/>
    </contour>
  </outline>
</glyph>
<glyph name="w" format="2">
  <advance width="1529.5"/>
  <unicode hex="0077"/>
  <anchor x="768.0" y="1120.0" name="top"/>
  <anchor x="764.75" y="-70.0" name="bottom"/>
  <outline>
    <contour>
      <point x="382.5" y="0.0" type="line"/>
      <point x="450.0" y="0.0" type="line" smooth="yes"/>
      <point x="461.5" y="0.0"/>
      <point x="470.0" y="7.5"/>
      <point x="474.0" y="21.0" type="curve" smooth="yes"/>
      <point x="750.0" y="829.0" type="line" smooth="yes"/>
      <point x="764.0" y="872.5"/>
      <point x="771.0" y="914.5"/>
      <point x="775.5" y="958.0" type="curve"/>
      <point x="755.5" y="958.0" type="line"/>
      <point x="760.0" y="914.5"/>
      <point x="767.0" y="873.0"/>
      <point x="781.0" y="829.5" type="curve"/>
      <point x="1053.5" y="21.0" type="line" smooth="yes"/>
      <point x="1057.5" y="7.0"/>
      <point x="1065.5" y="0.0"/>
      <point x="1076.5" y="0.0" type="curve" smooth="yes"/>
      <point x="1147.0" y="0.0" type="line"/>
      <point x="1479.5" y="995.0" type="line"/>
      <point x="1410.0" y="995.0" type="line" smooth="yes"/>
      <point x="1394.0" y="995.0"/>
      <point x="1381.5" y="984.5"/>
      <point x="1376.0" y="970.5" type="curve"/>
      <point x="1123.5" y="186.0" type="line"/>
      <point x="1105.5" y="122.0"/>
      <point x="1095.0" y="68.0"/>
      <point x="1090.5" y="3.0" type="curve"/>
      <point x="1117.5" y="1.5" type="line"/>
      <point x="1113.5" y="66.5"/>
      <point x="1098.0" y="123.0"/>
      <point x="1079.0" y="186.0" type="curve" smooth="yes"/>
      <point x="815.5" y="978.0" type="line" smooth="yes"/>
      <point x="811.5" y="990.5"/>
      <point x="802.0" y="999.5"/>
      <point x="786.5" y="999.5" type="curve" smooth="yes"/>
      <point x="747.5" y="999.5" type="line" smooth="yes"/>
      <point x="733.0" y="999.5"/>
      <point x="723.5" y="990.5"/>
      <point x="719.5" y="978.0" type="curve" smooth="yes"/>
      <point x="453.0" y="186.0" type="line" smooth="yes"/>
      <point x="433.0" y="122.5"/>
      <point x="417.5" y="68.0"/>
      <point x="410.5" y="3.0" type="curve"/>
      <point x="439.5" y="3.0" type="line"/>
      <point x="434.5" y="68.0"/>
      <point x="425.5" y="122.5"/>
      <point x="408.5" y="186.0" type="curve"/>
      <point x="157.5" y="970.5" type="line" smooth="yes"/>
      <point x="153.5" y="983.0"/>
      <point x="141.0" y="995.0"/>
      <point x="122.5" y="995.0" type="curve" smooth="yes"/>
      <point x="50.0" y="995.0" type="line"/>
    </contour>
  </outline>
</glyph>
<glyph name="z" format="2">
  <advance width="887.0"/>
  <unicode hex="007A"/>
  <anchor x="464.5" y="1120.0" name="top"/>
  <anchor x="446.25" y="-70.0" name="bottom"/>
  <anchor x="764.25" y="70.5" name="hook"/>
  <outline>
    <contour>
      <point x="817.5" y="995.0" type="line"/>
      <point x="98.0" y="995.0" type="line"/>
      <point x="98.0" y="920.0" type="line"/>
      <point x="733.5" y="920.0" type="line"/>
      <point x="713.0" y="931.0" type="line"/>
      <point x="80.0" y="74.5" type="line"/>
      <point x="70.5" y="61.5"/>
      <point x="65.5" y="48.5"/>
      <point x="65.5" y="37.5" type="curve" smooth="yes"/>
      <point x="65.5" y="0.0" type="line"/>
      <point x="792.5" y="0.0" type="line"/>
      <point x="792.5" y="75.0" type="line"/>
      <point x="153.5" y="75.0" type="line"/>
      <point x="170.0" y="61.0" type="line"/>
      <point x="803.0" y="917.0" type="line"/>
      <point x="812.0" y="928.0"/>
      <point x="817.5" y="941.0"/>
      <point x="817.5" y="955.0" type="curve" smooth="yes"/>
    </contour>
  </outline>
</glyph>
<glyph name="braceleft" format="2">
  <advance width="590"/>
  <unicode hex="007B"/>
  <outline>
    <contour>
      <point x="237.5" y="808" type="curve" smooth="yes" name="n00"/>
      <point x="237.5" y="719.5"/>
      <point x="175.5" y="656.5"/>
      <point x="82" y="656.5" type="curve"/>
      <point x="82" y="596.5" type="line"/>
      <point x="131.5" y="622" type="line"/>
      <point x="222" y="622"/>
      <point x="319.5" y="692.5"/>
      <point x="319.5" y="809" type="curve" smooth="yes" name="n08"/>
      <point x="319.5" y="951"/>
      <point x="261.5" y="1086.5"/>
      <point x="261.5" y="1237" type="curve" smooth="yes" name="n11"/>
      <point x="261.5" y="1368.5"/>
      <point x="341.5" y="1452.5"/>
      <point x="455.5" y="1452.5" type="curve" smooth="yes" name="n14"/>
      <point x="488.5" y="1452.5" type="line" smooth="yes"/>
      <point x="500" y="1452.5"/>
      <point x="513.5" y="1460"/>
      <point x="513.5" y="1475.5" type="curve" smooth="yes"/>
      <point x="513.5" y="1516.5" type="line"/>
      <point x="458.5" y="1516.5" type="line" smooth="yes" name="n20"/>
      <point x="281.5" y="1516.5"/>
      <point x="177.5" y="1395"/>
      <point x="177.5" y="1232" type="curve" smooth="yes" name="n23"/>
      <point x="177.5" y="1083"/>
      <point x="237.5" y="954"/>
    </contour>
    <contour>
      <point x="237.5" y="445" type="curve" smooth="yes"/>
      <point x="237.5" y="299"/>
      <point x="177.5" y="170"/>
      <point x="177.5" y="21" type="curve" smooth="yes"/>
      <point x="177.5" y="-142"/>
      <point x="281.5" y="-263.5"/>
      <point x="458.5" y="-263.5" type="curve" smooth="yes" name="n32"/>
      <point x="513.5" y="-263.5" type="line"/>
      <point x="513.5" y="-222.5" type="line" smooth="yes"/>
      <point x="513.5" y="-207"/>
      <point x="500" y="-199.5"/>
      <point x="488.5" y="-199.5" type="curve" smooth="yes"/>
      <point x="455.5" y="-199.5" type="line" smooth="yes" name="n38"/>
      <point x="341.5" y="-199.5"/>
      <point x="261.5" y="-115.5"/>
      <point x="261.5" y="16" type="curve" smooth="yes"/>
      <point x="261.5" y="166.5"/>
      <point x="319.5" y="302"/>
      <point x="319.5" y="444" type="curve" smooth="yes"/>
      <point x="319.5" y="560.5"/>
      <point x="222" y="631"/>
      <point x="131.5" y="631" type="curve"/>
      <point x="82" y="656.5" type="line"/>
      <point x="82" y="596.5" type="line"/>
      <point x="175.5" y="596.5"/>
      <point x="237.5" y="533.5"/>
    </contour>
  </outline>
  <guideline angle="0" x="0" y="630"/>
</glyph>
<glyph name="bar" format="2">
  <advance width="477"/>
  <unicode hex="007C"/>
  <outline>
    <contour>
      <point x="201" y="-355.5" type="line" name="n00"/>
      <point x="276" y="-355.5" type="line" name="n01"/>
      <point x="276" y="1516.5" type="line" name="n02"/>
      <point x="201" y="1516.5" type="line"/>
    </contour>
  </outline>
</glyph>
<glyph name="braceright" format="2">
  <advance width="590"/>
  <unicode hex="007D"/>
  <outline>
    <contour>
      <point x="352.75" y="808" type="curve" smooth="yes" name="n00"/>
      <point x="352.75" y="954"/>
      <point x="412.75" y="1083"/>
      <point x="412.75" y="1232" type="curve" smooth="yes" name="n03"/>
      <point x="412.75" y="1395"/>
      <point x="308.75" y="1516.5"/>
      <point x="131.75" y="1516.5" type="curve" smooth="yes" name="n06"/>
      <point x="76.75" y="1516.5" type="line"/>
      <point x="76.75" y="1475.5" type="line" smooth="yes"/>
      <point x="76.75" y="1460"/>
      <point x="90.25" y="1452.5"/>
      <point x="101.75" y="1452.5" type="curve" smooth="yes"/>
      <point x="134.75" y="1452.5" type="line" smooth="yes" name="n12"/>
      <point x="248.75" y="1452.5"/>
      <point x="328.75" y="1368.5"/>
      <point x="328.75" y="1237" type="curve" smooth="yes" name="n15"/>
      <point x="328.75" y="1086.5"/>
      <point x="270.75" y="951"/>
      <point x="270.75" y="809" type="curve" smooth="yes" name="n18"/>
      <point x="270.75" y="692.5"/>
      <point x="368.25" y="622"/>
      <point x="458.75" y="622" type="curve"/>
      <point x="508.25" y="596.5" type="line"/>
      <point x="508.25" y="656.5" type="line"/>
      <point x="414.75" y="656.5"/>
      <point x="352.75" y="719.5"/>
    </contour>
    <contour>
      <point x="352.75" y="445" type="curve" smooth="yes"/>
      <point x="352.75" y="533.5"/>
      <point x="414.75" y="596.5"/>
      <point x="508.25" y="596.5" type="curve"/>
      <point x="508.25" y="656.5" type="line"/>
      <point x="458.75" y="631" type="line"/>
      <point x="368.25" y="631"/>
      <point x="270.75" y="560.5"/>
      <point x="270.75" y="444" type="curve" smooth="yes"/>
      <point x="270.75" y="302"/>
      <point x="328.75" y="166.5"/>
      <point x="328.75" y="16" type="curve" smooth="yes"/>
      <point x="328.75" y="-115.5"/>
      <point x="248.75" y="-199.5"/>
      <point x="134.75" y="-199.5" type="curve" smooth="yes" name="n40"/>
      <point x="101.75" y="-199.5" type="line" smooth="yes"/>
      <point x="90.25" y="-199.5"/>
      <point x="76.75" y="-207"/>
      <point x="76.75" y="-222.5" type="curve" smooth="yes"/>
      <point x="76.75" y="-263.5" type="line"/>
      <point x="131.75" y="-263.5" type="line" smooth="yes" name="n46"/>
      <point x="308.75" y="-263.5"/>
      <point x="412.75" y="-142"/>
      <point x="412.75" y="21" type="curve" smooth="yes"/>
      <point x="412.75" y="170"/>
      <point x="352.75" y="299"/>
    </contour>
  </outline>
  <guideline angle="0" x="0" y="630"/>
</glyph>
<glyph name="asciitilde" format="2">
  <advance width="1160.0"/>
  <unicode hex="007E"/>
  <outline>
    <contour>
      <point x="782.5" y="567.0" type="curve"/>
      <point x="668.5" y="567.0"/>
      <point x="516.0" y="693.0"/>
      <point x="378.5" y="693.0" type="curve"/>
      <point x="229.0" y="693.0"/>
      <point x="143.0" y="579.5"/>
      <point x="143.0" y="434.5" type="curve"/>
      <point x="220.5" y="434.5" type="line"/>
      <point x="222.0" y="538.0"/>
      <point x="283.5" y="614.0"/>
      <point x="383.5" y="614.0" type="curve" smooth="yes"/>
      <point x="497.5" y="614.0"/>
      <point x="650.0" y="488.0"/>
      <point x="787.5" y="488.0" type="curve"/>
      <point x="937.0" y="488.0"/>
      <point x="1023.0" y="601.5"/>
      <point x="1023.0" y="746.5" type="curve"/>
      <point x="945.5" y="746.5" type="line"/>
      <point x="944.0" y="643.0"/>
      <point x="882.5" y="567.0"/>
    </contour>
  </outline>
</glyph>
<glyph name="exclamdown" format="2">
  <advance width="460"/>
  <unicode hex="00A1"/>
  <outline>
    <contour>
      <point x="277.75" y="-352" type="line" name="n00"/>
      <point x="277.75" y="198" type="line" smooth="yes"/>
      <point x="277.75" y="317"/>
      <point x="272.25" y="405"/>
      <point x="263.25" y="554" type="curve" name="n04"/>
      <point x="198.75" y="554" type="line"/>
      <point x="189.75" y="405"/>
      <point x="184.25" y="317"/>
      <point x="184.25" y="198" type="curve" smooth="yes" name="n08"/>
      <point x="184.25" y="-352" type="line"/>
    </contour>
    <contour>
      <point x="135.25" y="919" type="curve" smooth="yes" name="n10"/>
      <point x="135.25" y="867.5"/>
      <point x="175.25" y="825.5"/>
      <point x="227.25" y="825.5" type="curve" smooth="yes" name="n13"/>
      <point x="278.75" y="825.5"/>
      <point x="320.75" y="867.5"/>
      <point x="320.75" y="919" type="curve" smooth="yes" name="n16"/>
      <point x="320.75" y="971"/>
      <point x="278.75" y="1011"/>
      <point x="227.25" y="1011" type="curve" smooth="yes" name="n19"/>
      <point x="175.25" y="1011"/>
      <point x="135.25" y="971"/>
    </contour>
  </outline>
  <guideline angle="90" x="342" y="0"/>
</glyph>
<glyph name="cent" format="2">
  <advance width="1160"/>
  <unicode hex="00A2"/>
  <outline>
    <contour>
      <point x="985.5" y="895.5" type="line"/>
      <point x="905.5" y="965.5"/>
      <point x="797" y="1010.5"/>
      <point x="656.5" y="1010.5" type="curve" smooth="yes" name="n03"/>
      <point x="344.5" y="1010.5"/>
      <point x="165" y="800.5"/>
      <point x="165" y="497.5" type="curve" smooth="yes" name="n06"/>
      <point x="165" y="175.5"/>
      <point x="356" y="-13"/>
      <point x="632.5" y="-13" type="curve" smooth="yes" name="n09"/>
      <point x="798" y="-13"/>
      <point x="938" y="47.5"/>
      <point x="1001.5" y="127.5" type="curve"/>
      <point x="977" y="158.5" type="line" smooth="yes"/>
      <point x="972.5" y="164"/>
      <point x="966" y="168"/>
      <point x="957" y="168" type="curve" smooth="yes"/>
      <point x="927" y="168"/>
      <point x="858.5" y="60.5"/>
      <point x="644" y="60.5" type="curve" smooth="yes" name="n19"/>
      <point x="410" y="60.5"/>
      <point x="259.5" y="217.5"/>
      <point x="259.5" y="497.5" type="curve" smooth="yes" name="n22"/>
      <point x="259.5" y="768.5"/>
      <point x="403.5" y="937"/>
      <point x="659" y="937" type="curve" smooth="yes" name="n25"/>
      <point x="843.5" y="937"/>
      <point x="913" y="851.5"/>
      <point x="939.5" y="851.5" type="curve" smooth="yes"/>
      <point x="950.5" y="851.5"/>
      <point x="955.5" y="856"/>
      <point x="961" y="863.5" type="curve" smooth="yes"/>
    </contour>
    <contour>
      <point x="583.5" y="-253" type="line" name="n32"/>
      <point x="619.5" y="-253" type="line" smooth="yes"/>
      <point x="637" y="-253"/>
      <point x="648" y="-239"/>
      <point x="649" y="-222" type="curve" smooth="yes"/>
      <point x="722" y="1247.5" type="line" name="n37"/>
      <point x="686" y="1247.5" type="line" smooth="yes"/>
      <point x="668.5" y="1247.5"/>
      <point x="657.5" y="1233.5"/>
      <point x="656.5" y="1216.5" type="curve" smooth="yes"/>
    </contour>
  </outline>
</glyph>
<glyph name="sterling" format="2">
  <advance width="1160"/>
  <unicode hex="00A3"/>
  <outline>
    <contour>
      <point x="1098.75" y="83" type="line"/>
      <point x="311.75" y="83" type="line" smooth="yes"/>
      <point x="251.75" y="83"/>
      <point x="197.75" y="71.5"/>
      <point x="137.25" y="53" type="curve"/>
      <point x="84.75" y="65" type="line" name="n05"/>
      <point x="84.75" y="0" type="line" name="n06"/>
      <point x="1055.25" y="0" type="line" smooth="yes"/>
      <point x="1081.25" y="0"/>
      <point x="1098.75" y="22.5"/>
      <point x="1098.75" y="42.5" type="curve" smooth="yes"/>
    </contour>
    <contour>
      <point x="164.25" y="39" type="line"/>
      <point x="280.75" y="99"/>
      <point x="359.25" y="184"/>
      <point x="359.25" y="327.5" type="curve" smooth="yes"/>
      <point x="359.25" y="993" type="line" smooth="yes" name="n15"/>
      <point x="359.25" y="1204"/>
      <point x="466.75" y="1348.5"/>
      <point x="673.75" y="1348.5" type="curve" smooth="yes" name="n18"/>
      <point x="833.75" y="1348.5"/>
      <point x="895.25" y="1269.5"/>
      <point x="946.75" y="1185" type="curve"/>
      <point x="962.25" y="1165.5"/>
      <point x="978.75" y="1164"/>
      <point x="998.75" y="1173" type="curve"/>
      <point x="1037.25" y="1195" type="line"/>
      <point x="979.25" y="1323.5"/>
      <point x="876.25" y="1429.5"/>
      <point x="673.75" y="1429.5" type="curve" smooth="yes" name="n28"/>
      <point x="400.75" y="1429.5"/>
      <point x="261.75" y="1240.5"/>
      <point x="261.75" y="992.5" type="curve" smooth="yes" name="n31"/>
      <point x="261.75" y="306" type="line" smooth="yes"/>
      <point x="261.75" y="166.5"/>
      <point x="177.25" y="100.5"/>
      <point x="84.75" y="65" type="curve"/>
    </contour>
    <contour>
      <point x="60.75" y="632.5" type="line"/>
      <point x="807.75" y="632.5" type="line" smooth="yes" name="n37"/>
      <point x="824.75" y="632.5"/>
      <point x="838.25" y="645.5"/>
      <point x="838.25" y="660" type="curve" smooth="yes"/>
      <point x="838.25" y="698.5" type="line" name="n41"/>
      <point x="96.75" y="698.5" type="line" smooth="yes"/>
      <point x="75.25" y="698.5"/>
      <point x="60.75" y="683.5"/>
      <point x="60.75" y="663.5" type="curve" smooth="yes"/>
    </contour>
  </outline>
</glyph>
<glyph name="currency" format="2">
  <advance width="1160"/>
  <unicode hex="00A4"/>
  <outline>
    <contour>
      <point x="237.5" y="671" type="curve" smooth="yes" name="n00"/>
      <point x="237.5" y="481.5"/>
      <point x="390.5" y="328.5"/>
      <point x="580" y="328.5" type="curve" smooth="yes" name="n03"/>
      <point x="770.5" y="328.5"/>
      <point x="924" y="481.5"/>
      <point x="924" y="671" type="curve" smooth="yes" name="n06"/>
      <point x="924" y="862"/>
      <point x="770.5" y="1015"/>
      <point x="580" y="1015" type="curve" smooth="yes" name="n09"/>
      <point x="390.5" y="1015"/>
      <point x="237.5" y="862"/>
    </contour>
    <contour>
      <point x="309.5" y="671" type="curve" smooth="yes" name="n12"/>
      <point x="309.5" y="821.5"/>
      <point x="431.5" y="943.5"/>
      <point x="580" y="943.5" type="curve" smooth="yes" name="n15"/>
      <point x="730.5" y="943.5"/>
      <point x="852.5" y="821.5"/>
      <point x="852.5" y="671" type="curve" smooth="yes" name="n18"/>
      <point x="852.5" y="523"/>
      <point x="730.5" y="400.5"/>
      <point x="580" y="400.5" type="curve" smooth="yes" name="n21"/>
      <point x="431.5" y="400.5"/>
      <point x="309.5" y="523"/>
    </contour>
    <contour>
      <point x="338.5" y="862" type="line"/>
      <point x="388" y="911" type="line"/>
      <point x="208.5" y="1090.5" type="line" name="n26"/>
      <point x="159" y="1041.5" type="line"/>
    </contour>
    <contour>
      <point x="771" y="912.5" type="line"/>
      <point x="820" y="863" type="line"/>
      <point x="999.5" y="1042.5" type="line"/>
      <point x="950.5" y="1092" type="line"/>
    </contour>
    <contour>
      <point x="389.5" y="429.5" type="line"/>
      <point x="340" y="479" type="line"/>
      <point x="160.5" y="299.5" type="line"/>
      <point x="209.5" y="250" type="line" name="n35"/>
    </contour>
    <contour>
      <point x="821.5" y="480.5" type="line"/>
      <point x="772" y="431" type="line"/>
      <point x="951.5" y="251.5" type="line"/>
      <point x="1001" y="301" type="line"/>
    </contour>
  </outline>
</glyph>
<glyph name="yen" format="2">
  <advance width="1160"/>
  <unicode hex="00A5"/>
  <outline>
    <contour>
      <point x="1069.75" y="1415" type="line" name="n00"/>
      <point x="989.75" y="1415" type="line" smooth="yes"/>
      <point x="971.25" y="1415"/>
      <point x="958.75" y="1404"/>
      <point x="951.75" y="1390" type="curve" smooth="yes"/>
      <point x="606.25" y="725" type="line"/>
      <point x="583.75" y="671.5"/>
      <point x="574.25" y="636.5"/>
      <point x="568.25" y="575" type="curve"/>
      <point x="625.75" y="575" type="line"/>
    </contour>
    <contour>
      <point x="534.25" y="575" type="line"/>
      <point x="593.75" y="575" type="line"/>
      <point x="588.25" y="637"/>
      <point x="577.25" y="671"/>
      <point x="554.25" y="725" type="curve"/>
      <point x="208.25" y="1390" type="line"/>
      <point x="200.75" y="1406"/>
      <point x="188.75" y="1415"/>
      <point x="169.75" y="1415" type="curve" smooth="yes"/>
      <point x="90.25" y="1415" type="line"/>
    </contour>
    <contour>
      <point x="627.75" y="608.5" type="line" name="n20"/>
      <point x="532.25" y="608.5" type="line" name="n21"/>
      <point x="532.25" y="0" type="line" name="n22"/>
      <point x="627.75" y="0" type="line"/>
    </contour>
    <contour>
      <point x="166.25" y="382.5" type="line" name="n24"/>
      <point x="993.75" y="382.5" type="line"/>
      <point x="993.75" y="440.5" type="line"/>
      <point x="166.25" y="440.5" type="line" name="n27"/>
    </contour>
    <contour>
      <point x="166.25" y="558" type="line" name="n28"/>
      <point x="993.75" y="558" type="line"/>
      <point x="993.75" y="616" type="line"/>
      <point x="166.25" y="616" type="line" name="n31"/>
    </contour>
  </outline>
</glyph>
<glyph name="brokenbar" format="2">
  <advance width="483.0"/>
  <unicode hex="00A6"/>
  <outline>
    <contour>
      <point x="204.0" y="739.5" type="line"/>
      <point x="279.0" y="739.5" type="line"/>
      <point x="279.0" y="1516.5" type="line"/>
      <point x="204.0" y="1516.5" type="line"/>
    </contour>
    <contour>
      <point x="204.0" y="-352.0" type="line"/>
      <point x="279.0" y="-352.0" type="line"/>
      <point x="279.0" y="425.0" type="line"/>
      <point x="204.0" y="425.0" type="line"/>
    </contour>
  </outline>
</glyph>
<glyph name="section" format="2">
  <advance width="970"/>
  <unicode hex="00A7"/>
  <outline>
    <contour>
      <point x="391" y="973.5" type="line"/>
      <point x="195" y="931.5"/>
      <point x="116" y="833.5"/>
      <point x="116" y="714" type="curve" smooth="yes" name="n03"/>
      <point x="116" y="390.5"/>
      <point x="723" y="435"/>
      <point x="723" y="161" type="curve" smooth="yes" name="n06"/>
      <point x="723" y="35.5"/>
      <point x="630.5" y="-61.5"/>
      <point x="465" y="-61.5" type="curve" smooth="yes" name="n09"/>
      <point x="284" y="-61.5"/>
      <point x="227" y="39.5" name="n11"/>
      <point x="192.5" y="39.5" type="curve" smooth="yes"/>
      <point x="178.5" y="39.5"/>
      <point x="171" y="34"/>
      <point x="164" y="24" type="curve"/>
      <point x="141.5" y="-10.5" type="line"/>
      <point x="221.5" y="-82.5"/>
      <point x="318" y="-131"/>
      <point x="458" y="-131" type="curve" smooth="yes" name="n19"/>
      <point x="680.5" y="-131"/>
      <point x="807" y="3.5"/>
      <point x="807" y="175.5" type="curve" smooth="yes" name="n22"/>
      <point x="807" y="498"/>
      <point x="201" y="471"/>
      <point x="201" y="727" type="curve" smooth="yes" name="n25"/>
      <point x="201" y="814"/>
      <point x="253.5" y="879.5"/>
      <point x="396" y="932" type="curve"/>
    </contour>
    <contour>
      <point x="806" y="1324.5" type="line"/>
      <point x="728.5" y="1395"/>
      <point x="635.5" y="1430.5"/>
      <point x="515.5" y="1430.5" type="curve" smooth="yes" name="n32"/>
      <point x="313.5" y="1430.5"/>
      <point x="186.5" y="1303.5"/>
      <point x="186.5" y="1161.5" type="curve" smooth="yes" name="n35"/>
      <point x="186.5" y="835"/>
      <point x="768" y="889.5"/>
      <point x="768" y="602" type="curve" smooth="yes" name="n38"/>
      <point x="768" y="513"/>
      <point x="720.5" y="443"/>
      <point x="604.5" y="400.5" type="curve"/>
      <point x="611" y="358" type="line"/>
      <point x="770.5" y="394"/>
      <point x="852" y="489.5"/>
      <point x="852" y="621.5" type="curve" smooth="yes" name="n45"/>
      <point x="852" y="952.5"/>
      <point x="271.5" y="920"/>
      <point x="271.5" y="1165" type="curve" smooth="yes" name="n48"/>
      <point x="271.5" y="1268"/>
      <point x="368.5" y="1358.5"/>
      <point x="517" y="1358.5" type="curve" smooth="yes" name="n51"/>
      <point x="676.5" y="1358.5"/>
      <point x="733.5" y="1278"/>
      <point x="763" y="1278" type="curve" smooth="yes"/>
      <point x="773" y="1278"/>
      <point x="780" y="1282"/>
      <point x="785.5" y="1291.5" type="curve"/>
    </contour>
  </outline>
</glyph>
<glyph name="dieresis" format="2">
  <advance width="800"/>
  <unicode hex="00A8"/>
  <anchor x="400" y="1120" name="_top"/>
  <anchor x="400" y="1414.25" name="top"/>
  <outline>
    <contour>
      <point x="306" y="1284" type="curve" smooth="yes"/>
      <point x="306" y="1329"/>
      <point x="266.5" y="1367"/>
      <point x="223" y="1367" type="curve" smooth="yes" name="n03"/>
      <point x="179.5" y="1367"/>
      <point x="141.5" y="1329"/>
      <point x="141.5" y="1284" type="curve" smooth="yes"/>
      <point x="141.5" y="1241"/>
      <point x="179.5" y="1204"/>
      <point x="223" y="1204" type="curve" smooth="yes" name="n09"/>
      <point x="266.5" y="1204"/>
      <point x="306" y="1241"/>
    </contour>
    <contour>
      <point x="658.5" y="1284" type="curve" smooth="yes"/>
      <point x="658.5" y="1329"/>
      <point x="619.5" y="1367"/>
      <point x="576" y="1367" type="curve" smooth="yes"/>
      <point x="531.5" y="1367"/>
      <point x="494" y="1329"/>
      <point x="494" y="1284" type="curve" smooth="yes"/>
      <point x="494" y="1241"/>
      <point x="531.5" y="1204"/>
      <point x="576" y="1204" type="curve" smooth="yes"/>
      <point x="619.5" y="1204"/>
      <point x="658.5" y="1241"/>
    </contour>
  </outline>
</glyph>
<glyph name="copyright" format="2">
  <advance width="1682.0"/>
  <unicode hex="00A9"/>
  <outline>
    <contour>
      <point x="1132.25" y="425.5" type="curve"/>
      <point x="1057.75" y="373.0"/>
      <point x="997.75" y="331.0"/>
      <point x="852.25" y="331.0" type="curve" smooth="yes"/>
      <point x="648.75" y="331.0"/>
      <point x="499.25" y="470.0"/>
      <point x="499.25" y="708.5" type="curve" smooth="yes"/>
      <point x="499.25" y="941.5"/>
      <point x="647.25" y="1087.5"/>
      <point x="868.25" y="1087.5" type="curve" smooth="yes"/>
      <point x="1049.25" y="1087.5"/>
      <point x="1102.75" y="1004.5"/>
      <point x="1128.25" y="1004.5" type="curve" smooth="yes"/>
      <point x="1137.75" y="1004.5"/>
      <point x="1144.75" y="1009.0"/>
      <point x="1148.75" y="1015.0" type="curve"/>
      <point x="1172.25" y="1048.0" type="line"/>
      <point x="1090.75" y="1119.0"/>
      <point x="1004.25" y="1160.0"/>
      <point x="864.25" y="1160.0" type="curve" smooth="yes"/>
      <point x="600.25" y="1160.0"/>
      <point x="412.75" y="976.0"/>
      <point x="412.75" y="708.5" type="curve" smooth="yes"/>
      <point x="412.75" y="438.0"/>
      <point x="591.75" y="258.0"/>
      <point x="848.25" y="258.0" type="curve" smooth="yes"/>
      <point x="1003.25" y="258.0"/>
      <point x="1105.25" y="308.5"/>
      <point x="1183.25" y="386.5" type="curve"/>
      <point x="1148.75" y="421.5" type="line"/>
      <point x="1144.75" y="424.5"/>
      <point x="1139.25" y="427.0"/>
    </contour>
    <contour>
      <point x="119.25" y="707.5" type="curve" smooth="yes"/>
      <point x="119.25" y="309.5"/>
      <point x="442.75" y="-14.0"/>
      <point x="840.75" y="-14.0" type="curve" smooth="yes"/>
      <point x="1239.25" y="-14.0"/>
      <point x="1562.75" y="309.5"/>
      <point x="1562.75" y="707.5" type="curve" smooth="yes"/>
      <point x="1562.75" y="1106.0"/>
      <point x="1239.25" y="1429.5"/>
      <point x="840.75" y="1429.5" type="curve" smooth="yes"/>
      <point x="442.75" y="1429.5"/>
      <point x="119.25" y="1106.0"/>
    </contour>
    <contour>
      <point x="178.75" y="707.5" type="curve" smooth="yes"/>
      <point x="178.75" y="1078.5"/>
      <point x="472.75" y="1377.5"/>
      <point x="840.75" y="1377.5" type="curve" smooth="yes"/>
      <point x="1209.25" y="1377.5"/>
      <point x="1505.75" y="1078.5"/>
      <point x="1505.75" y="707.5" type="curve" smooth="yes"/>
      <point x="1505.75" y="337.0"/>
      <point x="1209.25" y="40.5"/>
      <point x="840.75" y="40.5" type="curve" smooth="yes"/>
      <point x="472.75" y="40.5"/>
      <point x="178.75" y="337.0"/>
    </contour>
  </outline>
</glyph>
<glyph name="ordfeminine" format="2">
  <advance width="736"/>
  <unicode hex="00AA"/>
  <anchor x="367.75" y="-70" name="bottom"/>
  <outline>
    <contour>
      <point x="582" y="1215" type="curve"/>
      <point x="582" y="1345"/>
      <point x="511.5" y="1429.5"/>
      <point x="377.5" y="1429.5" type="curve" smooth="yes" name="n03"/>
      <point x="288.5" y="1429.5"/>
      <point x="219" y="1399.5"/>
      <point x="156" y="1337" type="curve"/>
      <point x="168.5" y="1314.5" type="line"/>
      <point x="173.5" y="1308"/>
      <point x="180" y="1301"/>
      <point x="190.5" y="1301" type="curve" smooth="yes"/>
      <point x="219" y="1301"/>
      <point x="256" y="1370"/>
      <point x="370.5" y="1370" type="curve" smooth="yes" name="n13"/>
      <point x="467" y="1370"/>
      <point x="511.5" y="1316.5"/>
      <point x="511.5" y="1215" type="curve"/>
      <point x="511.5" y="1215"/>
      <point x="582" y="1215"/>
    </contour>
    <contour>
      <point x="582" y="839" type="line"/>
      <point x="582" y="1215" type="line"/>
      <point x="511.5" y="1215" type="line"/>
      <point x="511.5" y="950" type="line"/>
      <point x="524" y="857.5" type="line" name="n23"/>
      <point x="530" y="842.5"/>
      <point x="535.5" y="839"/>
      <point x="550" y="839" type="curve" smooth="yes"/>
    </contour>
    <contour>
      <point x="530.5" y="941" type="curve"/>
      <point x="530.5" y="941"/>
      <point x="520" y="985"/>
      <point x="520" y="985" type="curve" name="n30"/>
      <point x="462" y="927"/>
      <point x="403.5" y="882.5"/>
      <point x="309.5" y="882.5" type="curve" smooth="yes" name="n33"/>
      <point x="248.5" y="882.5"/>
      <point x="192.5" y="911.5"/>
      <point x="192.5" y="984.5" type="curve" smooth="yes" name="n36"/>
      <point x="192.5" y="1061"/>
      <point x="290.5" y="1109"/>
      <point x="521" y="1115" type="curve" name="n39"/>
      <point x="513.5" y="1163.5" type="line" name="n40"/>
      <point x="232" y="1159"/>
      <point x="123" y="1078"/>
      <point x="123" y="980.5" type="curve" smooth="yes" name="n43"/>
      <point x="123" y="876"/>
      <point x="203" y="829.5"/>
      <point x="290" y="829.5" type="curve" smooth="yes" name="n46"/>
      <point x="395" y="829.5"/>
      <point x="457.5" y="870.5"/>
    </contour>
  </outline>
</glyph>
<glyph name="logicalnot" format="2">
  <advance width="1160.0"/>
  <unicode hex="00AC"/>
  <outline>
    <contour>
      <point x="166.75" y="634.0" type="line"/>
      <point x="995.75" y="634.0" type="line"/>
      <point x="995.75" y="707.0" type="line"/>
      <point x="166.75" y="707.0" type="line"/>
    </contour>
    <contour>
      <point x="913.75" y="339.5" type="line"/>
      <point x="995.75" y="339.5" type="line"/>
      <point x="995.75" y="707.0" type="line"/>
      <point x="913.75" y="707.0" type="line"/>
    </contour>
  </outline>
</glyph>
<glyph name="registered" format="2">
  <advance width="1682.0"/>
  <unicode hex="00AE"/>
  <outline>
    <contour>
      <point x="768.25" y="657.5" type="line" smooth="yes"/>
      <point x="804.75" y="657.5"/>
      <point x="817.25" y="647.5"/>
      <point x="828.25" y="633.0" type="curve" smooth="yes"/>
      <point x="1098.75" y="281.5" type="line"/>
      <point x="1106.75" y="269.0"/>
      <point x="1116.25" y="265.5"/>
      <point x="1129.75" y="265.5" type="curve" smooth="yes"/>
      <point x="1209.25" y="265.5" type="line"/>
      <point x="924.25" y="634.0" type="line" smooth="yes"/>
      <point x="898.25" y="673.0"/>
      <point x="873.25" y="690.0"/>
      <point x="811.75" y="690.0" type="curve"/>
      <point x="793.75" y="670.0" type="line"/>
      <point x="816.25" y="670.0" type="line" smooth="yes"/>
      <point x="1012.75" y="670.0"/>
      <point x="1130.25" y="768.5"/>
      <point x="1130.25" y="918.5" type="curve" smooth="yes"/>
      <point x="1130.25" y="1074.0"/>
      <point x="1023.75" y="1151.0"/>
      <point x="820.25" y="1151.0" type="curve" smooth="yes"/>
      <point x="573.25" y="1151.0" type="line"/>
      <point x="573.25" y="265.5" type="line"/>
      <point x="658.25" y="265.5" type="line"/>
      <point x="658.25" y="1085.0" type="line"/>
      <point x="820.25" y="1085.0" type="line" smooth="yes"/>
      <point x="977.75" y="1085.0"/>
      <point x="1046.25" y="1031.0"/>
      <point x="1046.25" y="909.5" type="curve" smooth="yes"/>
      <point x="1046.25" y="788.5"/>
      <point x="967.25" y="720.5"/>
      <point x="806.25" y="720.5" type="curve" smooth="yes"/>
      <point x="628.75" y="720.5" type="line"/>
      <point x="626.75" y="657.5" type="line"/>
    </contour>
    <contour>
      <point x="119.25" y="707.5" type="curve" smooth="yes"/>
      <point x="119.25" y="309.5"/>
      <point x="442.75" y="-14.0"/>
      <point x="840.75" y="-14.0" type="curve" smooth="yes"/>
      <point x="1239.25" y="-14.0"/>
      <point x="1562.75" y="309.5"/>
      <point x="1562.75" y="707.5" type="curve" smooth="yes"/>
      <point x="1562.75" y="1106.0"/>
      <point x="1239.25" y="1429.5"/>
      <point x="840.75" y="1429.5" type="curve" smooth="yes"/>
      <point x="442.75" y="1429.5"/>
      <point x="119.25" y="1106.0"/>
    </contour>
    <contour>
      <point x="178.75" y="707.5" type="curve" smooth="yes"/>
      <point x="178.75" y="1078.5"/>
      <point x="472.75" y="1377.5"/>
      <point x="840.75" y="1377.5" type="curve" smooth="yes"/>
      <point x="1209.25" y="1377.5"/>
      <point x="1505.75" y="1078.5"/>
      <point x="1505.75" y="707.5" type="curve" smooth="yes"/>
      <point x="1505.75" y="337.0"/>
      <point x="1209.25" y="40.5"/>
      <point x="840.75" y="40.5" type="curve" smooth="yes"/>
      <point x="472.75" y="40.5"/>
      <point x="178.75" y="337.0"/>
    </contour>
  </outline>
</glyph>
<glyph name="macron" format="2">
  <advance width="800"/>
  <unicode hex="00AF"/>
  <unicode hex="02C9"/>
  <anchor x="400" y="1120" name="_top"/>
  <outline>
    <contour>
      <point x="127.5" y="1252" type="line" name="n00"/>
      <point x="672.5" y="1252" type="line"/>
      <point x="672.5" y="1316.5" type="line"/>
      <point x="127.5" y="1316.5" type="line" name="n03"/>
    </contour>
  </outline>
</glyph>
<glyph name="degree" format="2">
  <advance width="827.5"/>
  <unicode hex="00B0"/>
  <outline>
    <contour>
      <point x="112.5" y="1134.5" type="curve" smooth="yes"/>
      <point x="112.5" y="970.5"/>
      <point x="245.0" y="836.5"/>
      <point x="413.5" y="836.5" type="curve" smooth="yes"/>
      <point x="582.0" y="836.5"/>
      <point x="715.0" y="970.5"/>
      <point x="715.0" y="1134.5" type="curve" smooth="yes"/>
      <point x="715.0" y="1300.0"/>
      <point x="582.0" y="1431.5"/>
      <point x="413.5" y="1431.5" type="curve" smooth="yes"/>
      <point x="245.0" y="1431.5"/>
      <point x="112.5" y="1300.0"/>
    </contour>
    <contour>
      <point x="184.0" y="1134.0" type="curve" smooth="yes"/>
      <point x="184.0" y="1262.5"/>
      <point x="285.0" y="1365.0"/>
      <point x="413.5" y="1365.0" type="curve" smooth="yes"/>
      <point x="542.0" y="1365.0"/>
      <point x="643.0" y="1262.5"/>
      <point x="643.0" y="1134.0" type="curve" smooth="yes"/>
      <point x="643.0" y="1006.0"/>
      <point x="542.0" y="904.0"/>
      <point x="413.5" y="904.0" type="curve" smooth="yes"/>
      <point x="285.0" y="904.0"/>
      <point x="184.0" y="1006.0"/>
    </contour>
  </outline>
</glyph>
<glyph name="plusminus" format="2">
  <advance width="1160.0"/>
  <unicode hex="00B1"/>
  <outline>
    <contour>
      <point x="110.5" y="674.0" type="line"/>
      <point x="1049.5" y="674.0" type="line"/>
      <point x="1049.5" y="747.0" type="line"/>
      <point x="110.5" y="747.0" type="line"/>
    </contour>
    <contour>
      <point x="540.0" y="1152.5" type="line"/>
      <point x="540.0" y="271.5" type="line"/>
      <point x="618.0" y="271.5" type="line"/>
      <point x="618.0" y="1152.5" type="line"/>
    </contour>
    <contour>
      <point x="110.5" y="80.0" type="line"/>
      <point x="1049.5" y="80.0" type="line"/>
      <point x="1049.5" y="153.0" type="line"/>
      <point x="110.5" y="153.0" type="line"/>
    </contour>
  </outline>
</glyph>
<glyph name="acute" format="2">
  <advance width="800.0"/>
  <unicode hex="00B4"/>
  <anchor x="400.0" y="1120.0" name="_top"/>
  <outline>
    <contour>
      <point x="530.5" y="1431.0" type="line" smooth="yes"/>
      <point x="498.5" y="1431.0"/>
      <point x="486.0" y="1422.5"/>
      <point x="471.5" y="1399.0" type="curve" smooth="yes"/>
      <point x="314.5" y="1160.5" type="line"/>
      <point x="371.5" y="1160.5" type="line" smooth="yes"/>
      <point x="387.5" y="1160.5"/>
      <point x="398.0" y="1165.0"/>
      <point x="408.5" y="1177.5" type="curve"/>
      <point x="625.0" y="1431.0" type="line"/>
    </contour>
  </outline>
</glyph>
<glyph name="micro" format="2">
  <advance width="1273"/>
  <unicode hex="00B5"/>
  <anchor x="679" y="-421" name="bottom"/>
  <anchor x="591" y="1120" name="top"/>
  <outline>
    <contour>
      <point x="199.5" y="995" type="line" name="n00"/>
      <point x="199.5" y="-310.5" type="line" smooth="yes"/>
      <point x="199.5" y="-336"/>
      <point x="215" y="-352" name="n03"/>
      <point x="242.5" y="-352" type="curve" smooth="yes"/>
      <point x="290" y="-352" type="line"/>
      <point x="290" y="-24" type="line" smooth="yes"/>
      <point x="290" y="49.5"/>
      <point x="285.5" y="154.5"/>
      <point x="272.5" y="223" type="curve"/>
      <point x="295" y="251" type="line"/>
      <point x="295" y="995" type="line"/>
    </contour>
    <contour>
      <point x="238" y="374" type="line" name="n12"/>
      <point x="238" y="135"/>
      <point x="334.25" y="-6" name="n14"/>
      <point x="549.5" y="-6" type="curve" smooth="yes"/>
      <point x="705.5" y="-6"/>
      <point x="836" y="88.75"/>
      <point x="923.75" y="241" type="curve"/>
      <point x="897.25" y="301" type="line"/>
      <point x="816.75" y="158"/>
      <point x="698.75" y="72.5"/>
      <point x="554.5" y="72.5" type="curve" smooth="yes"/>
      <point x="379" y="72.5"/>
      <point x="295" y="186.5"/>
      <point x="295" y="374" type="curve" name="n25"/>
    </contour>
    <contour>
      <point x="886.75" y="250" type="line"/>
      <point x="895.75" y="238.25" type="line"/>
      <point x="896.25" y="65"/>
      <point x="1001.25" y="-8.75"/>
      <point x="1121.5" y="-8.75" type="curve" smooth="yes" name="n30"/>
      <point x="1173.5" y="-8.75"/>
      <point x="1201" y="8"/>
      <point x="1201" y="25" type="curve" smooth="yes"/>
      <point x="1201" y="63.5" type="line"/>
      <point x="1158.75" y="63.5" type="line" smooth="yes" name="n35"/>
      <point x="1054.25" y="63.5"/>
      <point x="982.25" y="117"/>
      <point x="982.25" y="238" type="curve" smooth="yes"/>
      <point x="982.25" y="995" type="line" name="n39"/>
      <point x="886.75" y="995" type="line" name="n40"/>
    </contour>
  </outline>
</glyph>
<glyph name="paragraph" format="2">
  <advance width="1313.5"/>
  <unicode hex="00B6"/>
  <outline>
    <contour>
      <point x="604.5" y="1415.0" type="line"/>
      <point x="519.0" y="1415.0" type="line"/>
      <point x="519.0" y="-189.5" type="line"/>
      <point x="604.5" y="-189.5" type="line"/>
    </contour>
    <contour>
      <point x="519.0" y="1415.0" type="line"/>
      <point x="244.0" y="1415.0"/>
      <point x="76.5" y="1277.0"/>
      <point x="76.5" y="1063.5" type="curve" smooth="yes"/>
      <point x="76.5" y="857.5"/>
      <point x="244.0" y="699.0"/>
      <point x="519.0" y="699.0" type="curve"/>
      <point x="545.5" y="1333.0" type="line"/>
      <point x="1243.0" y="1333.0" type="line"/>
      <point x="1243.0" y="1415.0" type="line"/>
    </contour>
    <contour>
      <point x="1018.0" y="1415.0" type="line"/>
      <point x="932.5" y="1415.0" type="line"/>
      <point x="932.5" y="-189.5" type="line"/>
      <point x="1018.0" y="-189.5" type="line"/>
    </contour>
  </outline>
</glyph>
<glyph name="cedilla" format="2">
  <advance width="800"/>
  <unicode hex="00B8"/>
  <anchor x="400" y="-70" name="_bottom"/>
  <outline>
    <contour>
      <point x="284.25" y="-276" type="curve" smooth="yes"/>
      <point x="276.25" y="-276"/>
      <point x="272.25" y="-280"/>
      <point x="268.25" y="-287.5" type="curve"/>
      <point x="258.25" y="-315" type="line"/>
      <point x="293.25" y="-340"/>
      <point x="349.25" y="-357.5"/>
      <point x="403.25" y="-357.5" type="curve" smooth="yes" name="n07"/>
      <point x="510.75" y="-357.5"/>
      <point x="587.25" y="-309.5"/>
      <point x="587.25" y="-229" type="curve" smooth="yes" name="n10"/>
      <point x="587.25" y="-145"/>
      <point x="512.75" y="-109"/>
      <point x="374.75" y="-89" type="curve"/>
      <point x="399.25" y="-108.5" type="line"/>
      <point x="435.5" y="11.5" type="line" name="n15"/>
      <point x="379" y="11.5" type="line"/>
      <point x="332.75" y="-131" type="line"/>
      <point x="436.75" y="-143.5"/>
      <point x="510.25" y="-161"/>
      <point x="510.25" y="-229" type="curve" smooth="yes" name="n20"/>
      <point x="510.25" y="-278.5"/>
      <point x="470.75" y="-310.5"/>
      <point x="402.25" y="-310.5" type="curve" smooth="yes" name="n23"/>
      <point x="326.25" y="-310.5"/>
      <point x="298.25" y="-276"/>
    </contour>
  </outline>
</glyph>
<glyph name="ordmasculine" format="2">
  <advance width="808.5"/>
  <unicode hex="00BA"/>
  <anchor x="404.25" y="-70.0" name="bottom"/>
  <outline>
    <contour>
      <point x="405.5" y="1429.0" type="curve" smooth="yes"/>
      <point x="226.0" y="1429.0"/>
      <point x="118.0" y="1311.5"/>
      <point x="118.0" y="1128.0" type="curve" smooth="yes"/>
      <point x="118.0" y="943.5"/>
      <point x="226.0" y="827.0"/>
      <point x="405.5" y="827.0" type="curve" smooth="yes"/>
      <point x="583.0" y="827.0"/>
      <point x="690.5" y="943.5"/>
      <point x="690.5" y="1128.0" type="curve" smooth="yes"/>
      <point x="690.5" y="1311.5"/>
      <point x="583.0" y="1429.0"/>
    </contour>
    <contour>
      <point x="405.5" y="884.5" type="curve" smooth="yes"/>
      <point x="264.0" y="884.5"/>
      <point x="193.5" y="977.0"/>
      <point x="193.5" y="1127.5" type="curve" smooth="yes"/>
      <point x="193.5" y="1278.0"/>
      <point x="264.0" y="1371.5"/>
      <point x="405.5" y="1371.5" type="curve" smooth="yes"/>
      <point x="544.0" y="1371.5"/>
      <point x="615.0" y="1278.0"/>
      <point x="615.0" y="1127.5" type="curve" smooth="yes"/>
      <point x="615.0" y="977.0"/>
      <point x="544.0" y="884.5"/>
    </contour>
  </outline>
</glyph>
<glyph name="questiondown" format="2">
  <advance width="844.25"/>
  <unicode hex="00BF"/>
  <outline>
    <contour>
      <point x="736.5" y="-185.0" type="line"/>
      <point x="731.5" y="-177.0"/>
      <point x="724.5" y="-172.5"/>
      <point x="714.5" y="-172.5" type="curve"/>
      <point x="694.5" y="-172.5"/>
      <point x="616.5" y="-285.5"/>
      <point x="440.5" y="-285.5" type="curve" smooth="yes"/>
      <point x="303.5" y="-285.5"/>
      <point x="181.5" y="-199.5"/>
      <point x="181.5" y="-56.5" type="curve"/>
      <point x="181.5" y="212.5"/>
      <point x="510.5" y="212.0"/>
      <point x="503.0" y="383.5" type="curve" smooth="yes"/>
      <point x="497.5" y="554.0" type="line"/>
      <point x="432.5" y="554.0" type="line"/>
      <point x="421.0" y="390.5" type="line"/>
      <point x="411.0" y="251.5"/>
      <point x="91.5" y="239.5"/>
      <point x="91.5" y="-63.5" type="curve" smooth="yes"/>
      <point x="91.5" y="-251.0"/>
      <point x="248.0" y="-363.5"/>
      <point x="433.5" y="-363.5" type="curve" smooth="yes"/>
      <point x="583.0" y="-363.5"/>
      <point x="688.5" y="-296.0"/>
      <point x="761.5" y="-224.0" type="curve"/>
    </contour>
    <component base="period" xOffset="233.5" yOffset="841.0"/>
  </outline>
</glyph>
<glyph name="AE" format="2">
  <advance width="1855"/>
  <unicode hex="00C6"/>
  <anchor x="1263.25" y="1503.25" name="Top"/>
  <anchor x="847.5" y="-70" name="bottom"/>
  <anchor x="1263.25" y="1503.25" name="top"/>
  <outline>
    <contour>
      <point x="10.5" y="0" type="line"/>
      <point x="89.5" y="0" type="line" smooth="yes"/>
      <point x="109" y="0"/>
      <point x="123.25" y="9.25"/>
      <point x="130.75" y="25" type="curve"/>
      <point x="800.5" y="1242" type="line"/>
      <point x="825.5" y="1292"/>
      <point x="845.5" y="1344"/>
      <point x="858.5" y="1415" type="curve"/>
      <point x="792.5" y="1415" type="line"/>
    </contour>
    <contour>
      <point x="315.5" y="438.5" type="line" name="n10"/>
      <point x="1019" y="438.5" type="line"/>
      <point x="1019" y="513.5" type="line"/>
      <point x="315.5" y="513.5" type="line" name="n13"/>
    </contour>
    <contour>
      <point x="926" y="1415" type="line"/>
      <point x="829.5" y="1415" type="line"/>
      <point x="1010" y="0" type="line"/>
      <point x="1106.5" y="0" type="line"/>
    </contour>
    <contour>
      <point x="993" y="757.5" type="line" name="n18"/>
      <point x="993" y="675.5" type="line" name="n19"/>
      <point x="1627" y="675.5" type="line"/>
      <point x="1627" y="757.5" type="line"/>
    </contour>
    <contour>
      <point x="903.5" y="1415" type="line" name="n22"/>
      <point x="903.5" y="1330.5" type="line" name="n23"/>
      <point x="1752" y="1330.5" type="line"/>
      <point x="1752" y="1415" type="line"/>
    </contour>
    <contour>
      <point x="1068" y="84.5" type="line" name="n26"/>
      <point x="1068" y="0" type="line" name="n27"/>
      <point x="1752" y="0" type="line"/>
      <point x="1753.5" y="84.5" type="line"/>
    </contour>
  </outline>
</glyph>
<glyph name="Eth" format="2">
  <advance width="1533"/>
  <unicode hex="00D0"/>
  <anchor x="650.25" y="1503.25" name="Top"/>
  <anchor x="614" y="-70" name="bottom"/>
  <anchor x="650.25" y="1503.25" name="top"/>
  <outline>
    <contour>
      <point x="1414.25" y="707.5" type="curve" smooth="yes" name="n00"/>
      <point x="1414.25" y="1143.5"/>
      <point x="1140.75" y="1415"/>
      <point x="739.25" y="1415" type="curve" smooth="yes" name="n03"/>
      <point x="222.75" y="1415" type="line" name="n04"/>
      <point x="222.75" y="0" type="line"/>
      <point x="739.25" y="0" type="line" smooth="yes" name="n06"/>
      <point x="1140.75" y="0"/>
      <point x="1414.25" y="271"/>
    </contour>
    <contour>
      <point x="1308.25" y="707.5" type="curve" smooth="yes" name="n09"/>
      <point x="1308.25" y="311"/>
      <point x="1079.75" y="83"/>
      <point x="739.25" y="83" type="curve" smooth="yes" name="n12"/>
      <point x="325.75" y="83" type="line"/>
      <point x="325.75" y="1332" type="line" name="n14"/>
      <point x="739.25" y="1332" type="line" smooth="yes" name="n15"/>
      <point x="1079.75" y="1332"/>
      <point x="1308.25" y="1103.5"/>
    </contour>
    <contour>
      <point x="7.25" y="685.5" type="line" name="n18"/>
      <point x="644.75" y="685.5" type="line"/>
      <point x="644.75" y="748.5" type="line"/>
      <point x="7.25" y="748.5" type="line" name="n21"/>
    </contour>
  </outline>
</glyph>
<glyph name="multiply" format="2">
  <advance width="1160.0"/>
  <unicode hex="00D7"/>
  <outline>
    <contour>
      <point x="160.25" y="1038.5" type="line"/>
      <point x="953.75" y="246.5" type="line"/>
      <point x="1005.25" y="298.0" type="line"/>
      <point x="212.75" y="1091.5" type="line"/>
    </contour>
    <contour>
      <point x="947.25" y="1089.5" type="line"/>
      <point x="155.25" y="296.0" type="line"/>
      <point x="206.75" y="244.5" type="line"/>
      <point x="1000.25" y="1036.5" type="line"/>
    </contour>
  </outline>
</glyph>
<glyph name="Oslash" format="2">
  <advance width="1583"/>
  <unicode hex="00D8"/>
  <anchor x="799.75" y="1503.25" name="Top"/>
  <anchor x="679.5" y="-70" name="bottom"/>
  <anchor x="799.75" y="1503.25" name="top"/>
  <outline>
    <contour>
      <point x="1418.5" y="1479.5" type="line" name="n00"/>
      <point x="1363.5" y="1479.5" type="line" smooth="yes"/>
      <point x="1338" y="1479.5"/>
      <point x="1329.5" y="1471"/>
      <point x="1314" y="1450" type="curve" smooth="yes"/>
      <point x="159" y="-105" type="line" name="n05"/>
      <point x="202.5" y="-105" type="line" smooth="yes"/>
      <point x="224.5" y="-105"/>
      <point x="248.5" y="-96"/>
      <point x="265" y="-73.5" type="curve" smooth="yes"/>
    </contour>
    <contour>
      <point x="1466" y="707.5" type="curve" smooth="yes" name="n10"/>
      <point x="1466" y="1143.5"/>
      <point x="1192.5" y="1431"/>
      <point x="791" y="1431" type="curve" smooth="yes" name="n13"/>
      <point x="392.5" y="1431"/>
      <point x="117" y="1142.5"/>
      <point x="117" y="707.5" type="curve" smooth="yes" name="n16"/>
      <point x="117" y="271"/>
      <point x="392.5" y="-14.5"/>
      <point x="791" y="-14.5" type="curve" smooth="yes" name="n19"/>
      <point x="1192.5" y="-14.5"/>
      <point x="1466" y="271"/>
    </contour>
    <contour>
      <point x="1360" y="707.5" type="curve" smooth="yes" name="n22"/>
      <point x="1360" y="311"/>
      <point x="1131.5" y="73.5"/>
      <point x="791" y="73.5" type="curve" smooth="yes" name="n25"/>
      <point x="454.5" y="73.5"/>
      <point x="221.5" y="311"/>
      <point x="221.5" y="707.5" type="curve" smooth="yes" name="n28"/>
      <point x="221.5" y="1103.5"/>
      <point x="454.5" y="1343"/>
      <point x="791" y="1343" type="curve" smooth="yes" name="n31"/>
      <point x="1131.5" y="1343"/>
      <point x="1360" y="1103.5"/>
    </contour>
  </outline>
</glyph>
<glyph name="germandbls" format="2">
  <advance width="1107"/>
  <unicode hex="00DF"/>
  <anchor x="580.5" y="1503.25" name="Top"/>
  <anchor x="534" y="-70" name="bottom"/>
  <anchor x="580.5" y="1503.25" name="top"/>
  <outline>
    <contour>
      <point x="606.5" y="1432.5" type="curve" smooth="yes" name="n00"/>
      <point x="349" y="1432.5"/>
      <point x="164" y="1271.5"/>
      <point x="164" y="1001.5" type="curve" smooth="yes" name="n03"/>
      <point x="164" y="0" type="line" name="n04"/>
      <point x="259.5" y="0" type="line"/>
      <point x="259.5" y="999" type="line" smooth="yes" name="n06"/>
      <point x="259.5" y="1250.5"/>
      <point x="414" y="1361"/>
      <point x="603" y="1361" type="curve" smooth="yes" name="n09"/>
      <point x="799.5" y="1361"/>
      <point x="869" y="1234.5"/>
      <point x="869" y="1152" type="curve" smooth="yes" name="n12"/>
      <point x="869" y="927"/>
      <point x="543" y="898"/>
      <point x="543" y="703.5" type="curve" smooth="yes" name="n15"/>
      <point x="543" y="452.5"/>
      <point x="939.5" y="548"/>
      <point x="939.5" y="278.5" type="curve" smooth="yes" name="n18"/>
      <point x="939.5" y="153"/>
      <point x="849" y="53.5"/>
      <point x="692" y="53.5" type="curve" smooth="yes" name="n21"/>
      <point x="523" y="53.5"/>
      <point x="464.5" y="154.5"/>
      <point x="430" y="154.5" type="curve" smooth="yes"/>
      <point x="416" y="154.5"/>
      <point x="408.5" y="149"/>
      <point x="401.5" y="139" type="curve"/>
      <point x="379" y="104.5" type="line"/>
      <point x="459" y="32.5"/>
      <point x="550.5" y="-16"/>
      <point x="685" y="-16" type="curve" smooth="yes" name="n31"/>
      <point x="890.5" y="-16"/>
      <point x="1028.5" y="111"/>
      <point x="1028.5" y="292.5" type="curve" smooth="yes" name="n34"/>
      <point x="1028.5" y="607"/>
      <point x="641" y="529"/>
      <point x="641" y="719.5" type="curve" smooth="yes" name="n37"/>
      <point x="641" y="869"/>
      <point x="959.5" y="902"/>
      <point x="959.5" y="1151" type="curve" smooth="yes" name="n40"/>
      <point x="959.5" y="1284"/>
      <point x="834.5" y="1432.5"/>
    </contour>
  </outline>
</glyph>
<glyph name="ae" format="2">
  <advance width="1599"/>
  <unicode hex="00E6"/>
  <anchor x="725" y="-70" name="bottom"/>
  <anchor x="782.5" y="1120" name="top"/>
  <outline>
    <contour>
      <point x="1140" y="1011" type="curve" smooth="yes"/>
      <point x="881.5" y="1011"/>
      <point x="736.5" y="803.5"/>
      <point x="736.5" y="518" type="curve" smooth="yes"/>
      <point x="736.5" y="172.5"/>
      <point x="900" y="-13" name="n05"/>
      <point x="1141" y="-13" type="curve" smooth="yes"/>
      <point x="1279" y="-13"/>
      <point x="1419" y="48.5"/>
      <point x="1481" y="128" type="curve"/>
      <point x="1457" y="158" type="line"/>
      <point x="1452.5" y="164"/>
      <point x="1446" y="168"/>
      <point x="1435.5" y="168" type="curve" smooth="yes"/>
      <point x="1409.5" y="168"/>
      <point x="1338.5" y="62.5"/>
      <point x="1148.5" y="62.5" type="curve" smooth="yes"/>
      <point x="945.5" y="62.5"/>
      <point x="812" y="219"/>
      <point x="812" y="518" type="curve" smooth="yes"/>
      <point x="812" y="771.5"/>
      <point x="928" y="940"/>
      <point x="1138" y="940" type="curve" smooth="yes"/>
      <point x="1300" y="940"/>
      <point x="1417" y="806"/>
      <point x="1417" y="578" type="curve" name="n25"/>
      <point x="793.5" y="578" type="line"/>
      <point x="793.5" y="517.5" type="line"/>
      <point x="1476.5" y="517.5" type="line" smooth="yes"/>
      <point x="1495" y="517.5"/>
      <point x="1501" y="526.5"/>
      <point x="1501" y="555" type="curve" smooth="yes" name="n31"/>
      <point x="1501" y="849.5"/>
      <point x="1341" y="1011"/>
    </contour>
    <contour>
      <point x="789" y="385" type="line"/>
      <point x="794" y="648" type="line" name="n35"/>
      <point x="794" y="869.5"/>
      <point x="699.5" y="1012"/>
      <point x="489" y="1012" type="curve" smooth="yes" name="n38"/>
      <point x="346.5" y="1012"/>
      <point x="241" y="958"/>
      <point x="138" y="854" type="curve"/>
      <point x="155" y="825.5" type="line"/>
      <point x="162.5" y="815"/>
      <point x="171.5" y="807"/>
      <point x="185" y="807" type="curve" smooth="yes"/>
      <point x="225.5" y="807"/>
      <point x="295" y="937.5"/>
      <point x="487.5" y="937.5" type="curve" smooth="yes" name="n48"/>
      <point x="642.5" y="937.5"/>
      <point x="723" y="831.5"/>
      <point x="723" y="648" type="curve" smooth="yes" name="n51"/>
      <point x="723" y="385" type="line"/>
    </contour>
    <contour>
      <point x="723" y="385" type="line"/>
      <point x="723" y="173.5"/>
      <point x="580.5" y="52.5"/>
      <point x="404" y="52.5" type="curve" smooth="yes" name="n56"/>
      <point x="274.5" y="52.5"/>
      <point x="180.5" y="113.5"/>
      <point x="180.5" y="262" type="curve" smooth="yes" name="n59"/>
      <point x="180.5" y="405.5"/>
      <point x="349.5" y="506"/>
      <point x="738.5" y="516.5" type="curve" name="n62"/>
      <point x="728.5" y="578.5" type="line" name="n63"/>
      <point x="274.5" y="568.5"/>
      <point x="88.5" y="428.5"/>
      <point x="88.5" y="258" type="curve" smooth="yes" name="n66"/>
      <point x="88.5" y="63"/>
      <point x="218" y="-16"/>
      <point x="385" y="-16" type="curve" smooth="yes" name="n69"/>
      <point x="560.5" y="-16"/>
      <point x="789" y="85.5"/>
      <point x="789" y="385" type="curve"/>
    </contour>
  </outline>
</glyph>
<glyph name="ccedilla" format="2">
  <advance width="944"/>
  <unicode hex="00E7"/>
  <anchor x="484.75" y="-421" name="bottom"/>
  <anchor x="552.75" y="1120" name="top"/>
  <outline>
    <contour>
      <point x="858.25" y="895.5" type="line"/>
      <point x="784.25" y="966"/>
      <point x="683.75" y="1011"/>
      <point x="554.75" y="1011" type="curve" smooth="yes" name="n03"/>
      <point x="267.75" y="1011"/>
      <point x="104.25" y="801"/>
      <point x="104.25" y="498" type="curve" smooth="yes" name="n06"/>
      <point x="104.25" y="175.5"/>
      <point x="279.75" y="-13"/>
      <point x="532.25" y="-13" type="curve" smooth="yes" name="n09"/>
      <point x="681.75" y="-13"/>
      <point x="810.25" y="47"/>
      <point x="872.25" y="128" type="curve"/>
      <point x="846.75" y="160" type="line"/>
      <point x="842.25" y="166"/>
      <point x="835.75" y="170"/>
      <point x="826.75" y="170" type="curve" smooth="yes"/>
      <point x="796.25" y="170"/>
      <point x="738.75" y="61.5"/>
      <point x="546.75" y="61.5" type="curve" smooth="yes"/>
      <point x="337.75" y="61.5"/>
      <point x="201.75" y="219"/>
      <point x="201.75" y="498" type="curve" smooth="yes" name="n22"/>
      <point x="201.75" y="767.5"/>
      <point x="331.25" y="936.5"/>
      <point x="559.75" y="936.5" type="curve" smooth="yes" name="n25"/>
      <point x="725.75" y="936.5"/>
      <point x="784.25" y="850"/>
      <point x="811.25" y="850" type="curve" smooth="yes"/>
      <point x="822.25" y="850"/>
      <point x="827.25" y="855"/>
      <point x="833.25" y="862.5" type="curve"/>
    </contour>
    <contour>
      <point x="426.5" y="-276" type="curve" smooth="yes"/>
      <point x="418.5" y="-276"/>
      <point x="414.5" y="-280"/>
      <point x="410.5" y="-287.5" type="curve"/>
      <point x="400.5" y="-315" type="line"/>
      <point x="435.5" y="-340"/>
      <point x="491.5" y="-357.5"/>
      <point x="545.5" y="-357.5" type="curve" smooth="yes" name="n39"/>
      <point x="653" y="-357.5"/>
      <point x="729.5" y="-309.5"/>
      <point x="729.5" y="-229" type="curve" smooth="yes" name="n42"/>
      <point x="729.5" y="-145"/>
      <point x="655" y="-109"/>
      <point x="517" y="-89" type="curve"/>
      <point x="541.5" y="-108.5" type="line"/>
      <point x="577.75" y="11.5" type="line"/>
      <point x="521.25" y="11.5" type="line" name="n48"/>
      <point x="475" y="-131" type="line"/>
      <point x="579" y="-143.5"/>
      <point x="652.5" y="-161"/>
      <point x="652.5" y="-229" type="curve" smooth="yes" name="n52"/>
      <point x="652.5" y="-278.5"/>
      <point x="613" y="-310.5"/>
      <point x="544.5" y="-310.5" type="curve" smooth="yes" name="n55"/>
      <point x="468.5" y="-310.5"/>
      <point x="440.5" y="-276"/>
    </contour>
  </outline>
</glyph>
<glyph name="eth" format="2">
  <advance width="1121.25"/>
  <unicode hex="00F0"/>
  <guideline y="1406.0"/>
  <anchor x="768.0" y="1503.25" name="Top"/>
  <anchor x="768.0" y="1503.25" name="top"/>
  <anchor x="544.75" y="-70.0" name="bottom"/>
  <outline>
    <contour>
      <point x="320.75" y="1391.5" type="curve"/>
      <point x="310.25" y="1358.5" type="line" smooth="yes"/>
      <point x="301.25" y="1332.0"/>
      <point x="317.75" y="1317.0"/>
      <point x="334.25" y="1313.0" type="curve"/>
      <point x="670.25" y="1245.5"/>
      <point x="918.25" y="1054.5"/>
      <point x="919.75" y="600.5" type="curve"/>
      <point x="912.25" y="595.0" type="line"/>
      <point x="912.25" y="266.5"/>
      <point x="785.75" y="63.0"/>
      <point x="544.25" y="63.0" type="curve" smooth="yes"/>
      <point x="358.75" y="63.0"/>
      <point x="199.75" y="206.5"/>
      <point x="199.75" y="454.5" type="curve" smooth="yes"/>
      <point x="199.75" y="675.0"/>
      <point x="321.25" y="846.5"/>
      <point x="555.25" y="846.5" type="curve" smooth="yes"/>
      <point x="765.25" y="846.5"/>
      <point x="878.75" y="689.0"/>
      <point x="916.25" y="548.0" type="curve"/>
      <point x="960.75" y="569.5" type="line"/>
      <point x="898.75" y="816.0"/>
      <point x="711.25" y="921.0"/>
      <point x="539.25" y="921.0" type="curve" smooth="yes"/>
      <point x="264.25" y="921.0"/>
      <point x="104.75" y="711.5"/>
      <point x="104.75" y="455.0" type="curve" smooth="yes"/>
      <point x="104.75" y="166.5"/>
      <point x="300.25" y="-11.5"/>
      <point x="542.25" y="-11.5" type="curve" smooth="yes"/>
      <point x="849.75" y="-11.5"/>
      <point x="1000.25" y="231.0"/>
      <point x="1000.25" y="598.5" type="curve" smooth="yes"/>
      <point x="1000.25" y="1128.0"/>
      <point x="660.75" y="1338.0"/>
    </contour>
    <contour>
      <point x="487.25" y="1042.0" type="line"/>
      <point x="668.25" y="1202.0" type="line"/>
      <point x="677.75" y="1206.0" type="line"/>
      <point x="827.0" y="1336.75" type="line" smooth="yes"/>
      <point x="841.5" y="1348.5"/>
      <point x="843.75" y="1362.5"/>
      <point x="835.25" y="1376.0" type="curve"/>
      <point x="816.75" y="1404.5" type="line"/>
      <point x="642.25" y="1250.0" type="line"/>
      <point x="633.25" y="1246.0" type="line"/>
      <point x="475.25" y="1108.5" type="line"/>
      <point x="460.75" y="1098.5"/>
      <point x="459.25" y="1083.0"/>
      <point x="469.75" y="1070.0" type="curve"/>
    </contour>
  </outline>
</glyph>
<glyph name="divide" format="2">
  <advance width="1160"/>
  <unicode hex="00F7"/>
  <outline>
    <contour>
      <point x="109.75" y="634" type="line" name="n00"/>
      <point x="1048.75" y="634" type="line"/>
      <point x="1048.75" y="707" type="line"/>
      <point x="109.75" y="707" type="line" name="n03"/>
    </contour>
    <contour>
      <point x="486.25" y="1025" type="curve" smooth="yes" name="n04"/>
      <point x="486.25" y="973"/>
      <point x="526.25" y="933"/>
      <point x="578.25" y="933" type="curve" smooth="yes" name="n07"/>
      <point x="629.75" y="933"/>
      <point x="671.75" y="973"/>
      <point x="671.75" y="1025" type="curve" smooth="yes" name="n10"/>
      <point x="671.75" y="1076.5"/>
      <point x="629.75" y="1118.5"/>
      <point x="578.25" y="1118.5" type="curve" smooth="yes" name="n13"/>
      <point x="526.25" y="1118.5"/>
      <point x="486.25" y="1076.5"/>
    </contour>
    <contour>
      <point x="486.25" y="313" type="curve" smooth="yes"/>
      <point x="486.25" y="261"/>
      <point x="526.25" y="221"/>
      <point x="578.25" y="221" type="curve" smooth="yes" name="n19"/>
      <point x="629.75" y="221"/>
      <point x="671.75" y="261"/>
      <point x="671.75" y="313" type="curve" smooth="yes"/>
      <point x="671.75" y="364.5"/>
      <point x="629.75" y="406.5"/>
      <point x="578.25" y="406.5" type="curve" smooth="yes" name="n25"/>
      <point x="526.25" y="406.5"/>
      <point x="486.25" y="364.5"/>
    </contour>
  </outline>
</glyph>
<glyph name="oslash" format="2">
  <advance width="1114"/>
  <unicode hex="00F8"/>
  <anchor x="490" y="-70" name="bottom"/>
  <anchor x="558" y="1120" name="top"/>
  <outline>
    <contour>
      <point x="558.25" y="1011" type="curve" smooth="yes" name="n00"/>
      <point x="272.25" y="1011"/>
      <point x="104.25" y="808.5"/>
      <point x="104.25" y="498" type="curve" smooth="yes" name="n03"/>
      <point x="104.25" y="187"/>
      <point x="272.25" y="-13"/>
      <point x="558.25" y="-13" type="curve" smooth="yes" name="n06"/>
      <point x="843.75" y="-13"/>
      <point x="1011.25" y="187"/>
      <point x="1011.25" y="498" type="curve" smooth="yes" name="n09"/>
      <point x="1011.25" y="808.5"/>
      <point x="843.75" y="1011"/>
    </contour>
    <contour>
      <point x="558.25" y="59.5" type="curve" smooth="yes" name="n12"/>
      <point x="320.75" y="59.5"/>
      <point x="197.25" y="226.5"/>
      <point x="197.25" y="497.5" type="curve" smooth="yes" name="n15"/>
      <point x="197.25" y="763.5"/>
      <point x="320.75" y="938.5"/>
      <point x="558.25" y="938.5" type="curve" smooth="yes" name="n18"/>
      <point x="794.75" y="938.5"/>
      <point x="918.25" y="768.5"/>
      <point x="918.25" y="497.5" type="curve" smooth="yes" name="n21"/>
      <point x="918.25" y="231.5"/>
      <point x="794.75" y="59.5"/>
    </contour>
    <contour>
      <point x="1030.25" y="1062" type="line" name="n24"/>
      <point x="980.25" y="1062" type="line" smooth="yes"/>
      <point x="954.75" y="1062"/>
      <point x="945.25" y="1054"/>
      <point x="930.75" y="1032.5" type="curve"/>
      <point x="106.75" y="-75" type="line" name="n29"/>
      <point x="145.25" y="-75" type="line" smooth="yes"/>
      <point x="167.25" y="-75"/>
      <point x="192.25" y="-66.5"/>
      <point x="207.75" y="-43.5" type="curve"/>
    </contour>
  </outline>
</glyph>
<glyph name="thorn" format="2">
  <advance width="1102.75"/>
  <unicode hex="00FE"/>
  <anchor x="231.5" y="1503.25" name="Top"/>
  <anchor x="231.5" y="1503.25" name="top"/>
  <anchor x="474.75" y="-421.0" name="bottom"/>
  <outline>
    <contour>
      <point x="259.75" y="-352.0" type="line"/>
      <point x="259.75" y="1455.0" type="line"/>
      <point x="164.25" y="1455.0" type="line"/>
      <point x="164.25" y="-352.0" type="line"/>
    </contour>
    <contour>
      <point x="242.75" y="167.0" type="line"/>
      <point x="315.75" y="49.0"/>
      <point x="417.25" y="-13.0"/>
      <point x="563.25" y="-13.0" type="curve" smooth="yes"/>
      <point x="842.25" y="-13.0"/>
      <point x="996.75" y="213.0"/>
      <point x="996.75" y="504.0" type="curve" smooth="yes"/>
      <point x="996.75" y="842.5"/>
      <point x="853.25" y="1011.0"/>
      <point x="608.75" y="1011.0" type="curve" smooth="yes"/>
      <point x="449.75" y="1011.0"/>
      <point x="322.25" y="920.5"/>
      <point x="233.25" y="783.0" type="curve"/>
      <point x="245.25" y="719.5" type="line"/>
      <point x="329.75" y="854.0"/>
      <point x="443.25" y="935.0"/>
      <point x="581.75" y="935.0" type="curve" smooth="yes"/>
      <point x="786.25" y="935.0"/>
      <point x="898.75" y="800.5"/>
      <point x="898.75" y="504.0" type="curve" smooth="yes"/>
      <point x="898.75" y="242.0"/>
      <point x="778.75" y="61.5"/>
      <point x="544.75" y="61.5" type="curve" smooth="yes"/>
      <point x="420.75" y="61.5"/>
      <point x="327.75" y="107.0"/>
      <point x="249.25" y="234.0" type="curve"/>
    </contour>
  </outline>
</glyph>
<glyph name="dcroat" format="2">
  <advance width="1103"/>
  <unicode hex="0111"/>
  <anchor x="877" y="1503.25" name="Top"/>
  <anchor x="610.25" y="-70" name="bottom"/>
  <anchor x="877" y="1503.25" name="top"/>
  <outline>
    <contour>
      <point x="595.25" y="1157.5" type="line" name="n00"/>
      <point x="1092.25" y="1157.5" type="line"/>
      <point x="1092.25" y="1220.5" type="line"/>
      <point x="595.25" y="1220.5" type="line" name="n03"/>
    </contour>
    <contour>
      <point x="938.75" y="0" type="line" name="n04"/>
      <point x="938.75" y="1455" type="line" name="n05"/>
      <point x="843.25" y="1455" type="line"/>
      <point x="843.25" y="213.5" type="line"/>
      <point x="845.75" y="206.5" type="line"/>
      <point x="856.75" y="25.5" type="line" name="n09"/>
      <point x="859.75" y="7.5"/>
      <point x="869.25" y="0"/>
      <point x="886.25" y="0" type="curve" smooth="yes"/>
    </contour>
    <contour>
      <point x="866.25" y="821.5" type="line"/>
      <point x="791.75" y="940"/>
      <point x="688.75" y="1002"/>
      <point x="539.75" y="1002" type="curve" smooth="yes" name="n16"/>
      <point x="260.75" y="1002"/>
      <point x="106.25" y="781"/>
      <point x="106.25" y="490" type="curve" smooth="yes" name="n19"/>
      <point x="106.25" y="151.5"/>
      <point x="249.75" y="-13"/>
      <point x="494.25" y="-13" type="curve" smooth="yes" name="n22"/>
      <point x="653.25" y="-13"/>
      <point x="780.75" y="78.5"/>
      <point x="869.75" y="216" type="curve"/>
      <point x="857.75" y="279.5" type="line"/>
      <point x="773.25" y="145"/>
      <point x="659.75" y="64"/>
      <point x="521.25" y="64" type="curve" smooth="yes" name="n29"/>
      <point x="316.75" y="64"/>
      <point x="204.25" y="193.5"/>
      <point x="204.25" y="490" type="curve" smooth="yes" name="n32"/>
      <point x="204.25" y="752"/>
      <point x="324.25" y="927.5"/>
      <point x="558.25" y="927.5" type="curve" smooth="yes" name="n35"/>
      <point x="682.25" y="927.5"/>
      <point x="775.25" y="882"/>
      <point x="853.75" y="755" type="curve" name="n38"/>
    </contour>
  </outline>
</glyph>
<glyph name="Hbar" format="2">
  <advance width="1519.5"/>
  <unicode hex="0126"/>
  <anchor x="767.25" y="1503.25" name="Top"/>
  <anchor x="767.25" y="1503.25" name="top"/>
  <anchor x="768.5" y="-70.0" name="bottom"/>
  <anchor x="-68.75" y="1120.0" name="onRight"/>
  <outline>
    <contour>
      <point x="36.25" y="1040.0" type="line"/>
      <point x="1483.25" y="1040.0" type="line"/>
      <point x="1483.25" y="1103.0" type="line"/>
      <point x="36.25" y="1103.0" type="line"/>
    </contour>
    <component base="H" xOffset="4.5"/>
  </outline>
</glyph>
<glyph name="idotless" format="2">
  <advance width="446"/>
  <unicode hex="0131"/>
  <anchor x="223" y="-70" name="bottom"/>
  <anchor x="225.25" y="1120" name="top"/>
  <outline>
    <contour>
      <point x="175.25" y="995" type="line" name="n00"/>
      <point x="175.25" y="0" type="line" name="n01"/>
      <point x="270.75" y="0" type="line"/>
      <point x="270.75" y="995" type="line" name="n03"/>
    </contour>
  </outline>
</glyph>
<glyph name="kgreenlandic" format="2">
  <advance width="952"/>
  <unicode hex="0138"/>
  <anchor x="514.5" y="-70" name="bottom"/>
  <anchor x="490.5" y="1120" name="top"/>
  <outline>
    <contour>
      <point x="164.25" y="995" type="line" name="n00"/>
      <point x="164.25" y="0" type="line" name="n01"/>
      <point x="259.75" y="0" type="line"/>
      <point x="259.75" y="995" type="line" name="n03"/>
    </contour>
    <contour>
      <point x="229.25" y="568" type="line" name="n04"/>
      <point x="244.75" y="502.5" type="line"/>
      <point x="304.75" y="502.5" type="line" smooth="yes"/>
      <point x="344.75" y="502.5"/>
      <point x="357.75" y="496.5"/>
      <point x="380.25" y="471.5" type="curve" smooth="yes"/>
      <point x="798.25" y="22.5" type="line"/>
      <point x="811.25" y="5"/>
      <point x="825.75" y="0"/>
      <point x="844.75" y="0" type="curve" smooth="yes"/>
      <point x="928.25" y="0" type="line"/>
      <point x="466.75" y="502" type="line"/>
      <point x="440.25" y="536"/>
      <point x="410.75" y="560"/>
      <point x="345.75" y="560" type="curve"/>
      <point x="343.25" y="529" type="line"/>
      <point x="395.75" y="529"/>
      <point x="427.25" y="545"/>
      <point x="456.25" y="578" type="curve"/>
      <point x="895.25" y="995" type="line"/>
      <point x="810.75" y="995" type="line" smooth="yes"/>
      <point x="786.75" y="995"/>
      <point x="772.25" y="986"/>
      <point x="758.75" y="970" type="curve"/>
      <point x="360.25" y="591" type="line"/>
      <point x="340.25" y="570.5"/>
      <point x="324.25" y="568"/>
      <point x="305.75" y="568" type="curve" smooth="yes"/>
    </contour>
  </outline>
</glyph>
<glyph name="Lslash" format="2">
  <advance width="1037"/>
  <unicode hex="0141"/>
  <anchor x="287.25" y="707" name="Bar"/>
  <anchor x="291" y="1503.25" name="Top"/>
  <anchor x="598.25" y="-70" name="bottom"/>
  <anchor x="291" y="1503.25" name="top"/>
  <outline>
    <component base="L" xOffset="24.5"/>
    <contour>
      <point x="38.75" y="485" type="line" name="n00"/>
      <point x="295.75" y="618.5" type="line"/>
      <point x="300.75" y="614" type="line"/>
      <point x="733.75" y="841.75" type="line"/>
      <point x="749.25" y="848.75"/>
      <point x="752.75" y="858.75"/>
      <point x="752.75" y="872.75" type="curve" smooth="yes"/>
      <point x="752.75" y="939" type="line" name="n07"/>
      <point x="300.75" y="703.5" type="line"/>
      <point x="296.25" y="708" type="line"/>
      <point x="56.75" y="581" type="line" smooth="yes"/>
      <point x="43.25" y="574"/>
      <point x="38.75" y="566"/>
      <point x="38.75" y="552" type="curve" smooth="yes"/>
    </contour>
  </outline>
</glyph>
<glyph name="lslash" format="2">
  <advance width="565"/>
  <unicode hex="0142"/>
  <anchor x="292.25" y="1503.25" name="Top"/>
  <anchor x="295.25" y="714" name="bar"/>
  <anchor x="293.5" y="-70" name="bottom"/>
  <anchor x="339.75" y="70.5" name="hook"/>
  <anchor x="292.25" y="1503.25" name="top"/>
  <outline>
    <component base="l" xOffset="71"/>
    <contour>
      <point x="47.75" y="683.75" type="line" name="n00"/>
      <point x="291.5" y="796" type="line"/>
      <point x="296.5" y="791.5" type="line"/>
      <point x="520.5" y="895.75" type="line" smooth="yes"/>
      <point x="536" y="902.75"/>
      <point x="539.5" y="912.75"/>
      <point x="539.5" y="926.75" type="curve" smooth="yes"/>
      <point x="539.5" y="976.75" type="line" name="n07"/>
      <point x="296.5" y="867" type="line"/>
      <point x="292" y="871.5" type="line"/>
      <point x="65.75" y="764.25" type="line"/>
      <point x="52.25" y="757.25"/>
      <point x="47.75" y="749.25"/>
      <point x="47.75" y="735.25" type="curve" smooth="yes"/>
    </contour>
  </outline>
</glyph>
<glyph name="Eng" format="2">
  <advance width="1510.5"/>
  <unicode hex="014A"/>
  <anchor x="791.75" y="1501.75" name="Top"/>
  <anchor x="791.75" y="1501.75" name="top"/>
  <anchor x="755.25" y="-421.0" name="bottom"/>
  <outline>
    <contour>
      <point x="1237.75" y="140.0" type="line"/>
      <point x="298.25" y="1395.5" type="line"/>
      <point x="286.25" y="1411.5"/>
      <point x="278.75" y="1415.0"/>
      <point x="259.75" y="1415.0" type="curve" smooth="yes"/>
      <point x="209.25" y="1415.0" type="line"/>
      <point x="209.25" y="0.0" type="line"/>
      <point x="298.75" y="0.0" type="line"/>
      <point x="298.75" y="1192.0" type="line" smooth="yes"/>
      <point x="298.75" y="1227.0"/>
      <point x="294.75" y="1273.5"/>
      <point x="287.75" y="1308.5" type="curve"/>
      <point x="275.75" y="1275.0" type="line"/>
      <point x="1215.0" y="19.75" type="line" smooth="yes"/>
      <point x="1225.75" y="6.25"/>
      <point x="1236.0" y="0.0"/>
      <point x="1252.75" y="0.0" type="curve"/>
      <point x="1301.25" y="21.75" type="line"/>
      <point x="1301.25" y="1415.0" type="line"/>
      <point x="1211.75" y="1415.0" type="line"/>
      <point x="1211.75" y="227.0" type="line" smooth="yes"/>
      <point x="1211.75" y="191.0"/>
      <point x="1216.75" y="143.5"/>
      <point x="1223.75" y="107.5" type="curve"/>
    </contour>
    <contour>
      <point x="1301.25" y="119.25" type="line"/>
      <point x="1211.5" y="119.25" type="line"/>
      <point x="1211.5" y="-43.75" type="line" smooth="yes"/>
      <point x="1211.5" y="-205.5"/>
      <point x="1140.25" y="-286.25"/>
      <point x="1014.0" y="-286.25" type="curve" smooth="yes"/>
      <point x="954.5" y="-286.25"/>
      <point x="920.5" y="-268.25"/>
      <point x="908.0" y="-268.25" type="curve" smooth="yes"/>
      <point x="898.5" y="-268.25"/>
      <point x="888.5" y="-271.0"/>
      <point x="883.75" y="-289.0" type="curve"/>
      <point x="873.75" y="-328.5" type="line"/>
      <point x="923.75" y="-349.0"/>
      <point x="968.0" y="-359.0"/>
      <point x="1022.0" y="-359.0" type="curve" smooth="yes"/>
      <point x="1212.0" y="-359.0"/>
      <point x="1301.25" y="-235.25"/>
      <point x="1301.25" y="-34.5" type="curve"/>
    </contour>
  </outline>
</glyph>
<glyph name="eng" format="2">
  <advance width="1100"/>
  <unicode hex="014B"/>
  <anchor x="555.5" y="-421" name="bottom"/>
  <anchor x="551.75" y="1120" name="top"/>
  <outline>
    <contour>
      <point x="259.75" y="0" type="line" name="n00"/>
      <point x="259.75" y="781.5" type="line"/>
      <point x="257.25" y="788.5" type="line"/>
      <point x="246.25" y="969.5" type="line" name="n03"/>
      <point x="243.25" y="987.5"/>
      <point x="233.75" y="995" name="n05"/>
      <point x="216.75" y="995" type="curve" smooth="yes"/>
      <point x="164.25" y="995" type="line" name="n07"/>
      <point x="164.25" y="0" type="line"/>
    </contour>
    <contour>
      <point x="946.75" y="636" type="line" smooth="yes" name="n09"/>
      <point x="946.75" y="867"/>
      <point x="835.75" y="1011"/>
      <point x="615.75" y="1011" type="curve" smooth="yes" name="n12"/>
      <point x="452.25" y="1011"/>
      <point x="321.75" y="918.5"/>
      <point x="227.25" y="782.5" type="curve"/>
      <point x="239.25" y="719.5" type="line"/>
      <point x="330.25" y="852"/>
      <point x="451.75" y="935"/>
      <point x="591.75" y="935" type="curve" smooth="yes" name="n19"/>
      <point x="767.25" y="935"/>
      <point x="851.25" y="823.5"/>
      <point x="851.25" y="636" type="curve" name="n22"/>
      <point x="851.25" y="636" type="line"/>
      <point x="851.25" y="-55.75" type="line" smooth="yes"/>
      <point x="851.25" y="-217.5"/>
      <point x="780" y="-298.25"/>
      <point x="653.75" y="-298.25" type="curve" smooth="yes"/>
      <point x="594.25" y="-298.25"/>
      <point x="560.25" y="-280.25"/>
      <point x="547.75" y="-280.25" type="curve" smooth="yes" name="n30"/>
      <point x="538.25" y="-280.25"/>
      <point x="528.25" y="-283"/>
      <point x="523.5" y="-301" type="curve" smooth="yes"/>
      <point x="513.5" y="-340.5" type="line"/>
      <point x="563.5" y="-361"/>
      <point x="607.75" y="-371"/>
      <point x="661.75" y="-371" type="curve" smooth="yes" name="n37"/>
      <point x="851.75" y="-371"/>
      <point x="946.75" y="-247.25"/>
      <point x="946.75" y="-46.5" type="curve" smooth="yes"/>
    </contour>
  </outline>
</glyph>
<glyph name="OE" format="2">
  <advance width="2201.75"/>
  <unicode hex="0152"/>
  <anchor x="1119.75" y="1503.25" name="Top"/>
  <anchor x="1119.75" y="1503.25" name="top"/>
  <anchor x="1217.0" y="-70.0" name="bottom"/>
  <outline>
    <contour>
      <point x="1334.75" y="707.5" type="curve" smooth="yes"/>
      <point x="1334.75" y="1143.5"/>
      <point x="1093.25" y="1431.0"/>
      <point x="726.25" y="1431.0" type="curve" smooth="yes"/>
      <point x="367.25" y="1431.0"/>
      <point x="119.25" y="1142.5"/>
      <point x="119.25" y="707.5" type="curve" smooth="yes"/>
      <point x="119.25" y="271.0"/>
      <point x="367.25" y="-13.0"/>
      <point x="726.25" y="-13.0" type="curve" smooth="yes"/>
      <point x="1093.25" y="-13.0"/>
      <point x="1334.75" y="271.0"/>
    </contour>
    <contour>
      <point x="1353.75" y="1415.0" type="line"/>
      <point x="1262.25" y="1415.0" type="line"/>
      <point x="1262.25" y="0.0" type="line"/>
      <point x="1353.75" y="0.0" type="line"/>
    </contour>
    <contour>
      <point x="1339.75" y="757.5" type="line"/>
      <point x="1339.75" y="675.5" type="line"/>
      <point x="1973.75" y="675.5" type="line"/>
      <point x="1973.75" y="757.5" type="line"/>
    </contour>
    <contour>
      <point x="1339.75" y="1415.0" type="line"/>
      <point x="1339.75" y="1330.5" type="line"/>
      <point x="2098.75" y="1330.5" type="line"/>
      <point x="2098.75" y="1415.0" type="line"/>
    </contour>
    <contour>
      <point x="1339.75" y="84.5" type="line"/>
      <point x="1339.75" y="0.0" type="line"/>
      <point x="2098.75" y="0.0" type="line"/>
      <point x="2100.25" y="84.5" type="line"/>
    </contour>
    <contour>
      <point x="1250.75" y="707.5" type="curve" smooth="yes"/>
      <point x="1250.75" y="311.0"/>
      <point x="1044.75" y="72.5"/>
      <point x="737.75" y="72.5" type="curve" smooth="yes"/>
      <point x="432.75" y="72.5"/>
      <point x="223.75" y="311.0"/>
      <point x="223.75" y="707.5" type="curve" smooth="yes"/>
      <point x="223.75" y="1103.5"/>
      <point x="432.75" y="1345.5"/>
      <point x="737.75" y="1345.5" type="curve" smooth="yes"/>
      <point x="1044.75" y="1345.5"/>
      <point x="1250.75" y="1103.5"/>
    </contour>
  </outline>
</glyph>
<glyph name="oe" format="2">
  <advance width="1740"/>
  <unicode hex="0153"/>
  <anchor x="857.5" y="-70" name="bottom"/>
  <anchor x="890.75" y="1120" name="top"/>
  <outline>
    <contour>
      <point x="529" y="1011" type="curve" smooth="yes" name="n00"/>
      <point x="264" y="1011"/>
      <point x="105" y="808.5"/>
      <point x="105" y="498" type="curve" smooth="yes" name="n03"/>
      <point x="105" y="187"/>
      <point x="264" y="-13"/>
      <point x="526" y="-13" type="curve" smooth="yes" name="n06"/>
      <point x="791.5" y="-13"/>
      <point x="940.5" y="187"/>
      <point x="940.5" y="498" type="curve" smooth="yes"/>
      <point x="940.5" y="808.5"/>
      <point x="791.5" y="1011"/>
    </contour>
    <contour>
      <point x="533.5" y="62" type="curve" smooth="yes" name="n12"/>
      <point x="312.5" y="62"/>
      <point x="203" y="231.5"/>
      <point x="203" y="497.5" type="curve" smooth="yes" name="n15"/>
      <point x="203" y="763.5"/>
      <point x="312.5" y="936"/>
      <point x="533.5" y="936" type="curve" smooth="yes" name="n18"/>
      <point x="752.5" y="936"/>
      <point x="862" y="763.5"/>
      <point x="862" y="497.5" type="curve" smooth="yes"/>
      <point x="862" y="231.5"/>
      <point x="752.5" y="62"/>
    </contour>
    <contour>
      <point x="1284" y="1011" type="curve" smooth="yes"/>
      <point x="1025.5" y="1011"/>
      <point x="880.5" y="803.5"/>
      <point x="880.5" y="518" type="curve" smooth="yes" name="n27"/>
      <point x="880.5" y="172.5"/>
      <point x="1044" y="-13"/>
      <point x="1285" y="-13" type="curve" smooth="yes"/>
      <point x="1423" y="-13"/>
      <point x="1563" y="48.5"/>
      <point x="1625" y="128" type="curve"/>
      <point x="1599" y="160" type="line"/>
      <point x="1594.5" y="166"/>
      <point x="1588" y="170"/>
      <point x="1579.5" y="170" type="curve" smooth="yes"/>
      <point x="1551.5" y="170"/>
      <point x="1472" y="62.5"/>
      <point x="1292.5" y="62.5" type="curve" smooth="yes"/>
      <point x="1089.5" y="62.5"/>
      <point x="956" y="219"/>
      <point x="956" y="518" type="curve" smooth="yes" name="n43"/>
      <point x="956" y="771.5"/>
      <point x="1072" y="940"/>
      <point x="1282" y="940" type="curve" smooth="yes"/>
      <point x="1444" y="940"/>
      <point x="1556.5" y="806"/>
      <point x="1556.5" y="578" type="curve" name="n49"/>
      <point x="937.5" y="578" type="line" name="n50"/>
      <point x="937.5" y="517.5" type="line" name="n51"/>
      <point x="1616" y="517.5" type="line" smooth="yes"/>
      <point x="1634.5" y="517.5"/>
      <point x="1640.5" y="526.5"/>
      <point x="1640.5" y="555" type="curve" smooth="yes" name="n55"/>
      <point x="1640.5" y="849.5"/>
      <point x="1485" y="1011"/>
    </contour>
  </outline>
</glyph>
<glyph name="Tbar" format="2">
  <advance width="1193"/>
  <unicode hex="0166"/>
  <anchor x="607.25" y="707" name="Slash"/>
  <anchor x="599" y="1503.25" name="Top"/>
  <anchor x="599" y="-70" name="bottom"/>
  <anchor x="599" y="1503.25" name="top"/>
  <outline>
    <component base="T" xOffset="17.5"/>
    <contour>
      <point x="201.75" y="786.5" type="line" name="n00"/>
      <point x="991.25" y="786.5" type="line"/>
      <point x="991.25" y="849.5" type="line"/>
      <point x="201.75" y="849.5" type="line" name="n03"/>
    </contour>
  </outline>
</glyph>
<glyph name="tbar" format="2">
  <advance width="692"/>
  <unicode hex="0167"/>
  <anchor x="377.75" y="707" name="Slash"/>
  <anchor x="275" y="517.25" name="bar"/>
  <anchor x="438.25" y="-70" name="bottom"/>
  <anchor x="284.5" y="1414.25" name="top"/>
  <outline>
    <component base="t" xOffset="3.5"/>
    <contour>
      <point x="70.5" y="627" type="line" name="n00"/>
      <point x="633.5" y="627" type="line"/>
      <point x="633.5" y="690" type="line"/>
      <point x="70.5" y="690" type="line" name="n03"/>
    </contour>
  </outline>
</glyph>
<glyph name="longs" format="2">
  <advance width="525"/>
  <unicode hex="017F"/>
  <anchor x="419.5" y="1503.25" name="Top"/>
  <anchor x="273.25" y="-70" name="bottom"/>
  <anchor x="490" y="1488" name="top"/>
  <outline>
    <contour>
      <point x="321" y="0" type="line" name="n00"/>
      <point x="321" y="1087" type="line" smooth="yes"/>
      <point x="321" y="1286.5"/>
      <point x="413" y="1361"/>
      <point x="544" y="1361" type="curve" smooth="yes" name="n04"/>
      <point x="605" y="1361"/>
      <point x="641.5" y="1342.5"/>
      <point x="645" y="1364.5" type="curve"/>
      <point x="649" y="1411.5" type="line"/>
      <point x="616.5" y="1425"/>
      <point x="571.5" y="1432.5"/>
      <point x="530.5" y="1432.5" type="curve" smooth="yes" name="n11"/>
      <point x="348.5" y="1432.5"/>
      <point x="225.5" y="1317"/>
      <point x="225.5" y="1089.5" type="curve" smooth="yes" name="n14"/>
      <point x="225.5" y="0" type="line"/>
    </contour>
    <contour>
      <point x="298.5" y="893" type="line" name="n16"/>
      <point x="298.5" y="963.5" type="line" name="n17"/>
      <point x="57" y="963.5" type="line"/>
      <point x="57" y="925.5" type="line" smooth="yes"/>
      <point x="57" y="911"/>
      <point x="68" y="902.5"/>
      <point x="85.5" y="900" type="curve"/>
      <point x="244" y="890.5" type="line"/>
      <point x="264.5" y="893" type="line"/>
    </contour>
  </outline>
</glyph>
<glyph name="bstroke" format="2">
  <advance width="1102.75"/>
  <unicode hex="0180"/>
  <anchor x="227.5" y="1503.25" name="Top"/>
  <anchor x="227.5" y="1503.25" name="top"/>
  <anchor x="475.5" y="-70.0" name="bottom"/>
  <outline>
    <contour>
      <point x="221.5" y="0.0" type="line" smooth="yes"/>
      <point x="239.0" y="0.0"/>
      <point x="246.5" y="9.5"/>
      <point x="249.0" y="25.0" type="curve"/>
      <point x="257.0" y="171.75" type="line"/>
      <point x="259.5" y="182.25" type="line"/>
      <point x="259.5" y="1455.0" type="line"/>
      <point x="164.0" y="1455.0" type="line"/>
      <point x="164.0" y="0.0" type="line"/>
    </contour>
    <contour>
      <point x="242.5" y="167.0" type="line"/>
      <point x="315.5" y="49.0"/>
      <point x="417.0" y="-13.0"/>
      <point x="563.0" y="-13.0" type="curve" smooth="yes"/>
      <point x="842.0" y="-13.0"/>
      <point x="996.5" y="208.0"/>
      <point x="996.5" y="499.0" type="curve" smooth="yes"/>
      <point x="996.5" y="837.5"/>
      <point x="853.0" y="1001.0"/>
      <point x="608.5" y="1001.0" type="curve" smooth="yes"/>
      <point x="449.5" y="1001.0"/>
      <point x="322.0" y="910.5"/>
      <point x="233.0" y="773.0" type="curve"/>
      <point x="245.0" y="709.5" type="line"/>
      <point x="329.5" y="844.0"/>
      <point x="443.0" y="925.0"/>
      <point x="581.5" y="925.0" type="curve" smooth="yes"/>
      <point x="786.0" y="925.0"/>
      <point x="898.5" y="795.5"/>
      <point x="898.5" y="499.0" type="curve" smooth="yes"/>
      <point x="898.5" y="237.0"/>
      <point x="778.5" y="61.5"/>
      <point x="544.5" y="61.5" type="curve" smooth="yes"/>
      <point x="420.5" y="61.5"/>
      <point x="327.5" y="107.0"/>
      <point x="249.0" y="234.0" type="curve"/>
    </contour>
    <contour>
      <point x="10.5" y="1157.5" type="line"/>
      <point x="507.5" y="1157.5" type="line"/>
      <point x="507.5" y="1220.5" type="line"/>
      <point x="10.5" y="1220.5" type="line"/>
    </contour>
  </outline>
</glyph>
